<svg xmlns="http://www.w3.org/2000/svg" width="430" height="1073" fill="none" viewBox="0 0 430 1073">
  <path fill="#84E0F7" d="M1 0h214.5v25H1z"/>
  <path fill="#1D1D1F" d="M91.064 14.358c0 .266-.112.504-.294.7l-1.148 1.148a.987.987 0 0 1-.7.294h-3.458a.963.963 0 0 1-.7-.294l-1.148-1.148a.963.963 0 0 1-.294-.7V9.304c0-.266.098-.504.294-.7l1.148-1.148a.963.963 0 0 1 .7-.294h3.444c.266 0 .518.098.7.294l1.148 1.148a.978.978 0 0 1 .308.7v5.054Zm-1.288-.168.014-4.718c0-.07-.042-.14-.084-.196l-.798-.798a.276.276 0 0 0-.196-.084h-3.038a.254.254 0 0 0-.196.084l-.798.798a.276.276 0 0 0-.084.196v4.718c0 .07.028.14.084.196l.798.798a.254.254 0 0 0 .196.084h3.024c.084 0 .154-.028.196-.084l.798-.798a.276.276 0 0 0 .084-.196Zm11.093 2.31h-1.54l-2.66-3.836a.313.313 0 0 0-.238-.126h-1.848V16.5h-1.274V7.162h5.082a.92.92 0 0 1 .672.28l.826.826c.196.196.308.42.308.7v1.764c0 .28-.112.518-.294.7l-.826.826a.943.943 0 0 1-.672.28h-.35l2.814 3.962Zm-1.96-5.936.014-1.428a.284.284 0 0 0-.084-.196l-.462-.462a.254.254 0 0 0-.196-.084h-3.598v2.912h3.584c.084 0 .154-.028.196-.084l.462-.462a.254.254 0 0 0 .084-.196Zm11.293 5.936H108.9l-.952-2.506h-4.186l-.952 2.506h-1.274l3.5-9.338h1.68l3.486 9.338Zm-2.716-3.682-1.624-4.508-1.652 4.508h3.276Zm10.675 2.072-1.316 1.316a.963.963 0 0 1-.7.294h-2.73a.963.963 0 0 1-.7-.294l-1.148-1.148a.963.963 0 0 1-.294-.7V9.304c0-.266.098-.504.294-.7l1.148-1.148a.963.963 0 0 1 .7-.294h2.73c.266 0 .504.098.7.294l1.316 1.316-.868.868-1.162-1.162a.254.254 0 0 0-.196-.084h-2.31a.254.254 0 0 0-.196.084l-.798.798a.276.276 0 0 0-.084.196v4.718c0 .07.028.14.084.196l.798.798a.254.254 0 0 0 .196.084h2.31c.084 0 .14-.028.196-.084l1.148-1.162.882.868Zm7.683 1.61h-6.034V7.162h1.274v8.106h4.76V16.5Zm7.339 0h-6.034V7.162h6.034v1.232h-4.76v2.814h4.76v1.232h-4.76v2.828h4.76V16.5Z"/>
  <path stroke="#84E0F7" d="M215 .5h213.5v24H215z"/>
  <path fill="#84E0F7" d="M255.558 16.5h-6.034V7.162h6.034v1.232h-4.76v2.814h4.76v1.232h-4.76v2.828h4.76V16.5Zm8.282 0h-1.456l-2.058-3.514-2.086 3.514h-1.428l2.814-4.662-2.814-4.676h1.442l2.072 3.528 2.072-3.528h1.428l-2.814 4.662 2.828 4.676Zm7.345-8.106h-2.8V16.5h-1.274V8.394h-2.8V7.162h6.874v1.232Zm7.484 8.106h-6.034V7.162h6.034v1.232h-4.76v2.814h4.76v1.232h-4.76v2.828h4.76V16.5Zm9.794 0h-1.54l-2.66-3.836a.313.313 0 0 0-.238-.126h-1.848V16.5h-1.274V7.162h5.082a.92.92 0 0 1 .672.28l.826.826c.196.196.308.42.308.7v1.764c0 .28-.112.518-.294.7l-.826.826a.943.943 0 0 1-.672.28h-.35l2.814 3.962Zm-1.96-5.936.014-1.428a.284.284 0 0 0-.084-.196l-.462-.462a.254.254 0 0 0-.196-.084h-3.598v2.912h3.584c.084 0 .154-.028.196-.084l.462-.462a.254.254 0 0 0 .084-.196Zm10.692 5.936h-1.904l-3.724-7.882V16.5h-1.26V7.162h1.904l3.724 7.882V7.162h1.26V16.5Zm10.128 0h-1.302l-.952-2.506h-4.186l-.952 2.506h-1.274l3.5-9.338h1.68l3.486 9.338Zm-2.716-3.682-1.624-4.508-1.652 4.508h3.276ZM314.82 16.5h-6.034V7.162h1.274v8.106h4.76V16.5Zm11.745-5.768c0 .28-.112.518-.294.7l-.826.826a.943.943 0 0 1-.672.28h-3.822V16.5h-1.274V7.162h5.082a.92.92 0 0 1 .672.28l.826.826c.196.196.308.42.308.7v1.764Zm-1.288-.168.014-1.428a.284.284 0 0 0-.084-.196l-.462-.462a.254.254 0 0 0-.196-.084h-3.598v2.912h3.584c.084 0 .154-.028.196-.084l.462-.462a.254.254 0 0 0 .084-.196ZM335.82 16.5h-1.54l-2.66-3.836a.313.313 0 0 0-.238-.126h-1.848V16.5h-1.274V7.162h5.082a.92.92 0 0 1 .672.28l.826.826c.196.196.308.42.308.7v1.764c0 .28-.112.518-.294.7l-.826.826a.943.943 0 0 1-.672.28h-.35l2.814 3.962Zm-1.96-5.936.014-1.428a.284.284 0 0 0-.084-.196l-.462-.462a.254.254 0 0 0-.196-.084h-3.598v2.912h3.584c.084 0 .154-.028.196-.084l.462-.462a.254.254 0 0 0 .084-.196Zm7.569 5.936h-4.746v-1.148h1.736V8.31h-1.736V7.162h4.746V8.31h-1.736v7.042h1.736V16.5Zm8.142-1.61-1.316 1.316a.963.963 0 0 1-.7.294h-2.73a.963.963 0 0 1-.7-.294l-1.148-1.148a.963.963 0 0 1-.294-.7V9.304c0-.266.098-.504.294-.7l1.148-1.148a.963.963 0 0 1 .7-.294h2.73c.266 0 .504.098.7.294l1.316 1.316-.868.868-1.162-1.162a.254.254 0 0 0-.196-.084h-2.31a.254.254 0 0 0-.196.084l-.798.798a.276.276 0 0 0-.084.196v4.718c0 .07.028.14.084.196l.798.798a.254.254 0 0 0 .196.084h2.31c.084 0 .14-.028.196-.084l1.148-1.162.882.868Zm7.683 1.61h-6.034V7.162h6.034v1.232h-4.76v2.814h4.76v1.232h-4.76v2.828h4.76V16.5Zm11.835-4.06h-4.774v4.06h-1.274V7.162h6.048v1.232h-4.774v2.814h4.774v1.232Zm7.886 4.06h-6.034V7.162h6.034v1.232h-4.76v2.814h4.76v1.232h-4.76v2.828h4.76V16.5Zm8.269 0h-6.034V7.162h6.034v1.232h-4.76v2.814h4.76v1.232h-4.76v2.828h4.76V16.5Zm9.122-2.142c0 .266-.112.504-.294.7l-1.148 1.148a.987.987 0 0 1-.7.294h-4.746V7.162h4.732c.266 0 .518.098.7.294l1.148 1.148a.978.978 0 0 1 .308.7v5.054Zm-1.288-.168.014-4.718c0-.07-.042-.14-.084-.196l-.798-.798a.276.276 0 0 0-.196-.084h-3.262v6.874H392c.084 0 .154-.028.196-.084l.798-.798a.276.276 0 0 0 .084-.196Z"/>
  <g clip-path="url(#a)">
    <path stroke="#84E0F7" stroke-dasharray="1 8" d="M72.853 37.003c2.792.02 5.547.2 8.257.534l-.06.496c.34.042.68.086 1.018.133l.068-.496c2.757.38 5.465.918 8.115 1.604l-.125.485c.332.086.664.175.995.265l.131-.482a71.002 71.002 0 0 1 7.837 2.652l-.187.464c.317.129.634.259.949.392l.193-.461a71.38 71.38 0 0 1 7.425 3.654l-.245.435c.298.169.595.34.89.512l.251-.431a71.813 71.813 0 0 1 6.887 4.585l-.299.4c.274.205.546.413.817.623l.305-.394a71.945 71.945 0 0 1 6.237 5.436l-.349.358c.245.24.488.48.729.723l.353-.351a71.704 71.704 0 0 1 5.483 6.196l-.392.31c.212.269.422.54.63.812l.396-.304a71.216 71.216 0 0 1 4.631 6.856l-.429.256c.175.294.348.59.519.886l.431-.249a70.519 70.519 0 0 1 3.696 7.405h.001l-.46.197c.134.314.266.63.396.946l.462-.19a70.225 70.225 0 0 1 2.685 7.826l-.481.134c.092.33.182.66.269.993l.481-.127a69.89 69.89 0 0 1 1.624 8.111h.001l-.495.069c.047.338.093.678.135 1.018l.495-.061c.337 2.708.52 5.464.54 8.257l-.498.003a89.099 89.099 0 0 1 0 1.034l.498.002a70.968 70.968 0 0 1-.541 8.258l-.494-.061c-.042.34-.088.68-.135 1.018l.494.068a69.908 69.908 0 0 1-1.624 8.111l-.481-.126c-.087.332-.177.663-.269.993l.481.133a70.258 70.258 0 0 1-2.685 7.826l-.462-.189c-.13.316-.262.632-.396.946l.459.196a70.774 70.774 0 0 1-3.696 7.405l-.431-.248c-.171.297-.344.592-.519.886l.429.255a71.21 71.21 0 0 1-4.631 6.856l-.396-.303c-.208.272-.418.543-.63.812l.392.309a71.67 71.67 0 0 1-5.483 6.196l-.353-.35a62.12 62.12 0 0 1-.729.723l.349.357a71.99 71.99 0 0 1-6.237 5.436l-.305-.393c-.271.21-.543.418-.817.624l.299.398a71.663 71.663 0 0 1-6.887 4.585l-.251-.43c-.295.173-.592.343-.89.512l.245.434a71.378 71.378 0 0 1-7.425 3.654l-.193-.46c-.315.133-.632.263-.949.392l.187.463a71.064 71.064 0 0 1-7.837 2.652l-.13-.481a91.6 91.6 0 0 1-.996.265l.125.484a71.11 71.11 0 0 1-8.115 1.604l-.068-.495c-.338.047-.677.091-1.017.133l.06.495a71.92 71.92 0 0 1-8.258.534l-.003-.498a88.857 88.857 0 0 1-1.033 0l-.003.498a71.73 71.73 0 0 1-8.26-.534l.062-.495a68.26 68.26 0 0 1-1.018-.133l-.069.495a71.09 71.09 0 0 1-8.114-1.604l.126-.484a81.665 81.665 0 0 1-.995-.265l-.133.48a71.044 71.044 0 0 1-7.836-2.651l.188-.463a77.345 77.345 0 0 1-.949-.392l-.195.461a71.33 71.33 0 0 1-7.424-3.654l.246-.435a73.094 73.094 0 0 1-.89-.512l-.253.43a71.604 71.604 0 0 1-6.886-4.586l.3-.397a68.727 68.727 0 0 1-.816-.624l-.307.393a71.808 71.808 0 0 1-6.236-5.437l.35-.356c-.246-.239-.49-.48-.73-.723l-.355.35a71.73 71.73 0 0 1-5.482-6.196l.392-.309c-.211-.269-.422-.54-.63-.812l-.396.303a71.292 71.292 0 0 1-4.632-6.856l.43-.255a68.286 68.286 0 0 1-.518-.886l-.432.248a70.685 70.685 0 0 1-3.696-7.405l.46-.196a65.16 65.16 0 0 1-.397-.946l-.462.189a70.152 70.152 0 0 1-2.685-7.826l.482-.133c-.092-.33-.182-.661-.269-.993l-.483.126a70.131 70.131 0 0 1-1.624-8.111l.495-.068a69.052 69.052 0 0 1-.134-1.018l-.496.06a70.96 70.96 0 0 1-.54-8.257l.499-.002a71.854 71.854 0 0 1 0-1.034l-.5-.003c.021-2.794.205-5.55.542-8.258l.495.062c.042-.34.087-.68.134-1.018l-.495-.069a70.113 70.113 0 0 1 1.579-7.941l.045-.17.483.127c.087-.332.177-.663.269-.993l-.482-.134a70.116 70.116 0 0 1 2.399-7.12l.286-.706.462.19c.13-.316.262-.632.396-.946l-.459-.197a70.637 70.637 0 0 1 3.696-7.405l.432.25c.17-.297.343-.593.518-.887l-.43-.256a71.285 71.285 0 0 1 4.632-6.856l.396.304c.208-.272.419-.543.63-.813l-.392-.309a71.779 71.779 0 0 1 5.482-6.196l.355.351a71.1 71.1 0 0 1 .73-.723l-.35-.357a71.932 71.932 0 0 1 6.236-5.437l.306.394c.271-.21.543-.418.817-.624l-.3-.398a71.77 71.77 0 0 1 6.886-4.586l.253.431c.295-.172.592-.343.89-.512l-.246-.436a71.352 71.352 0 0 1 7.424-3.654h.001l.194.462c.315-.133.631-.263.949-.392l-.188-.464a71.025 71.025 0 0 1 7.836-2.651l.133.481c.33-.09.662-.18.994-.265l-.125-.485a71.03 71.03 0 0 1 8.114-1.604l.069.496c.338-.047.678-.09 1.018-.133l-.061-.496a71.816 71.816 0 0 1 8.259-.534l.003.499a68.106 68.106 0 0 1 1.033 0l.003-.5Z"/>
    <path fill="#84E0F7" d="M63.887 106.232c0 .28-.112.518-.294.7l-.826.826a.943.943 0 0 1-.672.28h-3.822V112H57v-9.338h5.082a.92.92 0 0 1 .672.28l.826.826c.196.196.308.42.308.7v1.764Zm-1.288-.168.014-1.428a.284.284 0 0 0-.084-.196l-.462-.462a.254.254 0 0 0-.196-.084h-3.598v2.912h3.584c.084 0 .154-.028.196-.084l.462-.462a.254.254 0 0 0 .084-.196Zm9.396-3.402-3.249 5.208V112h-1.273v-4.13l-3.263-5.208h1.428l2.478 3.962 2.478-3.962h1.4Zm6.953 1.232h-2.8V112h-1.274v-8.106h-2.8v-1.232h6.874v1.232ZM87.285 112h-1.274v-4.06h-4.34V112h-1.274v-9.338h1.274v4.046h4.326v-4.046h1.288V112Z"/>
    <path stroke="#84E0F7" d="M72 165.5a57.501 57.501 0 0 1-40.659-98.159"/>
    <path stroke="#84E0F7" stroke-dasharray="1 8" d="M215.519 37.003c2.793.02 5.548.2 8.258.534l-.059.496c.339.042.679.086 1.017.133l.067-.496c2.758.38 5.466.918 8.116 1.604l-.125.485c.332.086.664.175.995.265l.131-.482a71.054 71.054 0 0 1 7.837 2.652l-.187.464c.317.129.633.259.948.392l.194-.461a71.364 71.364 0 0 1 7.424 3.654l-.245.435c.298.169.596.34.891.512l.251-.431a71.813 71.813 0 0 1 6.887 4.585l-.299.4c.274.205.546.413.816.623l.306-.394a71.932 71.932 0 0 1 6.236 5.436l-.348.358c.244.24.488.48.729.723l.353-.351a71.704 71.704 0 0 1 5.483 6.196l-.393.31c.212.269.422.54.63.812l.397-.304a71.216 71.216 0 0 1 4.631 6.856l-.429.256c.175.294.348.59.519.886l.431-.249a70.714 70.714 0 0 1 3.696 7.405l-.459.197c.134.314.266.63.396.946l.462-.19a70.017 70.017 0 0 1 2.684 7.826l-.48.134c.092.33.181.66.269.993l.481-.127a70.1 70.1 0 0 1 1.624 8.111h.001l-.495.069c.047.338.092.678.135 1.018l.495-.061c.337 2.708.52 5.464.54 8.257l-.498.003a89.099 89.099 0 0 1 0 1.034l.498.002a70.968 70.968 0 0 1-.541 8.258l-.494-.061c-.043.34-.088.68-.135 1.018l.494.068a70.119 70.119 0 0 1-1.624 8.111l-.481-.126a80.48 80.48 0 0 1-.269.993l.48.133a70.05 70.05 0 0 1-2.684 7.826l-.462-.189c-.13.316-.262.632-.396.946l.459.196a70.774 70.774 0 0 1-3.696 7.405l-.431-.248c-.171.297-.344.592-.519.886l.429.255a71.21 71.21 0 0 1-4.631 6.856l-.397-.303c-.208.272-.418.543-.63.812l.393.309a71.67 71.67 0 0 1-5.483 6.196l-.353-.35c-.241.243-.485.484-.729.723l.348.357a71.977 71.977 0 0 1-6.236 5.436l-.306-.393c-.27.21-.542.418-.816.624l.299.398a71.663 71.663 0 0 1-6.887 4.585l-.251-.43a70.93 70.93 0 0 1-.891.512l.245.434a71.362 71.362 0 0 1-7.424 3.654l-.194-.46c-.315.133-.631.263-.948.392l.187.463a71.115 71.115 0 0 1-7.837 2.652l-.131-.481c-.331.09-.663.179-.995.265l.125.484a71.101 71.101 0 0 1-8.116 1.604l-.067-.495c-.338.047-.678.091-1.017.133l.059.495c-2.71.333-5.465.514-8.258.534l-.003-.498-.516.002-.516-.002-.004.498c-2.792-.02-5.548-.2-8.259-.534l.062-.495c-.34-.042-.68-.086-1.019-.133l-.068.495a71.067 71.067 0 0 1-8.114-1.604l.125-.484a76.061 76.061 0 0 1-.994-.265l-.133.48a71.023 71.023 0 0 1-7.836-2.651l.187-.463a78.641 78.641 0 0 1-.948-.392l-.195.461a71.362 71.362 0 0 1-7.424-3.654l.246-.435a78.844 78.844 0 0 1-.891-.512l-.252.43a71.533 71.533 0 0 1-6.886-4.586l.3-.397a70.461 70.461 0 0 1-.817-.624l-.306.393a71.684 71.684 0 0 1-6.237-5.437l.35-.356c-.245-.239-.488-.48-.73-.723l-.354.35a71.838 71.838 0 0 1-5.483-6.196l.393-.309c-.212-.269-.422-.54-.63-.812l-.396.303a71.22 71.22 0 0 1-4.632-6.856l.43-.255a60.22 60.22 0 0 1-.518-.886l-.433.248a70.766 70.766 0 0 1-3.695-7.405l.459-.196c-.134-.314-.267-.63-.397-.946l-.461.189a70.055 70.055 0 0 1-2.685-7.826l.481-.133c-.091-.33-.181-.661-.268-.993l-.483.126a70.12 70.12 0 0 1-1.625-8.111l.496-.068a56.594 56.594 0 0 1-.134-1.018l-.496.06a70.966 70.966 0 0 1-.54-8.257l.499-.002c-.002-.172-.002-.345-.002-.517 0-.172 0-.345.002-.517l-.499-.003c.02-2.794.203-5.55.541-8.258l.495.062c.042-.34.086-.68.134-1.018l-.496-.069a70.117 70.117 0 0 1 1.58-7.941l.045-.17.483.127c.087-.332.177-.663.268-.993l-.481-.134a70.307 70.307 0 0 1 2.398-7.12l.287-.706.461.19c.13-.316.263-.632.397-.946l-.459-.197a70.716 70.716 0 0 1 3.695-7.405l.433.25c.17-.297.343-.593.518-.887l-.43-.256a71.213 71.213 0 0 1 4.632-6.856l.396.304c.208-.272.418-.543.63-.813l-.393-.309a71.887 71.887 0 0 1 5.483-6.196l.354.351c.242-.243.485-.484.73-.723l-.35-.357a71.808 71.808 0 0 1 6.237-5.437l.306.394a71.6 71.6 0 0 1 .817-.624l-.3-.398a71.7 71.7 0 0 1 6.886-4.586l.252.431c.296-.172.593-.343.891-.512l-.246-.436a71.384 71.384 0 0 1 7.424-3.654h.001l.194.462c.315-.133.631-.263.948-.392l-.187-.464a71.003 71.003 0 0 1 7.836-2.651l.133.481c.33-.09.661-.18.994-.265l-.125-.485a71.003 71.003 0 0 1 8.114-1.604l.068.496a72 72 0 0 1 1.019-.133l-.062-.496a71.84 71.84 0 0 1 8.259-.534l.004.499a68.273 68.273 0 0 1 1.032 0l.003-.5Z"/>
    <path fill="#84E0F7" d="m186.662 110.39-1.316 1.316a.963.963 0 0 1-.7.294h-2.73a.963.963 0 0 1-.7-.294l-1.148-1.148a.963.963 0 0 1-.294-.7v-5.054c0-.266.098-.504.294-.7l1.148-1.148a.963.963 0 0 1 .7-.294h2.73c.266 0 .504.098.7.294l1.316 1.316-.868.868-1.162-1.162a.254.254 0 0 0-.196-.084h-2.31a.254.254 0 0 0-.196.084l-.798.798a.276.276 0 0 0-.084.196v4.718c0 .07.028.14.084.196l.798.798a.254.254 0 0 0 .196.084h2.31c.084 0 .14-.028.196-.084l1.148-1.162.882.868ZM195.2 112h-1.274v-4.06h-4.34V112h-1.274v-9.338h1.274v4.046h4.326v-4.046h1.288V112Zm10.128 0h-1.302l-.952-2.506h-4.186l-.952 2.506h-1.274l3.5-9.338h1.68l3.486 9.338Zm-2.716-3.682-1.624-4.508-1.652 4.508h3.276Zm7.945 3.682h-4.746v-1.148h1.736v-7.042h-1.736v-1.148h4.746v1.148h-1.736v7.042h1.736V112Zm8.533 0h-1.904l-3.724-7.882V112h-1.26v-9.338h1.904l3.724 7.882v-7.882h1.26V112Zm8.673 0h-6.034v-9.338h1.274v8.106h4.76V112Zm5.071 0h-4.746v-1.148h1.736v-7.042h-1.736v-1.148h4.746v1.148h-1.736v7.042h1.736V112Zm8.533 0h-1.904l-3.724-7.882V112h-1.26v-9.338h1.904l3.724 7.882v-7.882h1.26V112Zm9.344 0h-1.68l-3.752-4.06V112h-1.274v-9.338h1.274v4.06l3.794-4.06h1.638l-4.368 4.662 4.368 4.676Z"/>
    <path stroke="#84E0F7" d="M214.667 165.5a57.502 57.502 0 0 1-53.123-35.496 57.496 57.496 0 0 1 12.464-62.663"/>
    <path stroke="#84E0F7" stroke-dasharray="1 8" d="M358.186 37.003c2.792.02 5.548.2 8.258.534l-.06.496c.34.042.679.086 1.018.133l.067-.496a71.02 71.02 0 0 1 8.115 1.604l-.125.485c.333.086.665.175.995.265l.131-.482a70.983 70.983 0 0 1 7.837 2.652l-.186.464c.317.129.633.259.948.392l.193-.461a71.282 71.282 0 0 1 7.425 3.654l-.245.435c.298.169.595.34.891.512l.25-.431a71.564 71.564 0 0 1 6.887 4.585l-.299.4c.274.205.546.413.817.623l.305-.394a71.945 71.945 0 0 1 6.237 5.436l-.349.358c.245.24.488.48.73.723l.352-.351a71.884 71.884 0 0 1 5.484 6.196l-.393.31c.212.269.422.54.63.812l.396-.304a71.216 71.216 0 0 1 4.631 6.856l-.428.256c.174.294.347.59.518.886l.432-.249a70.707 70.707 0 0 1 3.695 7.405h.001l-.46.197c.134.314.267.63.397.946l.461-.19a70.021 70.021 0 0 1 2.685 7.826l-.48.134c.091.33.181.66.268.993l.482-.127a70.311 70.311 0 0 1 1.624 8.111h.001l-.496.069c.048.338.093.678.135 1.018l.495-.061c.338 2.708.52 5.464.54 8.257l-.498.003c.002.172.002.345.002.517 0 .172 0 .345-.002.517l.498.002a70.75 70.75 0 0 1-.541 8.258l-.494-.061c-.042.34-.087.68-.135 1.018l.495.068a70.33 70.33 0 0 1-1.624 8.111l-.482-.126c-.087.332-.177.663-.268.993l.48.133a70.055 70.055 0 0 1-2.685 7.826l-.461-.189c-.13.316-.263.632-.397.946l.459.196a70.766 70.766 0 0 1-3.695 7.405l-.432-.248c-.171.297-.344.592-.518.886l.428.255a71.21 71.21 0 0 1-4.631 6.856l-.396-.303c-.208.272-.418.543-.63.812l.393.309a71.85 71.85 0 0 1-5.484 6.196l-.352-.35c-.242.243-.485.484-.73.723l.349.357a71.99 71.99 0 0 1-6.237 5.436l-.305-.393c-.271.21-.543.418-.817.624l.299.398a71.415 71.415 0 0 1-6.887 4.585l-.25-.43c-.296.173-.593.343-.891.512l.245.434a71.28 71.28 0 0 1-7.425 3.654l-.193-.46c-.315.133-.631.263-.948.392l.186.463a71.044 71.044 0 0 1-7.837 2.652l-.131-.481c-.33.09-.662.179-.995.265l.125.484a71.084 71.084 0 0 1-8.115 1.604l-.067-.495c-.339.047-.678.091-1.018.133l.06.495a71.92 71.92 0 0 1-8.258.534l-.003-.498a89.099 89.099 0 0 1-1.032 0l-.004.498c-2.793-.02-5.549-.2-8.259-.534l.061-.495c-.34-.042-.679-.086-1.018-.133l-.068.495a71.127 71.127 0 0 1-8.115-1.604l.125-.484a85.566 85.566 0 0 1-.994-.265l-.133.48a71.094 71.094 0 0 1-7.836-2.651l.188-.463a78.641 78.641 0 0 1-.948-.392l-.196.461a71.248 71.248 0 0 1-7.423-3.654l.246-.435a64.458 64.458 0 0 1-.891-.512l-.253.43a71.658 71.658 0 0 1-6.886-4.586l.3-.397a62.731 62.731 0 0 1-.816-.624l-.307.393a71.818 71.818 0 0 1-6.236-5.437l.349-.356c-.244-.239-.488-.48-.729-.723l-.355.35a71.827 71.827 0 0 1-5.482-6.196l.393-.309c-.212-.269-.423-.54-.63-.812l-.397.303a71.22 71.22 0 0 1-4.632-6.856l.43-.255a70.685 70.685 0 0 1-.518-.886l-.432.248a70.571 70.571 0 0 1-3.695-7.405l.458-.196a78.57 78.57 0 0 1-.396-.946l-.462.189a70.05 70.05 0 0 1-2.684-7.826l.481-.133a80.48 80.48 0 0 1-.269-.993l-.483.126a70.33 70.33 0 0 1-1.624-8.111l.495-.068a83.143 83.143 0 0 1-.134-1.018l-.496.06a70.966 70.966 0 0 1-.54-8.257l.499-.002a89.099 89.099 0 0 1 0-1.034l-.499-.003c.02-2.794.204-5.55.541-8.258l.495.062c.043-.34.087-.68.134-1.018l-.495-.069a70.115 70.115 0 0 1 1.579-7.941l.045-.17.483.127c.088-.332.177-.663.269-.993l-.481-.134a70.06 70.06 0 0 1 2.398-7.12l.286-.706.462.19c.13-.316.262-.632.396-.946l-.458-.197a70.521 70.521 0 0 1 3.695-7.405l.432.25c.171-.297.343-.593.518-.887l-.43-.256a71.213 71.213 0 0 1 4.632-6.856l.397.304c.207-.272.418-.543.63-.813l-.393-.309a71.876 71.876 0 0 1 5.482-6.196l.355.351c.241-.243.485-.484.729-.723l-.349-.357a71.943 71.943 0 0 1 6.236-5.437l.307.394c.27-.21.542-.418.816-.624l-.3-.398a71.825 71.825 0 0 1 6.886-4.586l.253.431c.295-.172.592-.343.891-.512l-.246-.436a71.27 71.27 0 0 1 7.423-3.654h.001l.195.462c.315-.133.631-.263.948-.392l-.188-.464a71.074 71.074 0 0 1 7.836-2.651l.133.481c.331-.09.662-.18.994-.265l-.125-.485a71.063 71.063 0 0 1 8.115-1.604l.068.496c.339-.047.678-.09 1.018-.133l-.061-.496a71.81 71.81 0 0 1 8.259-.534l.004.499a67.805 67.805 0 0 1 1.032 0l.003-.5Z"/>
    <path fill="#84E0F7" d="m337.829 110.39-1.316 1.316a.963.963 0 0 1-.7.294h-2.73a.963.963 0 0 1-.7-.294l-1.148-1.148a.963.963 0 0 1-.294-.7v-5.054c0-.266.098-.504.294-.7l1.148-1.148a.963.963 0 0 1 .7-.294h2.73c.266 0 .504.098.7.294l1.316 1.316-.868.868-1.162-1.162a.254.254 0 0 0-.196-.084h-2.31a.254.254 0 0 0-.196.084l-.798.798a.276.276 0 0 0-.084.196v4.718c0 .07.028.14.084.196l.798.798a.254.254 0 0 0 .196.084h2.31c.084 0 .14-.028.196-.084l1.148-1.162.882.868Zm8.341-.532c0 .266-.112.504-.294.7l-1.148 1.148a.987.987 0 0 1-.7.294h-2.604a.963.963 0 0 1-.7-.294l-1.148-1.148a.963.963 0 0 1-.294-.7v-7.196h1.274v7.028c0 .07.028.14.084.196l.798.798a.254.254 0 0 0 .196.084h2.17c.084 0 .154-.028.196-.084l.798-.798a.276.276 0 0 0 .084-.196v-7.028h1.288v7.196Zm9.592 0c0 .266-.112.504-.294.7l-1.148 1.148a.987.987 0 0 1-.7.294h-3.584a.963.963 0 0 1-.7-.294l-1.316-1.316.868-.868 1.162 1.162a.254.254 0 0 0 .196.084h3.15c.084 0 .154-.028.196-.084l.798-.798c.056-.056.098-.126.098-.196v-1.148c0-.154-.14-.266-.266-.28l-5.278-.686c-.518-.07-.924-.518-.924-1.036v-1.736c0-.266.098-.504.294-.7l1.148-1.148a.963.963 0 0 1 .7-.294h3.57c.266 0 .518.098.7.294l1.33 1.316-.868.868-1.162-1.162a.276.276 0 0 0-.196-.084h-3.164a.254.254 0 0 0-.196.084l-.798.798a.276.276 0 0 0-.084.196v1.148c0 .14.112.266.252.28l5.292.686c.518.07.924.518.924 1.036v1.736Zm7.743-5.964h-2.8V112h-1.274v-8.106h-2.8v-1.232h6.874v1.232Zm8.799 5.964c0 .266-.112.504-.294.7l-1.148 1.148a.987.987 0 0 1-.7.294h-3.458a.963.963 0 0 1-.7-.294l-1.148-1.148a.963.963 0 0 1-.294-.7v-5.054c0-.266.098-.504.294-.7l1.148-1.148a.963.963 0 0 1 .7-.294h3.444c.266 0 .518.098.7.294l1.148 1.148a.978.978 0 0 1 .308.7v5.054Zm-1.288-.168.014-4.718c0-.07-.042-.14-.084-.196l-.798-.798a.276.276 0 0 0-.196-.084h-3.038a.254.254 0 0 0-.196.084l-.798.798a.276.276 0 0 0-.084.196v4.718c0 .07.028.14.084.196l.798.798a.254.254 0 0 0 .196.084h3.024c.084 0 .154-.028.196-.084l.798-.798a.276.276 0 0 0 .084-.196Zm12.605 2.31h-1.246v-8.148L379.729 112h-1.288l-2.632-8.148V112h-1.26v-9.338h2.086l2.45 7.588 2.45-7.588h2.086V112Z"/>
    <path stroke="#84E0F7" d="M357.333 165.5a57.501 57.501 0 0 1-56.395-68.718 57.5 57.5 0 0 1 15.737-29.44"/>
    <path fill="#84E0F7" d="M422 171h-8v8h8z"/>
    <path stroke="#84E0F7" d="M428.5 171.5h-7v7h7z"/>
  </g>
  <path stroke="#84E0F7" d="M.5 36.5h429v143H.5zm215 142.5v52"/>
  <path fill="#828282" d="M148.993 249h-1.32l-2.28-3.288a.268.268 0 0 0-.204-.108h-1.584V249h-1.092v-8.004h4.356c.228 0 .42.084.576.24l.708.708c.168.168.264.36.264.6v1.512c0 .24-.096.444-.252.6l-.708.708a.808.808 0 0 1-.576.24h-.3l2.412 3.396Zm-1.68-5.088.012-1.224a.243.243 0 0 0-.072-.168l-.396-.396a.218.218 0 0 0-.168-.072h-3.084v2.496h3.072c.072 0 .132-.024.168-.072l.396-.396a.218.218 0 0 0 .072-.168Zm9.68 5.088h-1.116l-.816-2.148h-3.588l-.816 2.148h-1.092l3-8.004h1.44l2.988 8.004Zm-2.328-3.156-1.392-3.864-1.416 3.864h2.808Zm11.958-4.848L164.907 249h-1.5l-1.404-6.864-1.404 6.864h-1.488l-1.704-8.004h1.116l1.368 6.9 1.38-6.9h1.548l1.356 6.9 1.392-6.9h1.056Zm10.367 3.06c0 .24-.096.444-.252.6l-.708.708a.808.808 0 0 1-.576.24h-3.276V249h-1.092v-8.004h4.356c.228 0 .42.084.576.24l.708.708c.168.168.264.36.264.6v1.512Zm-1.104-.144.012-1.224a.243.243 0 0 0-.072-.168l-.396-.396a.218.218 0 0 0-.168-.072h-3.084v2.496h3.072c.072 0 .132-.024.168-.072l.396-.396a.218.218 0 0 0 .072-.168Zm9.037 5.088h-1.32l-2.28-3.288a.268.268 0 0 0-.204-.108h-1.584V249h-1.092v-8.004h4.356c.228 0 .42.084.576.24l.708.708c.168.168.264.36.264.6v1.512c0 .24-.096.444-.252.6l-.708.708a.808.808 0 0 1-.576.24h-.3l2.412 3.396Zm-1.68-5.088.012-1.224a.243.243 0 0 0-.072-.168l-.396-.396a.218.218 0 0 0-.168-.072h-3.084v2.496h3.072c.072 0 .132-.024.168-.072l.396-.396a.218.218 0 0 0 .072-.168Zm6.488 5.088h-4.068v-.984h1.488v-6.036h-1.488v-.984h4.068v.984h-1.488v6.036h1.488V249Zm6.978-1.38-1.128 1.128a.826.826 0 0 1-.6.252h-2.34a.826.826 0 0 1-.6-.252l-.984-.984a.826.826 0 0 1-.252-.6v-4.332c0-.228.084-.432.252-.6l.984-.984a.826.826 0 0 1 .6-.252h2.34c.228 0 .432.084.6.252l1.128 1.128-.744.744-.996-.996a.218.218 0 0 0-.168-.072h-1.98a.218.218 0 0 0-.168.072l-.684.684a.237.237 0 0 0-.072.168v4.044c0 .06.024.12.072.168l.684.684a.218.218 0 0 0 .168.072h1.98c.072 0 .12-.024.168-.072l.984-.996.756.744Zm6.586 1.38h-5.172v-8.004h5.172v1.056h-4.08v2.412h4.08v1.056h-4.08v2.424h4.08V249Zm9.28 0h-4.092v-.936h1.548v-6.036l-1.02.912-.648-.636 1.464-1.308h1.212v7.068h1.536V249Zm1.421-2.688v-1.056h5.04v1.056h-5.04Zm11.112 1.284a.75.75 0 0 1-.228.576l-.564.564a.844.844 0 0 1-.612.264h-2.292a.844.844 0 0 1-.612-.264l-.828-.828.66-.648.732.732a.244.244 0 0 0 .18.072h2.028a.244.244 0 0 0 .18-.072l.276-.276a.225.225 0 0 0 .06-.168v-2.076a.175.175 0 0 0-.06-.144l-.276-.276a.244.244 0 0 0-.18-.072h-3.228v-3.984h4.428v.936h-3.408v2.112h2.34c.24 0 .444.096.612.264l.564.564a.7.7 0 0 1 .228.552v2.172Zm8.057-.432a.876.876 0 0 1-.252.6l-.984.984a.846.846 0 0 1-.6.252h-3.072a.826.826 0 0 1-.6-.252l-1.128-1.128.744-.744.996.996a.218.218 0 0 0 .168.072h2.7c.072 0 .132-.024.168-.072l.684-.684c.048-.048.084-.108.084-.168v-.984c0-.132-.12-.228-.228-.24l-4.524-.588a.914.914 0 0 1-.792-.888v-1.488c0-.228.084-.432.252-.6l.984-.984a.826.826 0 0 1 .6-.252h3.06c.228 0 .444.084.6.252l1.14 1.128-.744.744-.996-.996a.237.237 0 0 0-.168-.072h-2.712a.218.218 0 0 0-.168.072l-.684.684a.237.237 0 0 0-.072.168v.984c0 .12.096.228.216.24l4.536.588c.444.06.792.444.792.888v1.488Zm10.533 0a.876.876 0 0 1-.252.6l-.984.984a.846.846 0 0 1-.6.252h-2.232a.826.826 0 0 1-.6-.252l-.984-.984a.826.826 0 0 1-.252-.6v-6.168h1.092v6.024c0 .06.024.12.072.168l.684.684a.218.218 0 0 0 .168.072h1.86c.072 0 .132-.024.168-.072l.684-.684a.237.237 0 0 0 .072-.168v-6.024h1.104v6.168Zm7.994-3.108c0 .24-.096.444-.252.6l-.708.708a.808.808 0 0 1-.576.24h-3.276V249h-1.092v-8.004h4.356c.228 0 .42.084.576.24l.708.708c.168.168.264.36.264.6v1.512Zm-1.104-.144.012-1.224a.243.243 0 0 0-.072-.168l-.396-.396a.218.218 0 0 0-.168-.072h-3.084v2.496h3.072c.072 0 .132-.024.168-.072l.396-.396a.218.218 0 0 0 .072-.168Zm8.461 3.252a.876.876 0 0 1-.252.6l-.984.984a.846.846 0 0 1-.6.252h-4.068v-8.004h4.056c.228 0 .444.084.6.252l.984.984a.838.838 0 0 1 .264.6v4.332Zm-1.104-.144.012-4.044c0-.06-.036-.12-.072-.168l-.684-.684a.237.237 0 0 0-.168-.072h-2.796v5.892h2.784c.072 0 .132-.024.168-.072l.684-.684a.237.237 0 0 0 .072-.168Zm9.446 1.98h-1.116l-.816-2.148h-3.588l-.816 2.148h-1.092l3-8.004h1.44l2.988 8.004Zm-2.328-3.156-1.392-3.864-1.416 3.864h2.808Zm8.465-3.792h-2.4V249h-1.092v-6.948h-2.4v-1.056h5.892v1.056Zm6.415 6.948h-5.172v-8.004h5.172v1.056h-4.08v2.412h4.08v1.056h-4.08v2.424h4.08V249Zm8.047-1.836a.876.876 0 0 1-.252.6l-.984.984a.846.846 0 0 1-.6.252h-3.072a.826.826 0 0 1-.6-.252l-1.128-1.128.744-.744.996.996a.218.218 0 0 0 .168.072h2.7c.072 0 .132-.024.168-.072l.684-.684c.048-.048.084-.108.084-.168v-.984c0-.132-.12-.228-.228-.24l-4.524-.588a.914.914 0 0 1-.792-.888v-1.488c0-.228.084-.432.252-.6l.984-.984a.826.826 0 0 1 .6-.252h3.06c.228 0 .444.084.6.252l1.14 1.128-.744.744-.996-.996a.237.237 0 0 0-.168-.072h-2.712a.218.218 0 0 0-.168.072l-.684.684a.237.237 0 0 0-.072.168v.984c0 .12.096.228.216.24l4.536.588c.444.06.792.444.792.888v1.488Z"/>
  <path stroke="#84E0F7" d="M215.5 261v52"/>
  <path fill="#84E0F7" d="M1 313h214.5v25H1z"/>
  <path fill="#1D1D1F" d="M61 323.732c0 .28-.112.518-.294.7l-.827.826a.943.943 0 0 1-.671.28h-3.822v3.962H54.11v-9.338h5.083a.92.92 0 0 1 .671.28l.826.826a.95.95 0 0 1 .308.7v1.764Zm-1.288-.168.013-1.428a.284.284 0 0 0-.084-.196l-.462-.462a.254.254 0 0 0-.196-.084h-3.597v2.912h3.583c.084 0 .154-.028.197-.084l.462-.462a.254.254 0 0 0 .084-.196Zm10.543 5.936h-1.54l-2.66-3.836a.313.313 0 0 0-.238-.126h-1.848v3.962h-1.274v-9.338h5.082a.92.92 0 0 1 .672.28l.826.826c.196.196.308.42.308.7v1.764c0 .28-.112.518-.294.7l-.826.826a.943.943 0 0 1-.672.28h-.35l2.814 3.962Zm-1.96-5.936.014-1.428a.284.284 0 0 0-.084-.196l-.462-.462a.254.254 0 0 0-.196-.084h-3.598v2.912h3.584c.084 0 .154-.028.196-.084l.462-.462a.254.254 0 0 0 .084-.196Zm7.57 5.936h-4.747v-1.148h1.736v-7.042h-1.736v-1.148h4.746v1.148h-1.736v7.042h1.736v1.148Zm8.14-1.61-1.315 1.316a.963.963 0 0 1-.7.294h-2.73a.963.963 0 0 1-.7-.294l-1.148-1.148a.963.963 0 0 1-.294-.7v-5.054c0-.266.098-.504.294-.7l1.148-1.148a.963.963 0 0 1 .7-.294h2.73c.266 0 .504.098.7.294l1.316 1.316-.868.868-1.162-1.162a.254.254 0 0 0-.196-.084h-2.31a.254.254 0 0 0-.196.084l-.798.798a.276.276 0 0 0-.084.196v4.718c0 .07.028.14.084.196l.798.798a.254.254 0 0 0 .196.084h2.31c.084 0 .14-.028.196-.084l1.148-1.162.882.868Zm7.684 1.61h-6.034v-9.338h6.034v1.232h-4.76v2.814h4.76v1.232h-4.76v2.828h4.76v1.232Zm12.675-5.768c0 .28-.112.518-.294.7l-.826.826a.943.943 0 0 1-.672.28H98.75v3.962h-1.274v-9.338h5.082a.92.92 0 0 1 .672.28l.826.826c.196.196.308.42.308.7v1.764Zm-1.288-.168.014-1.428a.284.284 0 0 0-.084-.196l-.462-.462a.254.254 0 0 0-.196-.084H98.75v2.912h3.584c.084 0 .154-.028.196-.084l.462-.462a.254.254 0 0 0 .084-.196Zm10.543 5.936h-1.54l-2.66-3.836a.313.313 0 0 0-.238-.126h-1.848v3.962h-1.274v-9.338h5.082a.92.92 0 0 1 .672.28l.826.826c.196.196.308.42.308.7v1.764c0 .28-.112.518-.294.7l-.826.826a.943.943 0 0 1-.672.28h-.35l2.814 3.962Zm-1.96-5.936.014-1.428a.284.284 0 0 0-.084-.196l-.462-.462a.254.254 0 0 0-.196-.084h-3.598v2.912h3.584c.084 0 .154-.028.196-.084l.462-.462a.254.254 0 0 0 .084-.196Zm11.154 3.794c0 .266-.112.504-.294.7l-1.148 1.148a.987.987 0 0 1-.7.294h-3.458a.963.963 0 0 1-.7-.294l-1.148-1.148a.963.963 0 0 1-.294-.7v-5.054c0-.266.098-.504.294-.7l1.148-1.148a.963.963 0 0 1 .7-.294h3.444c.266 0 .518.098.7.294l1.148 1.148a.978.978 0 0 1 .308.7v5.054Zm-1.288-.168.014-4.718c0-.07-.042-.14-.084-.196l-.798-.798a.276.276 0 0 0-.196-.084h-3.038a.254.254 0 0 0-.196.084l-.798.798a.276.276 0 0 0-.084.196v4.718c0 .07.028.14.084.196l.798.798a.254.254 0 0 0 .196.084h3.024c.084 0 .154-.028.196-.084l.798-.798a.276.276 0 0 0 .084-.196Zm10.029-7.028-3.094 9.338h-1.694l-3.08-9.338h1.302l2.646 8.162 2.646-8.162h1.274Zm5.019 9.338h-4.746v-1.148h1.736v-7.042h-1.736v-1.148h4.746v1.148h-1.736v7.042h1.736v1.148Zm8.533-2.142c0 .266-.112.504-.294.7l-1.148 1.148a.987.987 0 0 1-.7.294h-4.746v-9.338h4.732c.266 0 .518.098.7.294l1.148 1.148a.978.978 0 0 1 .308.7v5.054Zm-1.288-.168.014-4.718c0-.07-.042-.14-.084-.196l-.798-.798a.276.276 0 0 0-.196-.084h-3.262v6.874h3.248c.084 0 .154-.028.196-.084l.798-.798a.276.276 0 0 0 .084-.196Zm9.564 2.31h-6.034v-9.338h6.034v1.232h-4.76v2.814h4.76v1.232h-4.76v2.828h4.76v1.232Zm9.795 0h-1.54l-2.66-3.836a.313.313 0 0 0-.238-.126h-1.848v3.962h-1.274v-9.338h5.082a.92.92 0 0 1 .672.28l.826.826c.196.196.308.42.308.7v1.764c0 .28-.112.518-.294.7l-.826.826a.943.943 0 0 1-.672.28h-.35l2.814 3.962Zm-1.96-5.936.014-1.428a.284.284 0 0 0-.084-.196l-.462-.462a.254.254 0 0 0-.196-.084h-3.598v2.912h3.584c.084 0 .154-.028.196-.084l.462-.462a.254.254 0 0 0 .084-.196Z"/>
  <path stroke="#84E0F7" d="M215 313.5h213.5v24H215z"/>
  <path fill="#84E0F7" d="M244.001 327.358c0 .266-.112.504-.294.7l-1.148 1.148a.987.987 0 0 1-.7.294h-3.584a.963.963 0 0 1-.7-.294l-1.316-1.316.868-.868 1.162 1.162a.254.254 0 0 0 .196.084h3.15c.084 0 .154-.028.196-.084l.798-.798c.056-.056.098-.126.098-.196v-1.148c0-.154-.14-.266-.266-.28l-5.278-.686c-.518-.07-.924-.518-.924-1.036v-1.736c0-.266.098-.504.294-.7l1.148-1.148a.963.963 0 0 1 .7-.294h3.57c.266 0 .518.098.7.294l1.33 1.316-.868.868-1.162-1.162a.276.276 0 0 0-.196-.084h-3.164a.254.254 0 0 0-.196.084l-.798.798a.276.276 0 0 0-.084.196v1.148c0 .14.112.266.252.28l5.292.686c.518.07.924.518.924 1.036v1.736Zm8.932-3.626c0 .28-.112.518-.294.7l-.826.826a.943.943 0 0 1-.672.28h-3.822v3.962h-1.274v-9.338h5.082a.92.92 0 0 1 .672.28l.826.826c.196.196.308.42.308.7v1.764Zm-1.288-.168.014-1.428a.284.284 0 0 0-.084-.196l-.462-.462a.254.254 0 0 0-.196-.084h-3.598v2.912h3.584c.084 0 .154-.028.196-.084l.462-.462a.254.254 0 0 0 .084-.196Zm10.544 5.936h-1.54l-2.66-3.836a.313.313 0 0 0-.238-.126h-1.848v3.962h-1.274v-9.338h5.082a.92.92 0 0 1 .672.28l.826.826c.196.196.308.42.308.7v1.764c0 .28-.112.518-.294.7l-.826.826a.943.943 0 0 1-.672.28h-.35l2.814 3.962Zm-1.96-5.936.014-1.428a.284.284 0 0 0-.084-.196l-.462-.462a.254.254 0 0 0-.196-.084h-3.598v2.912h3.584c.084 0 .154-.028.196-.084l.462-.462a.254.254 0 0 0 .084-.196Zm9.837 5.936h-6.034v-9.338h6.034v1.232h-4.76v2.814h4.76v1.232h-4.76v2.828h4.76v1.232Zm9.725 0h-1.302l-.952-2.506h-4.186l-.952 2.506h-1.274l3.5-9.338h1.68l3.486 9.338Zm-2.716-3.682-1.624-4.508-1.652 4.508h3.276Zm11.066 1.54c0 .266-.112.504-.294.7l-1.148 1.148a.987.987 0 0 1-.7.294h-4.746v-9.338h4.732c.266 0 .518.098.7.294l1.148 1.148a.978.978 0 0 1 .308.7v5.054Zm-1.288-.168.014-4.718c0-.07-.042-.14-.084-.196l-.798-.798a.276.276 0 0 0-.196-.084h-3.262v6.874h3.248c.084 0 .154-.028.196-.084l.798-.798a.276.276 0 0 0 .084-.196Zm13.004-.49h-2.8v2.8h-1.064v-2.8h-2.828v-1.064h2.814v-2.8h1.064v2.8h2.814v1.064Zm12.784.658c0 .266-.112.504-.294.7l-1.148 1.148a.987.987 0 0 1-.7.294h-.336l.658 1.54-.98.406-.826-1.946h-1.974a.963.963 0 0 1-.7-.294l-1.148-1.148a.963.963 0 0 1-.294-.7v-5.054c0-.266.098-.504.294-.7l1.148-1.148a.963.963 0 0 1 .7-.294h3.444c.266 0 .518.098.7.294l1.148 1.148a.978.978 0 0 1 .308.7v5.054Zm-1.288-.168.014-4.718c0-.07-.042-.14-.084-.196l-.798-.798a.276.276 0 0 0-.196-.084h-3.038a.254.254 0 0 0-.196.084l-.798.798a.276.276 0 0 0-.084.196v4.718c0 .07.028.14.084.196l.798.798a.254.254 0 0 0 .196.084h1.232l-.336-.798.98-.448.518 1.246h.63c.084 0 .154-.028.196-.084l.798-.798a.276.276 0 0 0 .084-.196Zm10.225.168c0 .266-.112.504-.294.7l-1.148 1.148a.987.987 0 0 1-.7.294h-2.604a.963.963 0 0 1-.7-.294l-1.148-1.148a.963.963 0 0 1-.294-.7v-7.196h1.274v7.028c0 .07.028.14.084.196l.798.798a.254.254 0 0 0 .196.084h2.17c.084 0 .154-.028.196-.084l.798-.798a.276.276 0 0 0 .084-.196v-7.028h1.288v7.196Zm9.788 0c0 .266-.112.504-.294.7l-1.148 1.148a.987.987 0 0 1-.7.294h-3.458a.963.963 0 0 1-.7-.294l-1.148-1.148a.963.963 0 0 1-.294-.7v-5.054c0-.266.098-.504.294-.7l1.148-1.148a.963.963 0 0 1 .7-.294h3.444c.266 0 .518.098.7.294l1.148 1.148a.978.978 0 0 1 .308.7v5.054Zm-1.288-.168.014-4.718c0-.07-.042-.14-.084-.196l-.798-.798a.276.276 0 0 0-.196-.084h-3.038a.254.254 0 0 0-.196.084l-.798.798a.276.276 0 0 0-.084.196v4.718c0 .07.028.14.084.196l.798.798a.254.254 0 0 0 .196.084H329c.084 0 .154-.028.196-.084l.798-.798a.276.276 0 0 0 .084-.196Zm9.231-5.796h-2.8v8.106h-1.274v-8.106h-2.8v-1.232h6.874v1.232Zm5.216 8.106h-4.746v-1.148h1.736v-7.042h-1.736v-1.148h4.746v1.148h-1.736v7.042h1.736v1.148Zm8.533 0h-1.904l-3.724-7.882v7.882h-1.26v-9.338h1.904l3.724 7.882v-7.882h1.26v9.338Zm10.367 0h-1.218l-.266-1.33-1.036 1.036a.933.933 0 0 1-.686.294h-2.772a.963.963 0 0 1-.7-.294l-1.148-1.148a.963.963 0 0 1-.294-.7v-5.054c0-.266.098-.504.294-.7l1.148-1.148a.963.963 0 0 1 .7-.294h3.458c.266 0 .49.098.686.294l1.316 1.316-.868.868-1.162-1.162a.254.254 0 0 0-.196-.084h-3.024a.254.254 0 0 0-.196.084l-.798.798a.276.276 0 0 0-.084.196v4.718c0 .07.028.14.084.196l.798.798a.254.254 0 0 0 .196.084h2.38c.084 0 .154-.028.196-.084l1.47-1.456a.254.254 0 0 0 .084-.196v-1.092h-2.548v-1.232h3.822v3.472l.364 1.82Zm11.63 0h-6.034v-9.338h1.274v8.106h4.76v1.232Zm8.655-2.142c0 .266-.112.504-.294.7l-1.148 1.148a.987.987 0 0 1-.7.294h-3.458a.963.963 0 0 1-.7-.294l-1.148-1.148a.963.963 0 0 1-.294-.7v-5.054c0-.266.098-.504.294-.7l1.148-1.148a.963.963 0 0 1 .7-.294h3.444c.266 0 .518.098.7.294l1.148 1.148a.978.978 0 0 1 .308.7v5.054Zm-1.288-.168.014-4.718c0-.07-.042-.14-.084-.196l-.798-.798a.276.276 0 0 0-.196-.084h-3.038a.254.254 0 0 0-.196.084l-.798.798a.276.276 0 0 0-.084.196v4.718c0 .07.028.14.084.196l.798.798a.254.254 0 0 0 .196.084h3.024c.084 0 .154-.028.196-.084l.798-.798a.276.276 0 0 0 .084-.196Zm11.261 2.31h-1.218l-.266-1.33-1.036 1.036a.933.933 0 0 1-.686.294h-2.772a.963.963 0 0 1-.7-.294l-1.148-1.148a.963.963 0 0 1-.294-.7v-5.054c0-.266.098-.504.294-.7l1.148-1.148a.963.963 0 0 1 .7-.294h3.458c.266 0 .49.098.686.294l1.316 1.316-.868.868-1.162-1.162a.254.254 0 0 0-.196-.084h-3.024a.254.254 0 0 0-.196.084l-.798.798a.276.276 0 0 0-.084.196v4.718c0 .07.028.14.084.196l.798.798a.254.254 0 0 0 .196.084h2.38c.084 0 .154-.028.196-.084l1.47-1.456a.254.254 0 0 0 .084-.196v-1.092h-2.548v-1.232h3.822v3.472l.364 1.82Zm5.811 0h-4.746v-1.148h1.736v-7.042h-1.736v-1.148h4.746v1.148h-1.736v7.042h1.736v1.148Zm8.141-1.61-1.316 1.316a.963.963 0 0 1-.7.294h-2.73a.963.963 0 0 1-.7-.294l-1.148-1.148a.963.963 0 0 1-.294-.7v-5.054c0-.266.098-.504.294-.7l1.148-1.148a.963.963 0 0 1 .7-.294h2.73c.266 0 .504.098.7.294l1.316 1.316-.868.868-1.162-1.162a.254.254 0 0 0-.196-.084h-2.31a.254.254 0 0 0-.196.084l-.798.798a.276.276 0 0 0-.084.196v4.718c0 .07.028.14.084.196l.798.798a.254.254 0 0 0 .196.084h2.31c.084 0 .14-.028.196-.084l1.148-1.162.882.868Z"/>
  <path stroke="#84E0F7" stroke-dasharray="2 2" d="M1.5 350v186"/>
  <path stroke="#84E0F7" d="M13 350.5H1m12 185H1"/>
  <path fill="#84E0F7" d="m75.786 391.39-1.316 1.316a.963.963 0 0 1-.7.294h-2.73a.963.963 0 0 1-.7-.294l-1.148-1.148a.963.963 0 0 1-.294-.7v-5.054c0-.266.098-.504.294-.7l1.148-1.148a.963.963 0 0 1 .7-.294h2.73c.266 0 .504.098.7.294l1.316 1.316-.868.868-1.162-1.162a.254.254 0 0 0-.196-.084h-2.31a.254.254 0 0 0-.196.084l-.798.798a.276.276 0 0 0-.084.196v4.718c0 .07.028.14.084.196l.798.798a.254.254 0 0 0 .196.084h2.31c.084 0 .14-.028.196-.084l1.148-1.162.882.868Zm9-.532c0 .266-.112.504-.294.7l-1.148 1.148a.987.987 0 0 1-.7.294h-3.458a.963.963 0 0 1-.7-.294l-1.148-1.148a.963.963 0 0 1-.294-.7v-5.054c0-.266.098-.504.294-.7l1.148-1.148a.963.963 0 0 1 .7-.294h3.444c.266 0 .518.098.7.294l1.148 1.148a.978.978 0 0 1 .308.7v5.054Zm-1.288-.168.014-4.718c0-.07-.042-.14-.084-.196l-.798-.798a.276.276 0 0 0-.196-.084h-3.038a.254.254 0 0 0-.196.084l-.798.798a.276.276 0 0 0-.084.196v4.718c0 .07.028.14.084.196l.798.798a.254.254 0 0 0 .196.084h3.024c.084 0 .154-.028.196-.084l.798-.798a.276.276 0 0 0 .084-.196Zm10.42 2.31h-1.903l-3.724-7.882V393h-1.26v-9.338h1.904l3.724 7.882v-7.882h1.26V393Zm8.687-4.06h-4.774V393h-1.274v-9.338h6.048v1.232h-4.774v2.814h4.774v1.232Zm5.618 4.06h-4.746v-1.148h1.736v-7.042h-1.736v-1.148h4.746v1.148h-1.736v7.042h1.736V393Zm8.533-2.142c0 .266-.112.504-.294.7l-1.148 1.148a.987.987 0 0 1-.7.294h-4.746v-9.338h4.732c.266 0 .518.098.7.294l1.148 1.148a.978.978 0 0 1 .308.7v5.054Zm-1.288-.168.014-4.718c0-.07-.042-.14-.084-.196l-.798-.798a.276.276 0 0 0-.196-.084h-3.262v6.874h3.248c.084 0 .154-.028.196-.084l.798-.798a.276.276 0 0 0 .084-.196Zm9.564 2.31h-6.034v-9.338h6.034v1.232h-4.76v2.814h4.76v1.232h-4.76v2.828h4.76V393Zm9.123 0h-1.904l-3.724-7.882V393h-1.26v-9.338h1.904l3.724 7.882v-7.882h1.26V393Zm9.135-1.61-1.316 1.316a.963.963 0 0 1-.7.294h-2.73a.963.963 0 0 1-.7-.294l-1.148-1.148a.963.963 0 0 1-.294-.7v-5.054c0-.266.098-.504.294-.7l1.148-1.148a.963.963 0 0 1 .7-.294h2.73c.266 0 .504.098.7.294l1.316 1.316-.868.868-1.162-1.162a.254.254 0 0 0-.196-.084h-2.31a.254.254 0 0 0-.196.084l-.798.798a.276.276 0 0 0-.084.196v4.718c0 .07.028.14.084.196l.798.798a.254.254 0 0 0 .196.084h2.31c.084 0 .14-.028.196-.084l1.148-1.162.882.868Zm7.683 1.61h-6.034v-9.338h6.034v1.232h-4.76v2.814h4.76v1.232h-4.76v2.828h4.76V393Zm-54.53 12.39-1.316 1.316a.963.963 0 0 1-.7.294h-2.73a.963.963 0 0 1-.7-.294l-1.148-1.148a.963.963 0 0 1-.294-.7v-5.054c0-.266.098-.504.294-.7l1.148-1.148a.963.963 0 0 1 .7-.294h2.73c.266 0 .504.098.7.294l1.316 1.316-.868.868-1.162-1.162a.254.254 0 0 0-.196-.084h-2.31a.254.254 0 0 0-.196.084l-.798.798a.276.276 0 0 0-.084.196v4.718c0 .07.028.14.084.196l.798.798a.254.254 0 0 0 .196.084h2.31c.084 0 .14-.028.196-.084l1.148-1.162.882.868Zm8.538 1.61h-1.274v-4.06h-4.34V407h-1.275v-9.338h1.275v4.046h4.326v-4.046h1.288V407Zm8.672 0h-6.034v-9.338h6.034v1.232h-4.76v2.814h4.76v1.232h-4.76v2.828h4.76V407Zm8.731-1.61-1.316 1.316a.963.963 0 0 1-.7.294h-2.73a.963.963 0 0 1-.7-.294l-1.148-1.148a.963.963 0 0 1-.294-.7v-5.054c0-.266.098-.504.294-.7l1.148-1.148a.963.963 0 0 1 .7-.294h2.73c.266 0 .504.098.7.294l1.316 1.316-.868.868-1.162-1.162a.254.254 0 0 0-.196-.084h-2.31a.254.254 0 0 0-.196.084l-.798.798a.276.276 0 0 0-.084.196v4.718c0 .07.028.14.084.196l.798.798a.254.254 0 0 0 .196.084h2.31c.084 0 .14-.028.196-.084l1.148-1.162.882.868Zm8.356 1.61h-1.68l-3.752-4.06V407h-1.274v-9.338h1.274v4.06l3.794-4.06h1.638l-4.368 4.662L130.74 407Zm-53.848 72.94H72.12V484h-1.275v-9.338h6.049v1.232h-4.775v2.814h4.775v1.232Zm9.412 4.06h-1.54l-2.66-3.836a.313.313 0 0 0-.238-.126h-1.848V484h-1.274v-9.338h5.082a.92.92 0 0 1 .672.28l.826.826c.196.196.308.42.308.7v1.764c0 .28-.112.518-.294.7l-.826.826a.943.943 0 0 1-.672.28h-.35L86.304 484Zm-1.96-5.936.014-1.428a.284.284 0 0 0-.084-.196l-.462-.462a.254.254 0 0 0-.196-.084h-3.598v2.912h3.584c.084 0 .154-.028.196-.084l.462-.462a.254.254 0 0 0 .084-.196ZM94.182 484h-6.034v-9.338h6.034v1.232h-4.76v2.814h4.76v1.232h-4.76v2.828h4.76V484Zm9.388-2.142c0 .266-.112.504-.294.7l-1.148 1.148a.987.987 0 0 1-.7.294h-3.584a.963.963 0 0 1-.7-.294l-1.316-1.316.868-.868 1.162 1.162a.254.254 0 0 0 .196.084h3.15c.084 0 .154-.028.196-.084l.798-.798c.056-.056.098-.126.098-.196v-1.148c0-.154-.14-.266-.266-.28l-5.278-.686c-.518-.07-.924-.518-.924-1.036v-1.736c0-.266.098-.504.294-.7l1.148-1.148a.963.963 0 0 1 .7-.294h3.57c.266 0 .518.098.7.294l1.33 1.316-.868.868-1.162-1.162a.276.276 0 0 0-.196-.084H98.18a.254.254 0 0 0-.196.084l-.798.798a.276.276 0 0 0-.084.196v1.148c0 .14.112.266.252.28l5.292.686c.518.07.924.518.924 1.036v1.736Zm8.933 2.142h-1.274v-4.06h-4.34V484h-1.274v-9.338h1.274v4.046h4.326v-4.046h1.288V484Zm9.526 0h-1.904l-3.724-7.882V484h-1.26v-9.338h1.904l3.724 7.882v-7.882h1.26V484Zm8.673 0h-6.034v-9.338h6.034v1.232h-4.76v2.814h4.76v1.232h-4.76v2.828h4.76V484Zm9.389-2.142c0 .266-.112.504-.294.7l-1.148 1.148a.987.987 0 0 1-.7.294h-3.584a.963.963 0 0 1-.7-.294l-1.316-1.316.868-.868 1.162 1.162a.254.254 0 0 0 .196.084h3.15c.084 0 .154-.028.196-.084l.798-.798c.056-.056.098-.126.098-.196v-1.148c0-.154-.14-.266-.266-.28l-5.278-.686c-.518-.07-.924-.518-.924-1.036v-1.736c0-.266.098-.504.294-.7l1.148-1.148a.963.963 0 0 1 .7-.294h3.57c.266 0 .518.098.7.294l1.33 1.316-.868.868-1.162-1.162a.276.276 0 0 0-.196-.084h-3.164a.254.254 0 0 0-.196.084l-.798.798a.276.276 0 0 0-.084.196v1.148c0 .14.112.266.252.28l5.292.686c.518.07.924.518.924 1.036v1.736Zm9.198 0c0 .266-.112.504-.294.7l-1.148 1.148a.987.987 0 0 1-.7.294h-3.584a.963.963 0 0 1-.7-.294l-1.316-1.316.868-.868 1.162 1.162a.254.254 0 0 0 .196.084h3.15c.084 0 .154-.028.196-.084l.798-.798c.056-.056.098-.126.098-.196v-1.148c0-.154-.14-.266-.266-.28l-5.278-.686c-.518-.07-.924-.518-.924-1.036v-1.736c0-.266.098-.504.294-.7l1.148-1.148a.963.963 0 0 1 .7-.294h3.57c.266 0 .518.098.7.294l1.33 1.316-.868.868-1.162-1.162a.276.276 0 0 0-.196-.084h-3.164a.254.254 0 0 0-.196.084l-.798.798a.276.276 0 0 0-.084.196v1.148c0 .14.112.266.252.28l5.292.686c.518.07.924.518.924 1.036v1.736ZM95.273 498h-1.218l-.266-1.33-1.036 1.036a.933.933 0 0 1-.686.294h-2.772a.963.963 0 0 1-.7-.294l-1.148-1.148a.963.963 0 0 1-.294-.7v-5.054c0-.266.098-.504.294-.7l1.148-1.148a.963.963 0 0 1 .7-.294h3.458c.266 0 .49.098.686.294l1.316 1.316-.868.868-1.162-1.162a.254.254 0 0 0-.196-.084h-3.024a.254.254 0 0 0-.196.084l-.798.798a.276.276 0 0 0-.084.196v4.718c0 .07.028.14.084.196l.798.798a.254.254 0 0 0 .196.084h2.38c.084 0 .154-.028.196-.084l1.47-1.456a.254.254 0 0 0 .084-.196v-1.092h-2.548v-1.232h3.822v3.472l.364 1.82Zm8.736-2.142c0 .266-.112.504-.294.7l-1.148 1.148a.987.987 0 0 1-.7.294h-2.604a.963.963 0 0 1-.7-.294l-1.148-1.148a.963.963 0 0 1-.294-.7v-7.196h1.274v7.028c0 .07.028.14.084.196l.798.798a.254.254 0 0 0 .196.084h2.17c.084 0 .154-.028.196-.084l.798-.798a.276.276 0 0 0 .084-.196v-7.028h1.288v7.196Zm9.928 2.142h-1.302l-.952-2.506h-4.186l-.952 2.506h-1.274l3.5-9.338h1.68l3.486 9.338Zm-2.716-3.682-1.624-4.508-1.652 4.508h3.276ZM122.96 498h-1.54l-2.66-3.836a.313.313 0 0 0-.238-.126h-1.848V498H115.4v-9.338h5.082a.92.92 0 0 1 .672.28l.826.826c.196.196.308.42.308.7v1.764c0 .28-.112.518-.294.7l-.826.826a.943.943 0 0 1-.672.28h-.35L122.96 498Zm-1.96-5.936.014-1.428a.284.284 0 0 0-.084-.196l-.462-.462a.254.254 0 0 0-.196-.084h-3.598v2.912h3.584c.084 0 .154-.028.196-.084l.462-.462a.254.254 0 0 0 .084-.196Zm10.691 3.794c0 .266-.112.504-.294.7l-1.148 1.148a.987.987 0 0 1-.7.294h-4.746v-9.338h4.732c.266 0 .518.098.7.294l1.148 1.148a.978.978 0 0 1 .308.7v5.054Zm-1.288-.168.014-4.718c0-.07-.042-.14-.084-.196l-.798-.798a.276.276 0 0 0-.196-.084h-3.262v6.874h3.248c.084 0 .154-.028.196-.084l.798-.798a.276.276 0 0 0 .084-.196Z"/>
  <path stroke="#84E0F7" stroke-dasharray="2 2" d="M215.5 364v169M13 442.5h404"/>
  <path stroke="#84E0F7" d="m185.717 413.004 59.281 59.281m0-58.57-59.281 59.281"/>
  <circle cx="215" cy="443" r="26.5" stroke="#84E0F7"/>
  <circle cx="215" cy="443" r="32.5" stroke="#84E0F7" stroke-dasharray="1 8"/>
  <path fill="#84E0F7" d="M316.32 383.662 313.226 393h-1.694l-3.08-9.338h1.302l2.646 8.162 2.646-8.162h1.274Zm8.604 7.196c0 .266-.112.504-.294.7l-1.148 1.148a.987.987 0 0 1-.7.294h-3.458a.963.963 0 0 1-.7-.294l-1.148-1.148a.963.963 0 0 1-.294-.7v-5.054c0-.266.098-.504.294-.7l1.148-1.148a.963.963 0 0 1 .7-.294h3.444c.266 0 .518.098.7.294l1.148 1.148a.978.978 0 0 1 .308.7v5.054Zm-1.288-.168.014-4.718c0-.07-.042-.14-.084-.196l-.798-.798a.276.276 0 0 0-.196-.084h-3.038a.254.254 0 0 0-.196.084l-.798.798a.276.276 0 0 0-.084.196v4.718c0 .07.028.14.084.196l.798.798a.254.254 0 0 0 .196.084h3.024c.084 0 .154-.028.196-.084l.798-.798a.276.276 0 0 0 .084-.196Zm9.567 2.31h-6.034v-9.338h1.274v8.106h4.76V393Zm-52.157 14h-1.302l-.952-2.506h-4.186l-.952 2.506h-1.274l3.5-9.338h1.68l3.486 9.338Zm-2.716-3.682-1.624-4.508-1.652 4.508h3.276Zm11.066 1.54c0 .266-.112.504-.294.7l-1.148 1.148a.987.987 0 0 1-.7.294h-4.746v-9.338h4.732c.266 0 .518.098.7.294l1.148 1.148a.978.978 0 0 1 .308.7v5.054Zm-1.288-.168.014-4.718c0-.07-.042-.14-.084-.196l-.798-.798a.276.276 0 0 0-.196-.084h-3.262v6.874h3.248c.084 0 .154-.028.196-.084l.798-.798a.276.276 0 0 0 .084-.196Zm8.22.168a.963.963 0 0 1-.294.7l-1.148 1.148a.963.963 0 0 1-.7.294h-2.002a.963.963 0 0 1-.7-.294l-1.316-1.316.868-.868 1.162 1.162a.254.254 0 0 0 .196.084h1.582c.084 0 .14-.028.196-.084l.798-.798a.276.276 0 0 0 .084-.196v-5.796h-2.758v-1.232h4.032v7.196Zm9.122 0c0 .266-.112.504-.294.7l-1.148 1.148a.987.987 0 0 1-.7.294h-2.604a.963.963 0 0 1-.7-.294l-1.148-1.148a.963.963 0 0 1-.294-.7v-7.196h1.274v7.028c0 .07.028.14.084.196l.798.798a.254.254 0 0 0 .196.084h2.17c.084 0 .154-.028.196-.084l.798-.798a.276.276 0 0 0 .084-.196v-7.028h1.288v7.196Zm9.592 0c0 .266-.112.504-.294.7l-1.148 1.148a.987.987 0 0 1-.7.294h-3.584a.963.963 0 0 1-.7-.294l-1.316-1.316.868-.868 1.162 1.162a.254.254 0 0 0 .196.084h3.15c.084 0 .154-.028.196-.084l.798-.798c.056-.056.098-.126.098-.196v-1.148c0-.154-.14-.266-.266-.28l-5.278-.686c-.518-.07-.924-.518-.924-1.036v-1.736c0-.266.098-.504.294-.7l1.148-1.148a.963.963 0 0 1 .7-.294h3.57c.266 0 .518.098.7.294l1.33 1.316-.868.868-1.162-1.162a.276.276 0 0 0-.196-.084h-3.164a.254.254 0 0 0-.196.084l-.798.798a.276.276 0 0 0-.084.196v1.148c0 .14.112.266.252.28l5.292.686c.518.07.924.518.924 1.036v1.736Zm7.743-5.964h-2.8V407h-1.274v-8.106h-2.8v-1.232h6.874v1.232ZM333.307 407h-1.246v-8.148L329.415 407h-1.288l-2.632-8.148V407h-1.26v-9.338h2.086l2.45 7.588 2.45-7.588h2.086V407Zm8.662 0h-6.034v-9.338h6.034v1.232h-4.76v2.814h4.76v1.232h-4.76v2.828h4.76V407Zm9.123 0h-1.904l-3.724-7.882V407h-1.26v-9.338h1.904l3.724 7.882v-7.882h1.26V407Zm8.336-8.106h-2.8V407h-1.274v-8.106h-2.8v-1.232h6.874v1.232Zm8.604 5.964c0 .266-.112.504-.294.7l-1.148 1.148a.987.987 0 0 1-.7.294h-3.584a.963.963 0 0 1-.7-.294l-1.316-1.316.868-.868 1.162 1.162a.254.254 0 0 0 .196.084h3.15c.084 0 .154-.028.196-.084l.798-.798c.056-.056.098-.126.098-.196v-1.148c0-.154-.14-.266-.266-.28l-5.278-.686c-.518-.07-.924-.518-.924-1.036v-1.736c0-.266.098-.504.294-.7l1.148-1.148a.963.963 0 0 1 .7-.294h3.57c.266 0 .518.098.7.294l1.33 1.316-.868.868-1.162-1.162a.276.276 0 0 0-.196-.084h-3.164a.254.254 0 0 0-.196.084l-.798.798a.276.276 0 0 0-.084.196v1.148c0 .14.112.266.252.28l5.292.686c.518.07.924.518.924 1.036v1.736Zm-65.48 77c0 .266-.112.504-.294.7l-1.148 1.148a.987.987 0 0 1-.7.294h-3.584a.963.963 0 0 1-.7-.294l-1.316-1.316.868-.868 1.162 1.162a.254.254 0 0 0 .196.084h3.15c.084 0 .154-.028.196-.084l.798-.798c.056-.056.098-.126.098-.196v-1.148c0-.154-.14-.266-.266-.28l-5.278-.686c-.518-.07-.924-.518-.924-1.036v-1.736c0-.266.098-.504.294-.7l1.148-1.148a.963.963 0 0 1 .7-.294h3.57c.266 0 .518.098.7.294l1.33 1.316-.868.868-1.162-1.162a.276.276 0 0 0-.196-.084h-3.164a.254.254 0 0 0-.196.084l-.798.798a.276.276 0 0 0-.084.196v1.148c0 .14.112.266.252.28l5.292.686c.518.07.924.518.924 1.036v1.736Zm8.932-3.626c0 .28-.112.518-.294.7l-.826.826a.943.943 0 0 1-.672.28h-3.822V484h-1.274v-9.338h5.082a.92.92 0 0 1 .672.28l.826.826c.196.196.308.42.308.7v1.764Zm-1.288-.168.014-1.428a.284.284 0 0 0-.084-.196l-.462-.462a.254.254 0 0 0-.196-.084h-3.598v2.912h3.584c.084 0 .154-.028.196-.084l.462-.462a.254.254 0 0 0 .084-.196ZM320.739 484h-1.54l-2.66-3.836a.313.313 0 0 0-.238-.126h-1.848V484h-1.274v-9.338h5.082a.92.92 0 0 1 .672.28l.826.826c.196.196.308.42.308.7v1.764c0 .28-.112.518-.294.7l-.826.826a.943.943 0 0 1-.672.28h-.35l2.814 3.962Zm-1.96-5.936.014-1.428a.284.284 0 0 0-.084-.196l-.462-.462a.254.254 0 0 0-.196-.084h-3.598v2.912h3.584c.084 0 .154-.028.196-.084l.462-.462a.254.254 0 0 0 .084-.196Zm9.838 5.936h-6.034v-9.338h6.034v1.232h-4.76v2.814h4.76v1.232h-4.76v2.828h4.76V484Zm9.725 0h-1.302l-.952-2.506h-4.186L330.95 484h-1.274l3.5-9.338h1.68l3.486 9.338Zm-2.716-3.682-1.624-4.508-1.652 4.508h3.276Zm11.066 1.54c0 .266-.112.504-.294.7l-1.148 1.148a.987.987 0 0 1-.7.294h-4.746v-9.338h4.732c.266 0 .518.098.7.294l1.148 1.148a.978.978 0 0 1 .308.7v5.054Zm-1.288-.168.014-4.718c0-.07-.042-.14-.084-.196l-.798-.798a.276.276 0 0 0-.196-.084h-3.262v6.874h3.248c.084 0 .154-.028.196-.084l.798-.798a.276.276 0 0 0 .084-.196Zm-47.468 14.7-1.316 1.316a.963.963 0 0 1-.7.294h-2.73a.963.963 0 0 1-.7-.294l-1.148-1.148a.963.963 0 0 1-.294-.7v-5.054c0-.266.098-.504.294-.7l1.148-1.148a.963.963 0 0 1 .7-.294h2.73c.266 0 .504.098.7.294l1.316 1.316-.868.868-1.162-1.162a.254.254 0 0 0-.196-.084h-2.31a.254.254 0 0 0-.196.084l-.798.798a.276.276 0 0 0-.084.196v4.718c0 .07.028.14.084.196l.798.798a.254.254 0 0 0 .196.084h2.31c.084 0 .14-.028.196-.084l1.148-1.162.882.868Zm9-.532c0 .266-.112.504-.294.7l-1.148 1.148a.987.987 0 0 1-.7.294h-3.458a.963.963 0 0 1-.7-.294l-1.148-1.148a.963.963 0 0 1-.294-.7v-5.054c0-.266.098-.504.294-.7l1.148-1.148a.963.963 0 0 1 .7-.294h3.444c.266 0 .518.098.7.294l1.148 1.148a.978.978 0 0 1 .308.7v5.054Zm-1.288-.168.014-4.718c0-.07-.042-.14-.084-.196l-.798-.798a.276.276 0 0 0-.196-.084h-3.038a.254.254 0 0 0-.196.084l-.798.798a.276.276 0 0 0-.084.196v4.718c0 .07.028.14.084.196l.798.798a.254.254 0 0 0 .196.084h3.024c.084 0 .154-.028.196-.084l.798-.798a.276.276 0 0 0 .084-.196Zm10.42 2.31h-1.904l-3.724-7.882V498h-1.26v-9.338h1.904l3.724 7.882v-7.882h1.26V498Zm8.337-8.106h-2.8V498h-1.274v-8.106h-2.8v-1.232h6.874v1.232Zm9.01 8.106h-1.54l-2.66-3.836a.313.313 0 0 0-.238-.126h-1.848V498h-1.274v-9.338h5.082a.92.92 0 0 1 .672.28l.826.826c.196.196.308.42.308.7v1.764c0 .28-.112.518-.294.7l-.826.826a.943.943 0 0 1-.672.28h-.35l2.814 3.962Zm-1.96-5.936.014-1.428a.284.284 0 0 0-.084-.196l-.462-.462a.254.254 0 0 0-.196-.084h-3.598v2.912h3.584c.084 0 .154-.028.196-.084l.462-.462a.254.254 0 0 0 .084-.196Zm11.153 3.794c0 .266-.112.504-.294.7l-1.148 1.148a.987.987 0 0 1-.7.294h-3.458a.963.963 0 0 1-.7-.294l-1.148-1.148a.963.963 0 0 1-.294-.7v-5.054c0-.266.098-.504.294-.7l1.148-1.148a.963.963 0 0 1 .7-.294h3.444c.266 0 .518.098.7.294l1.148 1.148a.978.978 0 0 1 .308.7v5.054Zm-1.288-.168.014-4.718c0-.07-.042-.14-.084-.196l-.798-.798a.276.276 0 0 0-.196-.084h-3.038a.254.254 0 0 0-.196.084l-.798.798a.276.276 0 0 0-.084.196v4.718c0 .07.028.14.084.196l.798.798a.254.254 0 0 0 .196.084h3.024c.084 0 .154-.028.196-.084l.798-.798a.276.276 0 0 0 .084-.196Zm9.567 2.31h-6.034v-9.338h1.274v8.106h4.76V498Z"/>
  <path stroke="#84E0F7" stroke-dasharray="2 2" d="M428.5 350v186"/>
  <path stroke="#84E0F7" d="M429 350.5h-12m12 185h-12m-201.5.5v52m-214 59.5h66v23h-66z"/>
  <path fill="#fff" d="M21.912 657.232c0 .28-.112.518-.294.7l-.826.826a.943.943 0 0 1-.672.28h-3.822V663h-1.274v-9.338h5.082a.92.92 0 0 1 .672.28l.826.826c.196.196.308.42.308.7v1.764Zm-1.288-.168.014-1.428a.284.284 0 0 0-.084-.196l-.462-.462a.254.254 0 0 0-.196-.084h-3.598v2.912h3.584c.084 0 .154-.028.196-.084l.462-.462a.254.254 0 0 0 .084-.196Z"/>
  <path fill="#828282" d="M38.59 663h-1.54l-2.66-3.836a.313.313 0 0 0-.238-.126h-1.848V663H31.03v-9.338h5.082a.92.92 0 0 1 .672.28l.826.826c.196.196.308.42.308.7v1.764c0 .28-.112.518-.294.7l-.826.826a.943.943 0 0 1-.672.28h-.35L38.59 663Zm-1.96-5.936.014-1.428a.284.284 0 0 0-.084-.196l-.462-.462a.254.254 0 0 0-.196-.084h-3.598v2.912h3.584c.084 0 .154-.028.196-.084l.462-.462a.254.254 0 0 0 .084-.196ZM46.468 663h-6.034v-9.338h6.034v1.232h-4.76v2.814h4.76v1.232h-4.76v2.828h4.76V663Zm8.282-4.06h-4.774V663h-1.274v-9.338h6.048v1.232h-4.774v2.814h4.774v1.232Z"/>
  <path fill="#84E0F7" d="M67 647h52v24H67z"/>
  <path fill="#1D1D1F" d="M89.361 661.194c0 .266-.098.504-.28.7l-.826.812a.933.933 0 0 1-.686.294h-5.082v-9.338h5.068c.28 0 .504.098.7.294l.826.826c.196.196.28.406.28.686v1.358a.963.963 0 0 1-.294.7l-.812.798.812.812c.196.196.294.42.294.686v1.372Zm-1.274-4.494.014-1.064c0-.07-.028-.14-.084-.196l-.462-.462a.254.254 0 0 0-.196-.084h-3.598v2.842h3.304c.07 0 .154-.042.196-.084l.742-.742a.264.264 0 0 0 .084-.21Zm.014 4.326v-1.05a.284.284 0 0 0-.084-.196l-.756-.756c-.056-.056-.126-.098-.196-.098h-3.304v2.842h3.584c.07 0 .154-.028.196-.084l.462-.462c.056-.056.098-.112.098-.196ZM95.37 663h-4.746v-1.148h1.736v-7.042h-1.736v-1.148h4.746v1.148h-1.737v7.042h1.737V663Zm8.533-2.142c0 .266-.112.504-.294.7l-1.148 1.148a.987.987 0 0 1-.7.294h-4.746v-9.338h4.732c.266 0 .518.098.7.294l1.148 1.148a.978.978 0 0 1 .308.7v5.054Zm-1.288-.168.014-4.718c0-.07-.042-.14-.084-.196l-.798-.798a.276.276 0 0 0-.196-.084h-3.262v6.874h3.248c.084 0 .154-.028.196-.084l.798-.798a.276.276 0 0 0 .084-.196Z"/>
  <path stroke="#84E0F7" d="M118.5 647.5h193v23h-193z"/>
  <path fill="#84E0F7" d="M311 647h52v24h-52z"/>
  <path fill="#1D1D1F" d="M332.822 663h-1.302l-.952-2.506h-4.186L325.43 663h-1.274l3.5-9.338h1.68l3.486 9.338Zm-2.716-3.682-1.624-4.508-1.652 4.508h3.276Zm11.332 1.54c0 .266-.112.504-.294.7l-1.148 1.148a.987.987 0 0 1-.7.294h-3.584a.963.963 0 0 1-.7-.294l-1.316-1.316.868-.868 1.162 1.162a.254.254 0 0 0 .196.084h3.15c.084 0 .154-.028.196-.084l.798-.798c.056-.056.098-.126.098-.196v-1.148c0-.154-.14-.266-.266-.28l-5.278-.686c-.518-.07-.924-.518-.924-1.036v-1.736c0-.266.098-.504.294-.7l1.148-1.148a.963.963 0 0 1 .7-.294h3.57c.266 0 .518.098.7.294l1.33 1.316-.868.868-1.162-1.162a.276.276 0 0 0-.196-.084h-3.164a.254.254 0 0 0-.196.084l-.798.798a.276.276 0 0 0-.084.196v1.148c0 .14.112.266.252.28l5.292.686c.518.07.924.518.924 1.036v1.736Zm8.751 2.142h-1.68l-3.752-4.06V663h-1.274v-9.338h1.274v4.06l3.794-4.06h1.638l-4.368 4.662 4.368 4.676Z"/>
  <path stroke="#84E0F7" d="M362.5 647.5h66v23h-66z"/>
  <path fill="#fff" d="M382.912 657.232c0 .28-.112.518-.294.7l-.826.826a.943.943 0 0 1-.672.28h-3.822V663h-1.274v-9.338h5.082a.92.92 0 0 1 .672.28l.826.826c.196.196.308.42.308.7v1.764Zm-1.288-.168.014-1.428a.284.284 0 0 0-.084-.196l-.462-.462a.254.254 0 0 0-.196-.084h-3.598v2.912h3.584c.084 0 .154-.028.196-.084l.462-.462a.254.254 0 0 0 .084-.196Z"/>
  <path fill="#828282" d="M399.59 663h-1.54l-2.66-3.836a.313.313 0 0 0-.238-.126h-1.848V663h-1.274v-9.338h5.082a.92.92 0 0 1 .672.28l.826.826c.196.196.308.42.308.7v1.764c0 .28-.112.518-.294.7l-.826.826a.943.943 0 0 1-.672.28h-.35L399.59 663Zm-1.96-5.936.014-1.428a.284.284 0 0 0-.084-.196l-.462-.462a.254.254 0 0 0-.196-.084h-3.598v2.912h3.584c.084 0 .154-.028.196-.084l.462-.462a.254.254 0 0 0 .084-.196Zm9.838 5.936h-6.034v-9.338h6.034v1.232h-4.76v2.814h4.76v1.232h-4.76v2.828h4.76V663Zm8.282-4.06h-4.774V663h-1.274v-9.338h6.048v1.232h-4.774v2.814h4.774v1.232Z"/>
  <g clip-path="url(#b)">
    <circle cx="214.499" cy="659" r="70.5" stroke="#84E0F7"/>
    <circle cx="214.497" cy="659" r="61.533" stroke="#6BCCE5" stroke-dasharray=".5 8" stroke-linecap="round" opacity=".6"/>
    <circle cx="214.5" cy="659" r="52.067" stroke="#6BCCE5" stroke-dasharray=".5 8" stroke-linecap="round" opacity=".5"/>
    <circle cx="214.498" cy="659" r="42.6" stroke="#6BCCE5" stroke-dasharray=".5 8" stroke-linecap="round" opacity=".4"/>
    <circle cx="214.5" cy="658.999" r="33.133" stroke="#6BCCE5" stroke-dasharray=".5 8" stroke-linecap="round" opacity=".3"/>
    <circle cx="214.498" cy="659.001" r="23.667" stroke="#6BCCE5" stroke-dasharray=".5 8" stroke-linecap="round" opacity=".2"/>
    <circle cx="214.5" cy="658.999" r="12.622" stroke="#6BCCE5" stroke-dasharray=".5 8" stroke-linecap="round" opacity=".1"/>
  </g>
  <g clip-path="url(#c)">
    <circle cx="71" cy="71" r="70.5" stroke="#84E0F7" transform="matrix(-1 0 0 1 285.499 588)"/>
    <circle cx="61.533" cy="61.533" r="61.033" stroke="#84E0F7" opacity=".6" transform="matrix(-1 0 0 1 276.034 597.467)"/>
    <circle cx="52.067" cy="52.067" r="51.567" stroke="#84E0F7" opacity=".5" transform="matrix(-1 0 0 1 266.566 606.934)"/>
    <circle cx="42.6" cy="42.6" r="42.1" stroke="#84E0F7" opacity=".4" transform="matrix(-1 0 0 1 257.101 616.4)"/>
    <circle cx="33.133" cy="33.133" r="32.633" stroke="#84E0F7" opacity=".3" transform="matrix(-1 0 0 1 247.632 625.865)"/>
    <circle cx="23.667" cy="23.667" r="23.167" stroke="#84E0F7" opacity=".2" transform="matrix(-1 0 0 1 238.167 635.334)"/>
    <circle cx="12.622" cy="12.622" r="12.122" stroke="#84E0F7" opacity=".1" transform="matrix(-1 0 0 1 227.12 646.377)"/>
  </g>
  <path fill="#1D1D1F" stroke="#84E0F7" d="M212.5 591.5h6v-6h-6zm69 82h6v-6h-6zm0-23h6v-6h-6zm-140 23h6v-6h-6zm0-23h6v-6h-6zm71 83h6v-6h-6z"/>
  <path stroke="#84E0F7" d="M215.5 730v52"/>
  <path fill="#84E0F7" d="M1 782h214.5v25H1z"/>
  <path fill="#1D1D1F" d="M98.898 792.732c0 .28-.112.518-.294.7l-.826.826a.943.943 0 0 1-.672.28h-3.822v3.962H92.01v-9.338h5.082a.92.92 0 0 1 .672.28l.826.826c.196.196.308.42.308.7v1.764Zm-1.288-.168.014-1.428a.284.284 0 0 0-.084-.196l-.462-.462a.254.254 0 0 0-.196-.084h-3.598v2.912h3.584c.084 0 .154-.028.196-.084l.462-.462a.254.254 0 0 0 .084-.196Zm10.333 3.794c0 .266-.112.504-.294.7l-1.148 1.148a.987.987 0 0 1-.7.294h-3.458a.963.963 0 0 1-.7-.294l-1.148-1.148a.963.963 0 0 1-.294-.7v-5.054c0-.266.098-.504.294-.7l1.148-1.148a.963.963 0 0 1 .7-.294h3.444c.266 0 .518.098.7.294l1.148 1.148a.978.978 0 0 1 .308.7v5.054Zm-1.288-.168.014-4.718c0-.07-.042-.14-.084-.196l-.798-.798a.276.276 0 0 0-.196-.084h-3.038a.254.254 0 0 0-.196.084l-.798.798a.276.276 0 0 0-.084.196v4.718c0 .07.028.14.084.196l.798.798a.254.254 0 0 0 .196.084h3.024c.084 0 .154-.028.196-.084l.798-.798a.276.276 0 0 0 .084-.196Zm10.883.168c0 .266-.112.504-.294.7l-1.148 1.148a.987.987 0 0 1-.7.294h-3.458a.963.963 0 0 1-.7-.294l-1.148-1.148a.963.963 0 0 1-.294-.7v-5.054c0-.266.098-.504.294-.7l1.148-1.148a.963.963 0 0 1 .7-.294h3.444c.266 0 .518.098.7.294l1.148 1.148a.978.978 0 0 1 .308.7v5.054Zm-1.288-.168.014-4.718c0-.07-.042-.14-.084-.196l-.798-.798a.276.276 0 0 0-.196-.084h-3.038a.254.254 0 0 0-.196.084l-.798.798a.276.276 0 0 0-.084.196v4.718c0 .07.028.14.084.196l.798.798a.254.254 0 0 0 .196.084h3.024c.084 0 .154-.028.196-.084l.798-.798a.276.276 0 0 0 .084-.196Zm9.567 2.31h-6.034v-9.338h1.274v8.106h4.76v1.232Z"/>
  <path stroke="#84E0F7" d="M215 782.5h213.5v24H215z"/>
  <path fill="#84E0F7" d="M236.321 798.5h-6.034v-9.338h6.034v1.232h-4.76v2.814h4.76v1.232h-4.76v2.828h4.76v1.232Zm8.283 0h-1.456l-2.058-3.514-2.086 3.514h-1.428l2.814-4.662-2.814-4.676h1.442l2.072 3.528 2.072-3.528h1.428l-2.814 4.662 2.828 4.676Zm7.681 0h-6.034v-9.338h6.034v1.232h-4.76v2.814h4.76v1.232h-4.76v2.828h4.76v1.232Zm8.73-1.61-1.316 1.316a.963.963 0 0 1-.7.294h-2.73a.963.963 0 0 1-.7-.294l-1.148-1.148a.963.963 0 0 1-.294-.7v-5.054c0-.266.098-.504.294-.7l1.148-1.148a.963.963 0 0 1 .7-.294h2.73c.266 0 .504.098.7.294l1.316 1.316-.868.868-1.162-1.162a.254.254 0 0 0-.196-.084h-2.31a.254.254 0 0 0-.196.084l-.798.798a.276.276 0 0 0-.084.196v4.718c0 .07.028.14.084.196l.798.798a.254.254 0 0 0 .196.084h2.31c.084 0 .14-.028.196-.084l1.148-1.162.882.868Zm8.342-.532c0 .266-.112.504-.294.7l-1.148 1.148a.987.987 0 0 1-.7.294h-2.604a.963.963 0 0 1-.7-.294l-1.148-1.148a.963.963 0 0 1-.294-.7v-7.196h1.274v7.028c0 .07.028.14.084.196l.798.798a.254.254 0 0 0 .196.084h2.17c.084 0 .154-.028.196-.084l.798-.798a.276.276 0 0 0 .084-.196v-7.028h1.288v7.196Zm8.136-5.964h-2.8v8.106h-1.274v-8.106h-2.8v-1.232h6.874v1.232Zm7.484 8.106h-6.034v-9.338h6.034v1.232h-4.76v2.814h4.76v1.232h-4.76v2.828h4.76v1.232Zm9.389-2.142c0 .266-.112.504-.294.7l-1.148 1.148a.987.987 0 0 1-.7.294h-3.584a.963.963 0 0 1-.7-.294l-1.316-1.316.868-.868 1.162 1.162a.254.254 0 0 0 .196.084H292c.084 0 .154-.028.196-.084l.798-.798c.056-.056.098-.126.098-.196v-1.148c0-.154-.14-.266-.266-.28l-5.278-.686c-.518-.07-.924-.518-.924-1.036v-1.736c0-.266.098-.504.294-.7l1.148-1.148a.963.963 0 0 1 .7-.294h3.57c.266 0 .518.098.7.294l1.33 1.316-.868.868-1.162-1.162a.276.276 0 0 0-.196-.084h-3.164a.254.254 0 0 0-.196.084l-.798.798a.276.276 0 0 0-.084.196v1.148c0 .14.112.266.252.28l5.292.686c.518.07.924.518.924 1.036v1.736Zm13.086 2.142h-1.302l-.952-2.506h-4.186l-.952 2.506h-1.274l3.5-9.338h1.68l3.486 9.338Zm-2.716-3.682-1.624-4.508-1.652 4.508h3.276Zm9.876-4.424h-2.8v8.106h-1.274v-8.106h-2.8v-1.232h6.874v1.232Zm12.352 5.964c0 .266-.112.504-.294.7l-1.148 1.148a.987.987 0 0 1-.7.294h-.336l.658 1.54-.98.406-.826-1.946h-1.974a.963.963 0 0 1-.7-.294l-1.148-1.148a.963.963 0 0 1-.294-.7v-5.054c0-.266.098-.504.294-.7l1.148-1.148a.963.963 0 0 1 .7-.294h3.444c.266 0 .518.098.7.294l1.148 1.148a.978.978 0 0 1 .308.7v5.054Zm-1.288-.168.014-4.718c0-.07-.042-.14-.084-.196l-.798-.798a.276.276 0 0 0-.196-.084h-3.038a.254.254 0 0 0-.196.084l-.798.798a.276.276 0 0 0-.084.196v4.718c0 .07.028.14.084.196l.798.798a.254.254 0 0 0 .196.084h1.232l-.336-.798.98-.448.518 1.246h.63c.084 0 .154-.028.196-.084l.798-.798a.276.276 0 0 0 .084-.196Zm10.225.168c0 .266-.112.504-.294.7l-1.148 1.148a.987.987 0 0 1-.7.294h-2.604a.963.963 0 0 1-.7-.294l-1.148-1.148a.963.963 0 0 1-.294-.7v-7.196h1.274v7.028c0 .07.028.14.084.196l.798.798a.254.254 0 0 0 .196.084h2.17c.084 0 .154-.028.196-.084l.798-.798a.276.276 0 0 0 .084-.196v-7.028h1.288v7.196Zm9.788 0c0 .266-.112.504-.294.7l-1.148 1.148a.987.987 0 0 1-.7.294h-3.458a.963.963 0 0 1-.7-.294l-1.148-1.148a.963.963 0 0 1-.294-.7v-5.054c0-.266.098-.504.294-.7l1.148-1.148a.963.963 0 0 1 .7-.294h3.444c.266 0 .518.098.7.294l1.148 1.148a.978.978 0 0 1 .308.7v5.054Zm-1.288-.168.014-4.718c0-.07-.042-.14-.084-.196l-.798-.798a.276.276 0 0 0-.196-.084h-3.038a.254.254 0 0 0-.196.084l-.798.798a.276.276 0 0 0-.084.196v4.718c0 .07.028.14.084.196l.798.798a.254.254 0 0 0 .196.084h3.024c.084 0 .154-.028.196-.084l.798-.798a.276.276 0 0 0 .084-.196Zm9.231-5.796h-2.8v8.106h-1.274v-8.106h-2.8v-1.232h6.874v1.232Zm7.483 8.106h-6.034v-9.338h6.034v1.232h-4.76v2.814h4.76v1.232h-4.76v2.828h4.76v1.232Zm9.123-2.142c0 .266-.112.504-.294.7l-1.148 1.148a.987.987 0 0 1-.7.294h-4.746v-9.338h4.732c.266 0 .518.098.7.294l1.148 1.148a.978.978 0 0 1 .308.7v5.054Zm-1.288-.168.014-4.718c0-.07-.042-.14-.084-.196l-.798-.798a.276.276 0 0 0-.196-.084h-3.262v6.874h3.248c.084 0 .154-.028.196-.084l.798-.798a.276.276 0 0 0 .084-.196Zm13.97-3.458c0 .28-.112.518-.294.7l-.826.826a.943.943 0 0 1-.672.28h-3.822v3.962h-1.274v-9.338h5.082a.92.92 0 0 1 .672.28l.826.826c.196.196.308.42.308.7v1.764Zm-1.288-.168.014-1.428a.284.284 0 0 0-.084-.196l-.462-.462a.254.254 0 0 0-.196-.084h-3.598v2.912h3.584c.084 0 .154-.028.196-.084l.462-.462a.254.254 0 0 0 .084-.196Zm10.543 5.936h-1.54l-2.66-3.836a.313.313 0 0 0-.238-.126h-1.848v3.962h-1.274v-9.338h5.082a.92.92 0 0 1 .672.28l.826.826c.196.196.308.42.308.7v1.764c0 .28-.112.518-.294.7l-.826.826a.943.943 0 0 1-.672.28h-.35l2.814 3.962Zm-1.96-5.936.014-1.428a.284.284 0 0 0-.084-.196l-.462-.462a.254.254 0 0 0-.196-.084h-3.598v2.912h3.584c.084 0 .154-.028.196-.084l.462-.462a.254.254 0 0 0 .084-.196Zm7.57 5.936h-4.746v-1.148h1.736v-7.042h-1.736v-1.148h4.746v1.148h-1.736v7.042h1.736v1.148Zm8.141-1.61-1.316 1.316a.963.963 0 0 1-.7.294h-2.73a.963.963 0 0 1-.7-.294l-1.148-1.148a.963.963 0 0 1-.294-.7v-5.054c0-.266.098-.504.294-.7l1.148-1.148a.963.963 0 0 1 .7-.294h2.73c.266 0 .504.098.7.294l1.316 1.316-.868.868-1.162-1.162a.254.254 0 0 0-.196-.084h-2.31a.254.254 0 0 0-.196.084l-.798.798a.276.276 0 0 0-.084.196v4.718c0 .07.028.14.084.196l.798.798a.254.254 0 0 0 .196.084h2.31c.084 0 .14-.028.196-.084l1.148-1.162.882.868Zm7.684 1.61h-6.034v-9.338h6.034v1.232h-4.76v2.814h4.76v1.232h-4.76v2.828h4.76v1.232Z"/>
  <g clip-path="url(#d)">
    <path stroke="#84E0F7" d="M227 829.5h-24m11.504 7.5v-8M203 1062.5h24m-11.504-7.5v8M418.5 950v-24m-7.5 11.504h8M11.5 942v24m7.5-11.504h-8"/>
    <circle cx="83" cy="83" r="82.5" stroke="#84E0F7" stroke-dasharray="1 20" transform="matrix(-1 0 0 1 298 863)"/>
    <circle cx="215" cy="946" r="68.5" stroke="#84E0F7"/>
    <circle cx="186.399" cy="917" r="8" fill="#84E0F7"/>
    <circle cx="205.599" cy="917" r="8" fill="#84E0F7"/>
    <circle cx="224.8" cy="917" r="8" fill="#84E0F7"/>
    <circle cx="244.001" cy="917" r="8" fill="#84E0F7"/>
    <circle cx="186.399" cy="936.201" r="8" fill="#84E0F7"/>
    <circle cx="205.599" cy="936.201" r="8" fill="#84E0F7"/>
    <circle cx="224.8" cy="936.201" r="7.425" stroke="#84E0F7" stroke-width="1.15"/>
    <circle cx="244.001" cy="936.201" r="8" fill="#84E0F7"/>
    <circle cx="186.399" cy="955.402" r="8" fill="#84E0F7"/>
    <circle cx="205.599" cy="955.402" r="7.425" stroke="#84E0F7" stroke-width="1.15"/>
    <circle cx="224.8" cy="955.402" r="8" fill="#84E0F7"/>
    <circle cx="244.001" cy="955.402" r="8" fill="#84E0F7"/>
    <circle cx="186.399" cy="974.602" r="8" fill="#84E0F7"/>
    <circle cx="205.599" cy="974.602" r="8" fill="#84E0F7"/>
    <circle cx="224.8" cy="974.602" r="8" fill="#84E0F7"/>
    <circle cx="244.001" cy="974.602" r="8" fill="#84E0F7"/>
    <path fill="#84E0F7" d="M9 1065H1v8h8z"/>
    <path stroke="#84E0F7" d="M15.5 1065.5h-7v7h7z"/>
    <path fill="#84E0F7" d="M422 1065h-8v8h8z"/>
    <path stroke="#84E0F7" d="M428.5 1065.5h-7v7h7z"/>
    <path fill="#84E0F7" d="M422 819h-8v8h8z"/>
    <path stroke="#84E0F7" d="M428.5 819.5h-7v7h7z"/>
    <path fill="#84E0F7" fill-opacity=".1" d="M2 837h135v42H2z"/>
    <path fill="#84E0F7" d="M37.176 861.9h-5.6v5.6h-2.128v-5.6h-5.656v-2.128h5.628v-5.6h2.128v5.6h5.628v2.128Zm14.88 2.324c0 .532-.14.952-.532 1.344l-1.316 1.316c-.392.392-.868.616-1.428.616h-5.348c-.56 0-1.036-.224-1.428-.616l-1.316-1.316c-.392-.392-.532-.812-.532-1.344V852.1c0-.532.14-.952.532-1.344l1.316-1.316c.392-.392.868-.616 1.428-.616h5.348c.56 0 1.036.224 1.428.616l1.316 1.316c.392.392.532.812.532 1.344v12.124Zm-2.38-.14v-11.872c0-.14-.028-.28-.14-.392l-.644-.644a.57.57 0 0 0-.42-.168H43.74a.57.57 0 0 0-.42.168l-.644.644a.524.524 0 0 0-.14.392v11.9c0 .14.028.28.14.392l.644.644a.57.57 0 0 0 .42.168h4.732a.57.57 0 0 0 .42-.168l.644-.644c.112-.112.14-.252.14-.42Zm9.28 3.416H55.96v-2.968h2.996v2.968Zm14.775 0h-9.547v-2.184h3.612v-14.084l-2.38 2.128-1.512-1.484 3.416-3.052h2.828v16.492h3.584v2.184Zm16.644 0h-11.9v-5.964c0-.784.42-1.456 1.148-1.792l8.036-3.584a.553.553 0 0 0 .336-.504v-3.444c0-.14-.028-.28-.14-.392l-.644-.644a.57.57 0 0 0-.42-.168H82.06a.57.57 0 0 0-.42.168l-1.708 1.708-1.54-1.512 1.932-1.932c.392-.392.868-.616 1.428-.616H87.1c.56 0 1.036.224 1.428.616l1.316 1.316c.392.392.532.812.532 1.344v4.032c0 .784-.42 1.484-1.148 1.792l-8.036 3.612a.553.553 0 0 0-.336.504v3.276h9.52v2.184Zm23.196-1.932c0 .308-.14.616-.336.812l-.728.728c-.28.28-.588.392-.896.392h-3.444c-.336 0-.644-.112-.896-.392l-.728-.728a1.102 1.102 0 0 1-.364-.812v-7.112c0-.308.14-.616.336-.812l.728-.728c.28-.28.588-.392.896-.392h3.444c.336 0 .644.112.896.392l.728.728c.224.196.364.504.364.812v7.112Zm-4.088-16.884L99.711 867.5h-1.736l9.772-18.816h1.736Zm-8.036 9.044c0 .308-.14.616-.336.812l-.728.728c-.28.28-.56.392-.896.392h-3.444c-.336 0-.616-.112-.896-.392l-.728-.728a1.19 1.19 0 0 1-.336-.812v-7.112c0-.308.14-.616.336-.812l.728-.728c.28-.28.56-.392.896-.392h3.444c.336 0 .616.112.896.392l.728.728c.196.196.336.504.336.812v7.112Zm10.388 7.672v-6.804c0-.056-.056-.112-.084-.168l-.336-.308c0-.028-.112-.056-.14-.056h-2.772c-.056 0-.168.028-.168.056l-.308.308c-.056.056-.112.112-.112.168v6.832c0 .056.056.112.084.168l.336.308c0 .028.084.056.14.056h2.772c.056 0 .168-.028.168-.056l.308-.308c.056-.056.112-.14.112-.196Zm-12.124-7.84v-6.804c0-.056-.028-.112-.084-.168l-.308-.308a.3.3 0 0 0-.168-.056H96.38a.3.3 0 0 0-.168.056l-.308.308c-.056.056-.084.112-.084.168v6.832c0 .056.028.112.084.168l.308.308a.3.3 0 0 0 .168.056h2.772a.3.3 0 0 0 .168-.056l.308-.308a.302.302 0 0 0 .084-.196Z"/>
    <path fill="#E8EAF0" fill-opacity=".38" d="m21.162 898.39-1.316 1.316a.963.963 0 0 1-.7.294h-2.73a.963.963 0 0 1-.7-.294l-1.148-1.148a.963.963 0 0 1-.294-.7v-5.054c0-.266.098-.504.294-.7l1.148-1.148a.963.963 0 0 1 .7-.294h2.73c.266 0 .504.098.7.294l1.316 1.316-.868.868-1.162-1.162a.254.254 0 0 0-.196-.084h-2.31a.254.254 0 0 0-.196.084l-.798.798a.276.276 0 0 0-.084.196v4.718c0 .07.028.14.084.196l.798.798a.254.254 0 0 0 .196.084h2.31c.084 0 .14-.028.196-.084l1.148-1.162.882.868Zm8.342-.532c0 .266-.112.504-.294.7l-1.148 1.148a.987.987 0 0 1-.7.294h-2.604a.963.963 0 0 1-.7-.294l-1.148-1.148a.963.963 0 0 1-.294-.7v-7.196h1.274v7.028c0 .07.028.14.084.196l.798.798a.254.254 0 0 0 .196.084h2.17c.084 0 .154-.028.196-.084l.798-.798a.276.276 0 0 0 .084-.196v-7.028h1.288v7.196ZM39.502 900h-1.54l-2.66-3.836a.313.313 0 0 0-.238-.126h-1.848V900h-1.274v-9.338h5.082a.92.92 0 0 1 .672.28l.826.826c.196.196.308.42.308.7v1.764c0 .28-.112.518-.294.7l-.826.826a.943.943 0 0 1-.672.28h-.35L39.502 900Zm-1.96-5.936.014-1.428a.284.284 0 0 0-.084-.196l-.462-.462a.254.254 0 0 0-.196-.084h-3.598v2.912H36.8c.084 0 .154-.028.196-.084l.462-.462a.254.254 0 0 0 .084-.196ZM48.905 900h-1.54l-2.66-3.836a.313.313 0 0 0-.238-.126H42.62V900h-1.274v-9.338h5.082a.92.92 0 0 1 .672.28l.826.826c.196.196.308.42.308.7v1.764c0 .28-.112.518-.294.7l-.826.826a.943.943 0 0 1-.672.28h-.35L48.905 900Zm-1.96-5.936.014-1.428a.284.284 0 0 0-.084-.196l-.462-.462a.254.254 0 0 0-.196-.084H42.62v2.912h3.584c.084 0 .154-.028.196-.084l.462-.462a.254.254 0 0 0 .084-.196ZM56.783 900h-6.034v-9.338h6.034v1.232h-4.76v2.814h4.76v1.232h-4.76v2.828h4.76V900Zm9.123 0h-1.904l-3.724-7.882V900h-1.26v-9.338h1.904l3.724 7.882v-7.882h1.26V900Zm8.336-8.106h-2.8V900h-1.274v-8.106h-2.8v-1.232h6.874v1.232Zm12.352 5.964c0 .266-.112.504-.294.7l-1.148 1.148a.987.987 0 0 1-.7.294h-3.458a.963.963 0 0 1-.7-.294l-1.148-1.148a.963.963 0 0 1-.294-.7v-5.054c0-.266.098-.504.294-.7l1.148-1.148a.963.963 0 0 1 .7-.294h3.444c.266 0 .518.098.7.294l1.148 1.148a.978.978 0 0 1 .308.7v5.054Zm-1.288-.168.014-4.718c0-.07-.042-.14-.084-.196l-.798-.798a.276.276 0 0 0-.196-.084h-3.038a.254.254 0 0 0-.196.084l-.798.798a.276.276 0 0 0-.084.196v4.718c0 .07.028.14.084.196l.798.798a.254.254 0 0 0 .196.084h3.024c.084 0 .154-.028.196-.084l.798-.798a.276.276 0 0 0 .084-.196Zm9.58-1.75h-4.773V900h-1.274v-9.338h6.048v1.232h-4.774v2.814h4.774v1.232Zm7.9 0h-4.774V900h-1.274v-9.338h6.048v1.232h-4.774v2.814h4.774v1.232Zm9.006 1.918c0 .266-.112.504-.294.7l-1.148 1.148a.987.987 0 0 1-.7.294h-3.584a.963.963 0 0 1-.7-.294l-1.316-1.316.868-.868 1.162 1.162a.254.254 0 0 0 .196.084h3.15c.084 0 .154-.028.196-.084l.798-.798c.056-.056.098-.126.098-.196v-1.148c0-.154-.14-.266-.266-.28l-5.278-.686c-.518-.07-.924-.518-.924-1.036v-1.736c0-.266.098-.504.294-.7l1.148-1.148a.963.963 0 0 1 .7-.294h3.57c.266 0 .518.098.7.294l1.33 1.316-.868.868-1.162-1.162a.276.276 0 0 0-.196-.084h-3.164a.254.254 0 0 0-.196.084l-.798.798a.276.276 0 0 0-.084.196v1.148c0 .14.112.266.252.28l5.292.686c.518.07.924.518.924 1.036v1.736ZM119.87 900h-6.034v-9.338h6.034v1.232h-4.76v2.814h4.76v1.232h-4.76v2.828h4.76V900Zm7.933-8.106h-2.8V900h-1.274v-8.106h-2.8v-1.232h6.874v1.232Z"/>
    <path fill="#1D1D1F" stroke="#84E0F7" d="M211.5 879.5h6v-6h-6zm0 138h6v-6h-6z"/>
    <path fill="#84E0F7" d="M9 819H1v8h8z"/>
    <path stroke="#84E0F7" d="M15.5 819.5h-7v7h7z"/>
    <path fill="#fff" d="M23.065 1046.94H18.29v4.06h-1.274v-9.34h6.048v1.23H18.29v2.82h4.774v1.23Zm9.411 4.06h-1.54l-2.66-3.84a.318.318 0 0 0-.238-.12H26.19v3.96h-1.274v-9.34h5.082c.266 0 .49.1.672.28l.826.83c.196.19.308.42.308.7v1.76c0 .28-.112.52-.294.7l-.826.83a.951.951 0 0 1-.672.28h-.35l2.814 3.96Zm-1.96-5.94.014-1.42c0-.09-.042-.16-.084-.2l-.462-.46a.247.247 0 0 0-.196-.09H26.19v2.92h3.584c.084 0 .154-.03.196-.09l.462-.46a.26.26 0 0 0 .084-.2Zm11.154 3.8c0 .26-.112.5-.294.7l-1.148 1.15c-.196.19-.448.29-.7.29H36.07a.984.984 0 0 1-.7-.29l-1.148-1.15a.98.98 0 0 1-.294-.7v-5.06c0-.26.098-.5.294-.7l1.148-1.14c.196-.2.434-.3.7-.3h3.444c.266 0 .518.1.7.3l1.148 1.14c.196.2.308.44.308.7v5.06Zm-1.288-.17.014-4.72c0-.07-.042-.14-.084-.19l-.798-.8a.268.268 0 0 0-.196-.09H36.28c-.084 0-.14.03-.196.09l-.798.8a.254.254 0 0 0-.084.19v4.72c0 .07.028.14.084.2l.798.79c.056.06.112.09.196.09h3.024c.084 0 .154-.03.196-.09l.798-.79a.293.293 0 0 0 .084-.2Zm12.605 2.31H51.74v-8.15l-2.646 8.15h-1.288l-2.632-8.15v8.15h-1.26v-9.34H46l2.45 7.59 2.45-7.59h2.086v9.34Zm16.925-5.77c0 .28-.112.52-.294.7l-.826.83a.951.951 0 0 1-.672.28h-3.822v3.96h-1.274v-9.34h5.082c.266 0 .49.1.672.28l.826.83c.196.19.308.42.308.7v1.76Zm-1.288-.17.014-1.42c0-.09-.042-.16-.084-.2l-.462-.46a.247.247 0 0 0-.196-.09h-3.598v2.92h3.584c.084 0 .154-.03.196-.09l.462-.46a.26.26 0 0 0 .084-.2Z"/>
    <path fill="#828282" d="M86.59 1051h-1.54l-2.66-3.84a.318.318 0 0 0-.238-.12h-1.848v3.96H79.03v-9.34h5.082c.266 0 .49.1.672.28l.826.83c.196.19.308.42.308.7v1.76c0 .28-.112.52-.294.7l-.826.83a.951.951 0 0 1-.672.28h-.35l2.814 3.96Zm-1.96-5.94.014-1.42c0-.09-.042-.16-.084-.2l-.462-.46a.247.247 0 0 0-.196-.09h-3.598v2.92h3.584c.084 0 .154-.03.196-.09l.462-.46a.26.26 0 0 0 .084-.2Zm9.838 5.94h-6.034v-9.34h6.034v1.23h-4.76v2.82h4.76v1.23h-4.76v2.83h4.76v1.23Zm8.282-4.06h-4.774v4.06h-1.274v-9.34h6.048v1.23h-4.774v2.82h4.774v1.23Z"/>
  </g>
  <path stroke="#84E0F7" d="M1.5 819.5h427v253H1.5z"/>
  <defs>
    <clipPath id="a">
      <path fill="#fff" d="M1 37h428v142H1z"/>
    </clipPath>
    <clipPath id="b">
      <path fill="#fff" d="M214.499 588h71v142h-71z"/>
    </clipPath>
    <clipPath id="c">
      <path fill="#fff" d="M214.499 588h-71v142h71z"/>
    </clipPath>
    <clipPath id="d">
      <path fill="#fff" d="M1 819h428v254H1z"/>
    </clipPath>
  </defs>
</svg>
