<svg xmlns="http://www.w3.org/2000/svg" width="1400" height="274" fill="none" viewBox="0 0 1400 274">
  <path fill="#FCFCF4" d="M228.462 273.154V34.81l-77.254 238.344h-37.593L36.778 34.81v238.344H0V0h60.904l71.507 221.962L203.937 0h60.886v273.154h-36.361Zm107.366 0V0h176.15v36.045H373.023v82.315h138.955v36.035H373.023v82.724h138.955v36.035h-176.15ZM660.343 36.045v237.109h-37.176V36.044h-81.749V0h200.674v36.045h-81.749ZM959.08 273.154l-77.652-112.211c-2.03-2.452-4.495-3.687-6.942-3.687h-53.943v115.898h-37.195V0H931.71c7.758 0 14.302 2.87 19.613 8.192l24.107 24.166c5.728 5.73 8.991 12.287 8.991 20.478v51.593c0 8.191-3.263 15.157-8.574 20.478l-24.126 24.166c-5.311 5.322-12.253 8.183-19.612 8.183h-10.223l82.144 115.898h-44.95ZM947.226 57.749c0-2.46-1.215-4.504-2.447-5.74l-13.486-13.512c-1.631-1.635-3.263-2.452-5.728-2.452H820.542v85.175h104.624c2.447 0 4.496-.817 5.71-2.452l13.504-13.513c1.631-1.644 2.447-3.278 2.447-5.74l.399-41.766Zm79.374 215.405v-33.583h50.68V33.583h-50.68V0h138.54v33.584h-50.68V239.57h50.68v33.583H1026.6Zm334.96-8.6c-5.71 5.73-12.67 8.6-20.42 8.6h-79.71c-7.75 0-14.7-2.87-20.42-8.6l-33.52-33.584c-5.71-5.73-8.57-12.696-8.57-20.469V62.662c0-7.782 2.86-14.748 8.57-20.478L1241.01 8.6c5.72-5.73 12.67-8.6 20.42-8.6h79.71c7.75 0 14.71 2.87 20.42 8.6l38.43 38.497-25.34 25.392-33.91-33.992c-1.65-1.635-3.28-2.452-5.73-2.452h-67.43c-2.47 0-4.1.817-5.73 2.452l-23.29 23.348c-1.63 1.635-2.45 3.678-2.45 5.73v138.013c0 2.043.82 4.086 2.45 5.73l23.29 23.34c1.63 1.643 3.26 2.461 5.73 2.461h67.43c2.45 0 4.08-.818 5.73-2.461l33.49-33.993 25.76 25.392-38.43 38.497Z"/>
</svg>
