<svg xmlns="http://www.w3.org/2000/svg" width="23" height="23" fill="none" viewBox="0 0 23 23">
  <path fill="#fff" d="M13.793 2.502c.652.01 1.588.213 2.337 1.117.783.946 1.166 2.431 1.137 4.413l-.002.165-5.609-4.079.024-.065c.006-.015.58-1.552 2.077-1.552h.036Z"/>
  <path fill="#fff" d="M11.085 0c2.207 0 4.421 1.251 5.041 2.848l-.131.101c-.01-.009-.986-.864-2.104-.864-.156 0-.31.017-.458.05-1.584.358-2.013 1.767-2.124 2.356-.022.117-.047.279-.08.483-.18 1.147-.556 3.535-1.532 5.266-1.158 2.056-2.67 4.342-5.113 5.709l-.136.076.014-.162c.005-.062.533-6.265.676-8.384l.018-.278c.142-2.172.335-5.147 3.342-6.611A5.86 5.86 0 0 1 11.085 0ZM3.992 16.471l-.065.012c-.005 0-.129.022-.323.022-.52 0-1.471-.15-2.013-1.161-.527-.982-1.313-3.53 2.758-5.964l.136-.081-.493 7.172Z"/>
  <path fill="#fff" d="M.836 13.106c-.002.017-.263 1.713.633 2.746.527.607 1.209.928 1.971.928.342 0 .688-.063 1.027-.187.108-.04.252-.098.435-.172 1.02-.412 3.14-1.27 5.037-1.27h.04c2.264.014 4.897.235 7.25 1.767l.13.086-.139.07c-.053.026-5.386 2.685-7.189 3.627l-.236.124c-1.132.596-2.54 1.337-4.1 1.337-1.065 0-2.044-.338-2.99-1.034C1.31 20.103.352 18.451.076 16.595c-.21-1.407.02-2.737.611-3.558l.15.069ZM17.688 17.3c.01.014.988 1.336.196 2.71-.35.608-1.174 1.626-2.762 1.626-1.025 0-2.207-.425-3.513-1.265l-.134-.085 6.172-3.04.041.054Z"/>
  <path fill="#fff" d="M11.707 4.753c.048.036 4.845 3.66 6.502 4.864l.218.157c1.701 1.23 4.032 2.912 3.703 6.392a6.888 6.888 0 0 1-1.989 4.195c-1.019 1.024-2.266 1.635-3.335 1.635-.132 0-.26-.01-.384-.028l-.016-.17c.015-.006 1.546-.592 1.963-1.921.51-1.623-.423-2.728-.847-3.127-.085-.08-.204-.185-.355-.318-.845-.746-2.603-2.298-3.522-4.063-1.092-2.096-2.191-4.632-2.07-7.548l.007-.163.125.095Z"/>
</svg>
