<svg xmlns="http://www.w3.org/2000/svg" width="377" height="253" fill="none" viewBox="0 0 377 253">
  <path stroke="#343435" d="m.266 16 376 236m-376 0 376-236"/>
  <ellipse cx="181.978" cy="139.663" fill="#1D1D1F" stroke="#84E0F7" stroke-opacity=".2" rx="75.075" ry="152.366" transform="rotate(90 181.978 139.663)"/>
  <path stroke="#84E0F7" stroke-width="2" d="M58.002 127.734c3.044-7.655 9.212-14.991 18.243-21.586 9.039-6.6 20.751-12.314 34.5-16.787 13.745-4.472 29.22-7.604 45.544-9.208a262.114 262.114 0 0 1 49.539-.12m57.259 12.38c20.281 8.182 34.673 19.266 41.141 31.669 6.468 12.404 4.681 25.49-5.073 37.403m-75.71 35.302c-15.648 2.623-32.213 3.718-48.746 3.226-16.533-.493-32.696-2.563-47.563-6.083-14.869-3.521-28.124-8.416-39.028-14.383-10.898-5.964-19.232-12.879-24.582-20.347"/>
  <path stroke="#84E0F7" stroke-linejoin="bevel" stroke-width="2" d="m255.286 88.843-.315 3.304m.315-3.304 6.715-.624m-6.715.624 9.653 4.042m-4.238-1.774-.314 3.304m.314-3.304 6.715-.624m-6.715.624 9.653 4.042M54.98 133.789l6.107-1.487m-6.108 1.487-4.416-2.525m4.416 2.525 2.551-6.052m-1.12 2.657 6.108-1.487m-6.108 1.487-4.416-2.525m4.416 2.525 2.55-6.052m181.794 69.13-5.869-1.698m5.869 1.698-2.041 3.157m2.041-3.157-11.929 2.201m5.237-.966-5.869-1.698m5.869 1.698-2.041 3.157m2.041-3.157-11.929 2.201"/>
  <ellipse cx="181.703" cy="141.325" stroke="#84E0F7" stroke-dasharray="1.86 22.3" rx="85.048" ry="168.156" transform="rotate(90 181.703 141.325)"/>
  <path stroke="#343435" d="M197.922 106.264c3.77.028 9.173.575 13.499 3.017 4.525 2.554 6.734 6.562 6.567 11.914l-.014.445-32.391-11.012.137-.175c.032-.042 3.355-4.19 11.994-4.19l.208.001Z"/>
  <path stroke="#343435" d="M182.324 99.494c12.747 0 25.536 3.377 29.117 7.689l-.758.272c-.056-.023-5.695-2.333-12.15-2.333-.905 0-1.796.045-2.649.136-9.144.967-11.622 4.77-12.264 6.36-.128.317-.274.753-.461 1.304-1.043 3.098-3.214 9.543-8.848 14.218-6.689 5.55-15.429 11.721-29.533 15.411l-.787.206.08-.438c.03-.169 3.08-16.913 3.907-22.634l.106-.751c.815-5.864 1.93-13.895 19.298-17.847 4.645-1.057 9.673-1.593 14.942-1.593Zm-40.986 44.469-.375.031c-.03.002-.747.06-1.867.06-3 0-8.499-.407-11.629-3.135-3.042-2.651-7.579-9.527 15.93-16.101l.784-.219-2.843 19.364Z"/>
  <path stroke="#343435" d="M123.092 134.883c-.015.045-1.523 4.625 3.652 7.412 3.046 1.641 6.983 2.508 11.386 2.508 1.978 0 3.974-.17 5.933-.506.62-.106 1.455-.264 2.513-.464 5.885-1.113 18.13-3.43 29.089-3.43h.228c13.082.039 28.286.635 41.873 4.772l.758.231-.805.188c-.31.072-31.107 7.25-41.52 9.793l-1.364.335c-6.538 1.608-14.675 3.61-23.681 3.61-6.154 0-11.803-.913-17.269-2.791-8.055-2.768-13.589-7.229-15.184-12.239-1.209-3.798.112-7.388 3.531-9.604l.86.185Zm97.329 11.319c.057.035 5.706 3.607 1.133 7.316-2.021 1.639-6.781 4.389-15.953 4.389-5.923 0-12.75-1.149-20.292-3.415l-.77-.231 35.644-8.206.238.147Z"/>
  <path stroke="#343435" d="M185.869 112.333c.278.098 27.978 9.88 37.549 13.13l1.258.426c9.829 3.318 23.29 7.861 21.392 17.256-.853 4.226-4.933 8.249-11.488 11.325-5.887 2.763-13.089 4.413-19.266 4.413-.758 0-1.504-.025-2.215-.076l-.092-.46c.089-.016 8.926-1.597 11.336-5.185 2.944-4.382-2.441-7.363-4.893-8.442-.49-.216-1.177-.499-2.047-.858-4.88-2.013-15.036-6.203-20.345-10.969-6.304-5.658-12.654-12.504-11.953-20.377l.04-.439.724.256Z"/>
  <mask id="a" fill="#fff">
    <path d="M231.258 0h80v42h-80V0Z"/>
  </mask>
  <path fill="#273135" d="M231.258 0h80v42h-80V0Z"/>
  <path fill="#84E0F7" d="M231.258 42h3V0h-6v42h3Z" mask="url(#a)"/>
  <path fill="#84E0F7" d="M250.578 16.452a.864.864 0 0 1-.24.6l-.708.696a.8.8 0 0 1-.588.252h-4.356V9.996h4.344c.24 0 .432.084.6.252l.708.708a.77.77 0 0 1 .24.588v1.164a.826.826 0 0 1-.252.6l-.696.684.696.696a.8.8 0 0 1 .252.588v1.176Zm-1.092-3.852.012-.912c0-.06-.024-.12-.072-.168l-.396-.396a.218.218 0 0 0-.168-.072h-3.084v2.436h2.832a.27.27 0 0 0 .168-.072l.636-.636a.226.226 0 0 0 .072-.18Zm.012 3.708v-.9a.243.243 0 0 0-.072-.168l-.648-.648c-.048-.048-.108-.084-.168-.084h-2.832v2.436h3.072c.06 0 .132-.024.168-.072l.396-.396c.048-.048.084-.096.084-.168ZM257.672 18H252.5V9.996h5.172v1.056h-4.08v2.412h4.08v1.056h-4.08v2.424h4.08V18Zm6.799-6.948h-2.4V18h-1.092v-6.948h-2.4V9.996h5.892v1.056Zm6.127 0h-2.4V18h-1.092v-6.948h-2.4V9.996h5.892v1.056ZM277.013 18h-5.172V9.996h5.172v1.056h-4.08v2.412h4.08v1.056h-4.08v2.424h4.08V18Zm8.395 0h-1.32l-2.28-3.288a.268.268 0 0 0-.204-.108h-1.584V18h-1.092V9.996h4.356c.228 0 .42.084.576.24l.708.708c.168.168.264.36.264.6v1.512c0 .24-.096.444-.252.6l-.708.708a.808.808 0 0 1-.576.24h-.3L285.408 18Zm-1.68-5.088.012-1.224a.243.243 0 0 0-.072-.168l-.396-.396a.218.218 0 0 0-.168-.072h-3.084v2.496h3.072c.072 0 .132-.024.168-.072l.396-.396a.218.218 0 0 0 .072-.168ZM295.205 18h-5.172V9.996h1.092v6.948h4.08V18Zm7.022-4.944c0 .24-.096.444-.252.6l-.708.708a.808.808 0 0 1-.576.24h-3.276V18h-1.092V9.996h4.356c.228 0 .42.084.576.24l.708.708c.168.168.264.36.264.6v1.512Zm-1.104-.144.012-1.224a.243.243 0 0 0-.072-.168l-.396-.396a.218.218 0 0 0-.168-.072h-3.084v2.496h3.072c.072 0 .132-.024.168-.072l.396-.396a.218.218 0 0 0 .072-.168ZM251.166 32h-1.32l-2.28-3.288a.268.268 0 0 0-.204-.108h-1.584V32h-1.092v-8.004h4.356c.228 0 .42.084.576.24l.708.708c.168.168.264.36.264.6v1.512c0 .24-.096.444-.252.6l-.708.708a.808.808 0 0 1-.576.24h-.3L251.166 32Zm-1.68-5.088.012-1.224a.243.243 0 0 0-.072-.168l-.396-.396a.218.218 0 0 0-.168-.072h-3.084v2.496h3.072c.072 0 .132-.024.168-.072l.396-.396a.218.218 0 0 0 .072-.168ZM257.918 32h-5.172v-8.004h5.172v1.056h-4.08v2.412h4.08v1.056h-4.08v2.424h4.08V32Zm6.799-6.948h-2.4V32h-1.092v-6.948h-2.4v-1.056h5.892v1.056Zm6.979 5.112a.876.876 0 0 1-.252.6l-.984.984a.846.846 0 0 1-.6.252h-2.232a.826.826 0 0 1-.6-.252l-.984-.984a.826.826 0 0 1-.252-.6v-6.168h1.092v6.024c0 .06.024.12.072.168l.684.684a.218.218 0 0 0 .168.072h1.86c.072 0 .132-.024.168-.072l.684-.684a.237.237 0 0 0 .072-.168v-6.024h1.104v6.168Zm8.57 1.836h-1.32l-2.28-3.288a.268.268 0 0 0-.204-.108h-1.584V32h-1.092v-8.004h4.356c.228 0 .42.084.576.24l.708.708c.168.168.264.36.264.6v1.512c0 .24-.096.444-.252.6l-.708.708a.808.808 0 0 1-.576.24h-.3L280.266 32Zm-1.68-5.088.012-1.224a.243.243 0 0 0-.072-.168l-.396-.396a.218.218 0 0 0-.168-.072h-3.084v2.496h3.072c.072 0 .132-.024.168-.072l.396-.396a.218.218 0 0 0 .072-.168ZM287.75 32h-1.632l-3.192-6.756V32h-1.08v-8.004h1.632l3.192 6.756v-6.756h1.08V32Zm8.394-1.836a.876.876 0 0 1-.252.6l-.984.984a.846.846 0 0 1-.6.252h-3.072a.826.826 0 0 1-.6-.252l-1.128-1.128.744-.744.996.996a.218.218 0 0 0 .168.072h2.7c.072 0 .132-.024.168-.072l.684-.684c.048-.048.084-.108.084-.168v-.984c0-.132-.12-.228-.228-.24l-4.524-.588a.914.914 0 0 1-.792-.888v-1.488c0-.228.084-.432.252-.6l.984-.984a.826.826 0 0 1 .6-.252h3.06c.228 0 .444.084.6.252l1.14 1.128-.744.744-.996-.996a.237.237 0 0 0-.168-.072h-2.712a.218.218 0 0 0-.168.072l-.684.684a.237.237 0 0 0-.072.168v.984c0 .12.096.228.216.24l4.536.588c.444.06.792.444.792.888v1.488Z"/>
  <path stroke="#84E0F7" stroke-width="3" d="M232.758 28.959V81.04"/>
  <path fill="#1D1D1F" stroke="#84E0F7" stroke-width="2" d="M235.258 83.043h-5v-5h5z"/>
  <mask id="b" fill="#fff">
    <path d="M56.258 53.797h122v42h-122v-42Z"/>
  </mask>
  <path fill="#273135" d="M56.258 53.797h122v42h-122v-42Z"/>
  <path fill="#84E0F7" d="M56.258 95.797h3v-42h-6v42h3Z" mask="url(#b)"/>
  <path fill="#84E0F7" d="M77.462 71.797h-1.068v-6.984l-2.268 6.984h-1.104l-2.256-6.984v6.984h-1.08v-8.004h1.788l2.1 6.504 2.1-6.504h1.788v8.004Zm8.673 0h-1.116l-.816-2.148h-3.588l-.816 2.148h-1.092l3-8.004h1.44l2.988 8.004Zm-2.328-3.156-1.392-3.864-1.416 3.864h2.808Zm10.061 3.156h-1.32l-2.28-3.288a.268.268 0 0 0-.204-.108H88.48v3.396h-1.092v-8.004h4.356c.228 0 .42.084.576.24l.708.708c.168.168.264.36.264.6v1.512c0 .24-.096.444-.252.6l-.708.708a.808.808 0 0 1-.576.24h-.3l2.412 3.396Zm-1.68-5.088.012-1.224a.243.243 0 0 0-.072-.168l-.396-.396a.218.218 0 0 0-.168-.072H88.48v2.496h3.072c.072 0 .132-.024.168-.072l.396-.396a.218.218 0 0 0 .072-.168Zm9.008 5.088h-1.44l-3.216-3.48v3.48h-1.092v-8.004h1.092v3.48l3.252-3.48h1.404l-3.744 3.996 3.744 4.008Zm6.125 0h-5.172v-8.004h5.172v1.056h-4.08v2.412h4.08v1.056h-4.08v2.424h4.08v1.056Zm6.8-6.948h-2.4v6.948h-1.092v-6.948h-2.4v-1.056h5.892v1.056Zm4.482 4.536-3.372.012v-.912h3.372v.9Zm8.545 2.412h-1.116l-.816-2.148h-3.588l-.816 2.148h-1.092l3-8.004h1.44l2.988 8.004Zm-2.328-3.156-1.392-3.864-1.416 3.864h2.808Zm8.753 3.156h-5.172v-8.004h1.092v6.948h4.08v1.056Zm4.347 0h-4.068v-.984h1.488v-6.036h-1.488v-.984h4.068v.984h-1.488v6.036h1.488v.984Zm8.034 0h-1.044l-.228-1.14-.888.888a.8.8 0 0 1-.588.252h-2.376a.826.826 0 0 1-.6-.252l-.984-.984a.826.826 0 0 1-.252-.6v-4.332c0-.228.084-.432.252-.6l.984-.984a.826.826 0 0 1 .6-.252h2.964a.8.8 0 0 1 .588.252l1.128 1.128-.744.744-.996-.996a.218.218 0 0 0-.168-.072h-2.592a.218.218 0 0 0-.168.072l-.684.684a.237.237 0 0 0-.072.168v4.044c0 .06.024.12.072.168l.684.684a.218.218 0 0 0 .168.072h2.04c.072 0 .132-.024.168-.072l1.26-1.248a.218.218 0 0 0 .072-.168v-.936h-2.184V67.26h3.276v2.976l.312 1.56Zm7.657 0h-1.632l-3.192-6.756v6.756h-1.08v-8.004h1.632l3.192 6.756v-6.756h1.08v8.004Zm7.434 0h-5.172v-8.004h5.172v1.056h-4.08v2.412h4.08v1.056h-4.08v2.424h4.08v1.056Zm7.819-1.836a.876.876 0 0 1-.252.6l-.984.984a.846.846 0 0 1-.6.252h-4.068v-8.004h4.056c.228 0 .444.084.6.252l.984.984a.838.838 0 0 1 .264.6v4.332Zm-1.104-.144.012-4.044c0-.06-.036-.12-.072-.168l-.684-.684a.237.237 0 0 0-.168-.072h-2.796v5.892h2.784c.072 0 .132-.024.168-.072l.684-.684a.237.237 0 0 0 .072-.168ZM75.59 80.853c0 .24-.096.444-.252.6l-.708.708a.808.808 0 0 1-.576.24h-3.276v3.396h-1.092v-8.004h4.356c.228 0 .42.084.576.24l.708.708c.168.168.264.36.264.6v1.512Zm-1.104-.144.012-1.224a.243.243 0 0 0-.072-.168l-.396-.396a.218.218 0 0 0-.168-.072h-3.084v2.496h3.072c.072 0 .132-.024.168-.072l.396-.396a.218.218 0 0 0 .072-.168Zm9.037 5.088h-1.32l-2.28-3.288a.268.268 0 0 0-.204-.108h-1.584v3.396h-1.092v-8.004h4.356c.228 0 .42.084.576.24l.708.708c.168.168.264.36.264.6v1.512c0 .24-.096.444-.252.6l-.708.708a.808.808 0 0 1-.576.24h-.3l2.412 3.396Zm-1.68-5.088.012-1.224a.243.243 0 0 0-.072-.168l-.396-.396a.218.218 0 0 0-.168-.072h-3.084v2.496h3.072c.072 0 .132-.024.168-.072l.396-.396a.218.218 0 0 0 .072-.168Zm6.488 5.088h-4.068v-.984h1.488v-6.036h-1.488v-.984h4.068v.984h-1.488v6.036h1.488v.984Zm6.978-1.38-1.128 1.128a.826.826 0 0 1-.6.252h-2.34a.826.826 0 0 1-.6-.252l-.984-.984a.826.826 0 0 1-.252-.6v-4.332c0-.228.084-.432.252-.6l.984-.984a.826.826 0 0 1 .6-.252h2.34c.228 0 .432.084.6.252l1.128 1.128-.744.744-.996-.996a.218.218 0 0 0-.168-.072h-1.98a.218.218 0 0 0-.168.072l-.684.684a.237.237 0 0 0-.072.168v4.044c0 .06.024.12.072.168l.684.684a.218.218 0 0 0 .168.072h1.98c.072 0 .12-.024.168-.072l.984-.996.756.744Zm4.642 1.38h-4.068v-.984h1.488v-6.036h-1.488v-.984h4.068v.984h-1.488v6.036h1.488v.984Zm7.315 0h-1.632l-3.192-6.756v6.756h-1.08v-8.004h1.632l3.192 6.756v-6.756h1.08v8.004Zm8.885 0h-1.044l-.228-1.14-.888.888a.8.8 0 0 1-.588.252h-2.376a.826.826 0 0 1-.6-.252l-.984-.984a.826.826 0 0 1-.252-.6v-4.332c0-.228.084-.432.252-.6l.984-.984a.826.826 0 0 1 .6-.252h2.964a.8.8 0 0 1 .588.252l1.128 1.128-.744.744-.996-.996a.218.218 0 0 0-.168-.072h-2.592a.218.218 0 0 0-.168.072l-.684.684a.237.237 0 0 0-.072.168v4.044c0 .06.024.12.072.168l.684.684a.218.218 0 0 0 .168.072h2.04c.072 0 .132-.024.168-.072l1.26-1.248a.218.218 0 0 0 .072-.168v-.936h-2.184V81.26h3.276v2.976l.312 1.56Z"/>
  <path stroke="#84E0F7" stroke-width="3" d="M57.758 89.797v52.081"/>
  <path fill="#1D1D1F" stroke="#84E0F7" stroke-width="2" d="M60.258 146.096h-5v-5h5z"/>
  <mask id="c" fill="#fff">
    <path d="M265.258 98.076h104v42h-104v-42Z"/>
  </mask>
  <path fill="#273135" d="M265.258 98.076h104v42h-104v-42Z"/>
  <path fill="#84E0F7" d="M265.258 140.076h3v-42h-6v42h3Z" mask="url(#c)"/>
  <path fill="#84E0F7" d="M286.462 116.076h-1.068v-6.984l-2.268 6.984h-1.104l-2.256-6.984v6.984h-1.08v-8.004h1.788l2.1 6.504 2.1-6.504h1.788v8.004Zm8.553-1.836a.876.876 0 0 1-.252.6l-.984.984a.846.846 0 0 1-.6.252h-2.964a.826.826 0 0 1-.6-.252l-.984-.984a.826.826 0 0 1-.252-.6v-4.332c0-.228.084-.432.252-.6l.984-.984a.826.826 0 0 1 .6-.252h2.952c.228 0 .444.084.6.252l.984.984a.838.838 0 0 1 .264.6v4.332Zm-1.104-.144.012-4.044c0-.06-.036-.12-.072-.168l-.684-.684a.237.237 0 0 0-.168-.072h-2.604a.218.218 0 0 0-.168.072l-.684.684a.237.237 0 0 0-.072.168v4.044c0 .06.024.12.072.168l.684.684a.218.218 0 0 0 .168.072h2.592c.072 0 .132-.024.168-.072l.684-.684a.237.237 0 0 0 .072-.168Zm9.508 1.98h-1.32l-2.28-3.288a.268.268 0 0 0-.204-.108h-1.584v3.396h-1.092v-8.004h4.356c.228 0 .42.084.576.24l.708.708c.168.168.264.36.264.6v1.512c0 .24-.096.444-.252.6l-.708.708a.808.808 0 0 1-.576.24h-.3l2.412 3.396Zm-1.68-5.088.012-1.224a.243.243 0 0 0-.072-.168l-.396-.396a.218.218 0 0 0-.168-.072h-3.084v2.496h3.072c.072 0 .132-.024.168-.072l.396-.396a.218.218 0 0 0 .072-.168Zm8.432 5.088h-5.172v-8.004h5.172v1.056h-4.08v2.412h4.08v1.056h-4.08v2.424h4.08v1.056Zm11.44 0h-1.32l-2.28-3.288a.268.268 0 0 0-.204-.108h-1.584v3.396h-1.092v-8.004h4.356c.228 0 .42.084.576.24l.708.708c.168.168.264.36.264.6v1.512c0 .24-.096.444-.252.6l-.708.708a.808.808 0 0 1-.576.24h-.3l2.412 3.396Zm-1.68-5.088.012-1.224a.243.243 0 0 0-.072-.168l-.396-.396a.218.218 0 0 0-.168-.072h-3.084v2.496h3.072c.072 0 .132-.024.168-.072l.396-.396a.218.218 0 0 0 .072-.168Zm9.56 3.252a.876.876 0 0 1-.252.6l-.984.984a.846.846 0 0 1-.6.252h-2.964a.826.826 0 0 1-.6-.252l-.984-.984a.826.826 0 0 1-.252-.6v-4.332c0-.228.084-.432.252-.6l.984-.984a.826.826 0 0 1 .6-.252h2.952c.228 0 .444.084.6.252l.984.984a.838.838 0 0 1 .264.6v4.332Zm-1.104-.144.012-4.044c0-.06-.036-.12-.072-.168l-.684-.684a.237.237 0 0 0-.168-.072h-2.604a.218.218 0 0 0-.168.072l-.684.684a.237.237 0 0 0-.072.168v4.044c0 .06.024.12.072.168l.684.684a.218.218 0 0 0 .168.072h2.592c.072 0 .132-.024.168-.072l.684-.684a.237.237 0 0 0 .072-.168Zm8.764.144a.876.876 0 0 1-.252.6l-.984.984a.846.846 0 0 1-.6.252h-2.232a.826.826 0 0 1-.6-.252l-.984-.984a.826.826 0 0 1-.252-.6v-6.168h1.092v6.024c0 .06.024.12.072.168l.684.684a.218.218 0 0 0 .168.072h1.86c.072 0 .132-.024.168-.072l.684-.684a.237.237 0 0 0 .072-.168v-6.024h1.104v6.168Zm6.974-5.112h-2.4v6.948h-1.092v-6.948h-2.4v-1.056h5.892v1.056Zm6.415 6.948h-5.172v-8.004h5.172v1.056h-4.08v2.412h4.08v1.056h-4.08v2.424h4.08v1.056Zm7.819-1.836a.876.876 0 0 1-.252.6l-.984.984a.846.846 0 0 1-.6.252h-4.068v-8.004h4.056c.228 0 .444.084.6.252l.984.984a.838.838 0 0 1 .264.6v4.332Zm-1.104-.144.012-4.044c0-.06-.036-.12-.072-.168l-.684-.684a.237.237 0 0 0-.168-.072h-2.796v5.892h2.784c.072 0 .132-.024.168-.072l.684-.684a.237.237 0 0 0 .072-.168Zm-72.269 14.144a.876.876 0 0 1-.252.6l-.984.984a.846.846 0 0 1-.6.252h-2.964a.826.826 0 0 1-.6-.252l-.984-.984a.826.826 0 0 1-.252-.6v-4.332c0-.228.084-.432.252-.6l.984-.984a.826.826 0 0 1 .6-.252h2.952c.228 0 .444.084.6.252l.984.984a.838.838 0 0 1 .264.6v4.332Zm-1.104-.144.012-4.044c0-.06-.036-.12-.072-.168l-.684-.684a.237.237 0 0 0-.168-.072h-2.604a.218.218 0 0 0-.168.072l-.684.684a.237.237 0 0 0-.072.168v4.044c0 .06.024.12.072.168l.684.684a.218.218 0 0 0 .168.072h2.592c.072 0 .132-.024.168-.072l.684-.684a.237.237 0 0 0 .072-.168Zm9.508 1.98h-1.32l-2.28-3.288a.268.268 0 0 0-.204-.108h-1.584v3.396h-1.092v-8.004h4.356c.228 0 .42.084.576.24l.708.708c.168.168.264.36.264.6v1.512c0 .24-.096.444-.252.6l-.708.708a.808.808 0 0 1-.576.24h-.3l2.412 3.396Zm-1.68-5.088.012-1.224a.243.243 0 0 0-.072-.168l-.396-.396a.218.218 0 0 0-.168-.072h-3.084v2.496h3.072c.072 0 .132-.024.168-.072l.396-.396a.218.218 0 0 0 .072-.168Zm9.164 3.252a.876.876 0 0 1-.252.6l-.984.984a.846.846 0 0 1-.6.252h-4.068v-8.004h4.056c.228 0 .444.084.6.252l.984.984a.838.838 0 0 1 .264.6v4.332Zm-1.104-.144.012-4.044c0-.06-.036-.12-.072-.168l-.684-.684a.237.237 0 0 0-.168-.072h-2.796v5.892h2.784c.072 0 .132-.024.168-.072l.684-.684a.237.237 0 0 0 .072-.168Zm8.198 1.98h-5.172v-8.004h5.172v1.056h-4.08v2.412h4.08v1.056h-4.08v2.424h4.08v1.056Zm8.395 0h-1.32l-2.28-3.288a.268.268 0 0 0-.204-.108h-1.584v3.396h-1.092v-8.004h4.356c.228 0 .42.084.576.24l.708.708c.168.168.264.36.264.6v1.512c0 .24-.096.444-.252.6l-.708.708a.808.808 0 0 1-.576.24h-.3l2.412 3.396Zm-1.68-5.088.012-1.224a.243.243 0 0 0-.072-.168l-.396-.396a.218.218 0 0 0-.168-.072h-3.084v2.496h3.072c.072 0 .132-.024.168-.072l.396-.396a.218.218 0 0 0 .072-.168Zm8.445 1.608h-4.092v3.48h-1.092v-8.004h5.184v1.056h-4.092v2.412h4.092v1.056Zm6.759 3.48h-5.172v-8.004h1.092v6.948h4.08v1.056Zm7.418-1.836a.876.876 0 0 1-.252.6l-.984.984a.846.846 0 0 1-.6.252h-2.964a.826.826 0 0 1-.6-.252l-.984-.984a.826.826 0 0 1-.252-.6v-4.332c0-.228.084-.432.252-.6l.984-.984a.826.826 0 0 1 .6-.252h2.952c.228 0 .444.084.6.252l.984.984a.838.838 0 0 1 .264.6v4.332Zm-1.104-.144.012-4.044c0-.06-.036-.12-.072-.168l-.684-.684a.237.237 0 0 0-.168-.072h-2.604a.218.218 0 0 0-.168.072l-.684.684a.237.237 0 0 0-.072.168v4.044c0 .06.024.12.072.168l.684.684a.218.218 0 0 0 .168.072h2.592c.072 0 .132-.024.168-.072l.684-.684a.237.237 0 0 0 .072-.168Zm11.405-6.024-1.716 8.004h-1.5l-1.404-6.864-1.404 6.864h-1.488l-1.704-8.004h1.116l1.368 6.9 1.38-6.9h1.548l1.356 6.9 1.392-6.9h1.056Z"/>
  <path stroke="#84E0F7" stroke-width="3" d="M266.758 127.031v52.082"/>
  <path fill="#1D1D1F" stroke="#84E0F7" stroke-width="2" d="M269.258 181.115h-5v-5h5z"/>
</svg>
