<svg xmlns="http://www.w3.org/2000/svg" width="32" height="32" fill="none" viewBox="0 0 32 32">
  <path stroke="#343435" d="M.5.5h31v31H.5z"/>
  <path fill="#F3BA2F" d="m21.296 19.317-.002.002L16 24.614l-5.294-5.292-.003-.003 1.95-1.945L16 20.721l3.348-3.348 1.948 1.944ZM17.976 16h.002l-.002.001L16 17.977l-1.975-1.973-.003-.004.35-.349.168-.168 1.46-1.46L17.976 16Zm-6.7 0L9.33 17.947 7.383 16l1.947-1.947L11.276 16Zm13.336 0-1.946 1.947L20.719 16l1.947-1.947L24.612 16Zm-3.316-3.32-1.946 1.948L16 11.279l-3.347 3.346-1.947-1.946L16 7.385l5.295 5.295Z"/>
</svg>
