<svg xmlns="http://www.w3.org/2000/svg" width="41" height="25" fill="none" viewBox="0 0 41 25">
  <path fill="#fff" d="M10.046 0c2.606.022 4.902.644 6.826 2.437 5.125 4.772 4.96 16.397-.683 20.74-1.745 1.344-3.621 1.71-5.709 1.808C3.694 25.334.31 19.72.026 13.643-.29 6.886 2.283.267 10.046 0Z"/>
  <path fill="#1D1D1F" d="M14.55 8.55c.036.028.09.081.105.126 1.323 4.1.273 13.787-6.25 11.378-.384-.2-.788-.534-1.137-.802l4.597-6.709c.861-1.258 1.906-2.712 2.686-3.994ZM9.69 4.593c1.413-.18 2.42.37 3.515 1.14l-6.026 8.761c-.452.66-.911 1.315-1.376 1.966-.611-3.961-1.18-10.653 3.886-11.867Z"/>
  <path fill="#fff" d="M21.186 6.462h6.084c.754 1.515 1.696 2.983 2.44 4.523.373.774.276 1.518.605 1.99.257.155.141.116.489.105.458-.279.503-1.563.744-2.042.768-1.526 1.729-3.057 2.475-4.583 2.036.011 4.071.013 6.107.004-1.883 2.784-4.043 5.837-5.835 8.656.722.935 1.574 2.27 2.249 3.265l4.116 6.09h-1.492l-4.619.003c-.886-2.039-2.477-4-3.253-6.114-.159-.432-.029-.87-.37-1.278-.208-.08-.221-.068-.447-.013-.515.352-.37 1.169-.72 1.88-.925 1.882-2.05 3.667-3.032 5.526a624.02 624.02 0 0 0-6.119.004c1.837-2.486 3.473-5.265 5.285-7.783.385-.536.707-1.067 1.133-1.582-.267-.372-.536-.77-.789-1.154-1.654-2.508-3.438-4.964-5.051-7.497Z"/>
</svg>
