<svg xmlns="http://www.w3.org/2000/svg" width="140" height="30" fill="none" viewBox="0 0 140 30">
  <path fill="#fff" d="M0 7.367c.145-.256.293-.553.51-.755C1.07 6.095 7.926.84 8.333.72a.558.558 0 0 1 .443.037c.125.072.23.201.328.306-.188 1.138-.514 2.445-.76 3.587l-1.507 6.961c-.176.823-.62 2.654-.677 3.414-.023.296.5 2.498.603 2.977l1.626 7.532c.17.796.642 2.725.714 3.425-.553.448-.773.412-1.35 0-.63-.449-1.236-.931-1.85-1.403L2.43 24.858a64.93 64.93 0 0 0-1.348-1.03C.49 23.388.368 23.26 0 22.636V7.366Z"/>
  <path fill="#fff" d="M8.432 16.88c.59.23 1.212.66 1.763.992.592.35 1.187.692 1.785 1.029l5.189 3.017c.566.325 1.132.627 1.714.923.38.194.952.465.86.974-.301.469-1.77 1.513-2.313 1.929l-4.984 3.796c-.105.081-.342.246-.387.352.116.033.279.073.389.113H10.88c.178-.04.24-.053.41-.13-.41-1.267-.578-2.275-.859-3.573l-1.412-6.797c-.15-.7-.386-1.96-.587-2.624ZM11.451 0h.465c.962.854 7.517 5.541 7.803 6.116.052.105.037.257-.006.364-.08.195-.32.328-.49.437-.574.37-1.188.693-1.78 1.033l-4.046 2.3-2.783 1.602c-.71.417-1.422.879-2.173 1.212.225-.751.43-1.914.605-2.71l1.475-7.066c.197-.908.38-1.879.623-2.775.058-.21.166-.35.307-.513Zm8.803 8.556c.557-.09.783.19.782.712-.004 3.804-.022 7.608-.02 11.412 0 .15-.013.384-.068.528-.081.213-.452.323-.657.257-.667-.299-1.311-.703-1.948-1.068l-4.642-2.702c-1.562-.9-3.196-1.76-4.713-2.698.529-.292 1.064-.652 1.604-.948 2.68-1.474 5.275-3.125 7.97-4.559.574-.305 1.103-.646 1.692-.934Zm110.028 4.051c.404-.374.815-.703 1.301-.965a5.51 5.51 0 0 1 4.223-.413c1.917.589 3.168 2.152 3.59 4.077.075.346.137 1.03.283 1.277v.137c-.091.112-.321 1.572-.423 1.91-1.131 3.791-5.786 5.145-8.718 2.397l-.021 5.256c-.819.04-1.6.016-2.419-.002-.052-1.61-.007-3.523-.005-5.153l.009-9.9c.795.003 1.461.022 2.253.077-.052.396-.058.894-.073 1.302Z"/>
  <path fill="#1D1D1F" d="M133.45 13.152a3.087 3.087 0 0 1 2.014.47 3.413 3.413 0 0 1 1.495 2.153c.477 2.134-.521 3.986-2.704 4.459-1.878.119-3.34-.708-3.69-2.63-.418-2.293.588-4.013 2.885-4.451Z"/>
  <path fill="#fff" d="m53.78 5.295 2.115.03-.007 7.04c1.579-1.137 2.916-1.642 4.897-1.277 4.568.844 5.375 6.97 2.502 10.006-2.151 1.893-5.556 1.89-7.471-.345l-.036 1.453-2.217.007-.006-12.346c0-.615-.044-4.106.062-4.494l.16-.074Z"/>
  <path fill="#1D1D1F" d="M58.748 13.15c4.681-.422 5.248 6.258 1.113 7.052-.875.078-1.62.058-2.393-.402-1.987-1.185-2.095-4.575-.286-5.962.534-.41.918-.545 1.566-.688Z"/>
  <path fill="#fff" d="M106.27 10.98c.286-.024.352-.031.629.028.327.276 3.066 6.307 3.489 7.258.792-2.22 1.882-4.821 2.78-7.045.819-.08 1.712-.059 2.533-.003l-3.211 7.294c-.497 1.15-1.118 2.69-1.71 3.811-.084.159-.222.18-.37.2-.241-.126-.495-.466-.622-.706-1.114-2.108-1.955-4.342-3.166-6.404l-.093-.027c-.417.289-2.092 4.36-2.487 5.062-.379.672-.613 2.145-1.624 1.991-.492-.307-4.297-9.695-4.951-11.28.805.002 1.61.016 2.415.043.938 2.34 1.999 4.785 2.879 7.127.662-1.339 1.297-2.69 1.905-4.054.384-.862 1.082-2.574 1.604-3.295Zm-34.668.033c1.749-.11 3.325.149 4.525 1.56 1.268 1.49 1.269 2.946 1.13 4.787-2.338.166-5.844.051-8.283.068.246.683.396 1.196.878 1.75 1.052 1.208 2.767 1.442 4.232.942.657-.224 1.056-.498 1.581-.944l.13.005c.352.345.84 1.058 1.146 1.478-3.369 3.322-9.419 1.924-10.228-2.951-.557-3.357 1.5-6.162 4.89-6.695Z"/>
  <path fill="#1D1D1F" d="M71.74 13.002c2.113-.198 2.971.743 3.398 2.67l-2.574.017-3.497.004c.386-1.483 1.157-2.355 2.674-2.69Z"/>
  <path fill="#fff" d="M29.467 7.345c.834-.01 1.566-.003 2.399.034-.14 1.578-.051 5.195-.038 6.882 2.042-1.737 4.36-5.096 6.305-6.78.897-.208 1.962-.165 2.873-.054-.676.88-1.597 1.877-2.347 2.725a288.62 288.62 0 0 1-3.748 4.174c1.172 1.492 3.192 3.609 4.527 5.134.866.993 1.401 1.737 2.138 2.834-.686-.13-1.931-.098-2.674-.1-1.233-1.076-3.01-3.455-4.227-4.748-.663-.704-2.343-2.484-2.843-3.183l-.004 7.93-2.36.02a36.173 36.173 0 0 1-.029-1.926c.052-4.301-.088-8.645.028-12.942Zm91.105 3.67c2.101-.147 4.688.711 4.952 3.156.277 2.557.129 5.484.12 8.09l-2.211-.038c.007-.374.042-.778.068-1.154-2.159 1.817-5.675 2.2-7.114-.627-1.308-4 2.927-4.486 5.66-4.28.389.03.896-.003 1.299-.004-.043-1.358-.209-2.848-1.892-3.079-1.447-.199-2.583.755-3.649 1.59-.394-.442-.824-.869-1.239-1.292.951-1.51 2.269-2.133 4.006-2.362Z"/>
  <path fill="#1D1D1F" d="M121.215 17.793c.675-.009 1.434.023 2.115.036-.198 1.661-.855 2.508-2.519 2.81-1.117-.013-3.097-.539-1.938-2.217.42-.608 1.631-.61 2.342-.63Z"/>
  <path fill="#fff" d="M91.305 7.194c2.566-.232 4.06.468 5.605 2.499-.471.514-1.083.933-1.648 1.342-.77-.954-1.785-1.73-3.055-1.773-1.045-.036-2.405.51-2.386 1.741.007.472.198.922.53 1.257 1.8 1.807 6.834 1.987 6.795 5.77-.033 3.26-2.429 4.407-5.345 4.431-2.403-.156-4.025-1.168-5.153-3.271l.018-.013c.571-.42.922-.77 1.437-1.26.48.539.906 1.005 1.454 1.48 1.162 1.04 3.71 1.376 4.741.022 1.718-2.162-1.602-3.33-3.206-4-2.89-1.206-4.875-3.48-2.939-6.582.598-.957 2.046-1.483 3.152-1.643Zm-50.387 3.994c.82-.027 1.64-.03 2.46-.007.445.999.844 2.118 1.257 3.14.651 1.612 1.312 3.21 1.867 4.857 1.183-2.43 2.336-5.435 3.36-7.969.773-.076 1.714-.046 2.488.016-1.098 2.758-2.415 5.52-3.612 8.251-1.867 4.211-2.144 7.685-7.614 6.919-.051-.71-.032-1.314-.016-2.025 2.37.071 3.424-.125 4.11-2.668-.28-.906-.828-2.15-1.207-3.041l-1.976-4.608c-.263-.616-1.003-2.279-1.117-2.865Zm40.81 1.381c1.468-1.234 2.293-1.537 4.251-1.422l.008 2.046c-2.83.409-3.914.67-3.924 3.8l-.007 5.208-2.44.013c-.093-3.506-.023-7.52-.001-11.047.804-.004 1.464-.011 2.261.07-.032.42-.1.907-.148 1.332Z"/>
</svg>
