<svg xmlns="http://www.w3.org/2000/svg" width="74" height="22" fill="none" viewBox="0 0 74 22">
  <path fill="#fff" d="M.285 21.94c.736.064 2.004.025 2.783.026h13.53c1.48 0 2.96.007 4.439-.008.496-.005.898.038.906-.578.018-1.527.01-3.055.01-4.582V2.871c0-.786.011-1.622-.014-2.41-.006-.191-.135-.287-.274-.401a4.76 4.76 0 0 0-.402-.03c-1.234-.034-2.609-.005-3.855-.005L3.975.024C2.908.024 1.838.014.772.038.317.05.022.065.012.615c-.017 1.142-.01 2.286-.01 3.428V17.77c0 1.237-.008 2.487.01 3.723.002.221.115.302.273.448Zm13.396-7.289c-1.983 0-3.972-.004-5.955-.006-.184-.08-.244-.088-.358-.255-.101-.515-.063-2.123-.046-2.712.038-1.323-.138-2.935.157-4.193.053-.226 3.472-.154 3.872-.146.937.02 1.962-.046 2.883.013.169.089.291.145.35.342.092.302.086 5.494.044 6.21a1.979 1.979 0 0 1-.096.533c-.173.181-.606.214-.851.214Zm12.186 7.283c.881.072 6.414.142 6.922-.114.27-.59.13-6.102.13-7.152h4.864c.541 0 1.554.093 2.06-.025a.476.476 0 0 0 .321-.232c.135-.233.131-6.334-.01-6.801-.302-.388-1.422-.281-1.91-.28l-3.498.014c-.384.002-1.452.03-1.783-.034l-.046-.085c0-.952.086-6.44-.115-7.018-.246-.218-1.048-.23-1.376-.185-.558.078-5.597-.148-5.678.154-.238.886-.14 2.917-.14 3.898l.001 6.1v7.167c-.002 1.265-.008 2.536-.002 3.8.002.356.005.554.26.793Zm25.616 0c.128.01.257.018.385.023.569.02 1.175.013 1.745.008 1.485-.014 2.981.041 4.463-.033.278-.014.437-.22.442-.482.039-1.998.013-4 .019-5.998 0-.398.012-.508-.28-.79l-.05-.003c-.684-.043-6.647-.092-6.814.1-.12.14-.15.417-.166.594-.07.75-.017 1.553-.018 2.309-.001 1.201-.03 2.411.004 3.612.008.317.034.435.27.66Zm14.623 0c.49.047 1.044.028 1.54.03 1.497 0 2.996.009 4.493.001.384-.014.997.054 1.006-.497.034-2.09.022-4.183.01-6.273-.002-.306-.074-.341-.285-.535-.693-.046-6.677-.094-6.853.102-.124.14-.15.432-.165.612-.058.667-.016 1.37-.017 2.04l.001 3.686c.003.448-.037.53.27.834ZM51.488 7.324c.648.04 6.717.073 6.848-.069.133-.144.162-.464.18-.652.067-.735.018-1.517.019-2.256 0-1.203.025-2.413-.003-3.616-.008-.33-.033-.45-.275-.681-.95-.08-2.522-.007-3.507-.03-.582-.015-2.872-.038-3.334.08-.121.14-.19.497-.192.678-.033 1.955-.013 3.915-.015 5.871 0 .361.018.424.28.675Zm14.619-.001c.65.047 1.4.017 2.057.018 1.484 0 2.973.019 4.455-.019.299-.007.485-.134.522-.443.038-2.08.019-4.17.013-6.25 0-.338-.045-.365-.279-.581l-.058-.005c-.679-.049-6.632-.096-6.803.1-.18.206-.177.725-.18.993l-.003 3.955c0 .58-.016 1.263.025 1.845.01.152.143.277.25.387ZM40.516 21.94c.094.007.19.012.284.017 1.748.077 3.577-.037 5.332.01.314.01 1.048.03 1.273-.177.068-.185.124-.415.126-.613.02-2.019.029-4.042-.001-6.06-.004-.234-.112-.315-.28-.458-.885-.053-6.246-.104-6.829.07-.107.157-.174.539-.176.734-.022 2.02-.029 4.047.001 6.067.003.201.128.291.27.41Zm-.019-14.62.2.014c.222.013 1.258.024 1.419.008.67-.066 4.957.15 5.284-.137.129-.361.151-.708.145-1.151-.025-1.89.057-3.84-.038-5.725-.003-.058-.169-.225-.217-.274l-.084-.01c-.2-.02-1.316-.038-1.495-.022-.695.063-4.993-.143-5.33.131-.11.306-.144.62-.144.946.005 1.952-.028 3.91.015 5.861.002.126.159.27.245.358Zm18.414 7.327 4.154.005c.508 0 2.392.116 2.679-.236.058-.176.094-.354.098-.54.03-1.633-.039-3.265.009-4.897.012-.427.041-.86-.052-1.279-.044-.196-.161-.264-.32-.36l-4.11-.01c-.64 0-2.246-.098-2.747.211-.07.146-.081.279-.092.44-.047.704-.038 6.06.053 6.336.06.184.168.245.328.33Z"/>
</svg>
