<svg xmlns="http://www.w3.org/2000/svg" width="14" height="14" fill="none" viewBox="0 0 14 14">
  <path fill="#fff" fill-opacity=".2" d="M8.658 1.574c.41.006.997.133 1.467.701.492.594.732 1.526.714 2.77l-.002.103-3.52-2.56.015-.04c.003-.01.364-.975 1.303-.975h.023Z"/>
  <path fill="#fff" fill-opacity=".2" d="M6.963 0c1.385 0 2.775.785 3.164 1.787l-.082.064c-.006-.006-.62-.543-1.32-.543-.1 0-.196.01-.289.032-.993.225-1.263 1.109-1.333 1.478-.013.074-.03.175-.05.304-.113.72-.35 2.218-.961 3.305-.727 1.29-1.677 2.724-3.21 3.582l-.086.048.009-.102c.003-.039.335-3.932.425-5.261l.011-.175c.089-1.363.21-3.23 2.098-4.149A3.68 3.68 0 0 1 6.963 0ZM2.508 10.337l-.04.008c-.004 0-.082.013-.204.013-.326 0-.923-.094-1.264-.728-.33-.617-.823-2.215 1.732-3.743l.085-.051-.309 4.501Z"/>
  <path fill="#fff" fill-opacity=".2" d="M.525 8.227c-.002.01-.166 1.075.397 1.723.33.381.759.583 1.237.583.215 0 .432-.04.645-.118.068-.025.158-.061.273-.108.64-.259 1.97-.797 3.162-.797h.025c1.421.009 3.074.148 4.55 1.11l.083.053-.088.043a450.52 450.52 0 0 0-4.512 2.277l-.148.078c-.711.374-1.595.84-2.574.84-.669 0-1.283-.213-1.877-.65-.875-.643-1.477-1.68-1.65-2.845C-.084 9.533.06 8.7.432 8.184l.093.043Zm10.578 2.631c.006.008.62.838.123 1.7-.22.382-.737 1.02-1.734 1.02-.643 0-1.385-.266-2.205-.793l-.084-.054 3.874-1.907.026.034Z"/>
  <path fill="#fff" fill-opacity=".2" d="M7.348 2.984c.03.023 3.04 2.297 4.08 3.053l.137.099c1.069.771 2.532 1.827 2.325 4.011a4.323 4.323 0 0 1-1.248 2.633c-.64.642-1.423 1.026-2.094 1.026-.082 0-.163-.006-.24-.018l-.01-.107c.009-.004.97-.371 1.231-1.205.32-1.019-.265-1.712-.531-1.963-.054-.05-.128-.116-.223-.199-.53-.468-1.634-1.442-2.211-2.55-.685-1.315-1.375-2.907-1.3-4.737l.005-.102.079.06Z"/>
</svg>
