<svg xmlns="http://www.w3.org/2000/svg" width="1400" height="335" fill="none" viewBox="0 0 1400 335">
  <g opacity=".1">
    <path fill="#1D1D1F" d="M.008 0h1399.99v273.154H.008z"/>
    <path fill="#FCFCF4" d="M228.47 273.156V34.811l-77.254 238.345h-37.594L36.786 34.811v238.345H.008V.002h60.904l71.507 221.962L203.945.002h60.886v273.154H228.47Zm107.366 0V.002h176.15v36.045H373.031v82.315h138.955v36.035H373.031v82.724h138.955v36.035h-176.15ZM660.351 36.047v237.109h-37.177V36.046h-81.748V.003H742.1v36.045h-81.749Zm298.737 237.109-77.652-112.211c-2.03-2.452-4.495-3.687-6.942-3.687H820.55v115.898h-37.195V.002h148.363c7.758 0 14.301 2.87 19.612 8.191l24.108 24.166c5.728 5.73 8.991 12.288 8.991 20.48v51.591c0 8.192-3.263 15.158-8.574 20.479l-24.126 24.166c-5.311 5.322-12.253 8.183-19.612 8.183h-10.223l82.146 115.898h-44.952ZM947.234 57.751c0-2.46-1.215-4.504-2.447-5.74L931.301 38.5c-1.631-1.635-3.263-2.452-5.728-2.452H820.55v85.175h104.624c2.447 0 4.495-.817 5.71-2.452l13.504-13.513c1.631-1.644 2.447-3.278 2.447-5.74l.399-41.766Zm79.376 215.405v-33.583h50.68V33.585h-50.68V.002h138.54v33.584h-50.68v205.987h50.68v33.583h-138.54Zm334.96-8.6c-5.71 5.73-12.67 8.6-20.43 8.6h-79.7c-7.76 0-14.7-2.87-20.43-8.6l-33.51-33.584c-5.71-5.73-8.57-12.696-8.57-20.469V62.664c0-7.782 2.86-14.748 8.57-20.478l33.51-33.584c5.73-5.73 12.67-8.6 20.43-8.6h79.7c7.76 0 14.72 2.87 20.43 8.6L1400 47.1l-25.34 25.392-33.92-33.992c-1.64-1.635-3.28-2.452-5.72-2.452h-67.43c-2.47 0-4.1.817-5.73 2.452l-23.29 23.348c-1.63 1.635-2.45 3.678-2.45 5.73V205.59c0 2.043.82 4.086 2.45 5.73l23.29 23.339c1.63 1.644 3.26 2.462 5.73 2.462h67.43c2.44 0 4.08-.818 5.72-2.462l33.5-33.992 25.76 25.392-38.43 38.497Z"/>
  </g>
  <path fill="#1D1D1F" d="M0 74.386h1399.7v296.787H0z"/>
  <path fill="#fff" d="M228.469 371.05V132.705L151.216 371.05h-37.594L36.785 132.705V371.05H.008V97.896H60.91l71.508 221.961 71.526-221.962h60.885V371.05h-36.361Zm107.367 0V97.896h176.15v36.044H373.031v82.315h138.955v36.036H373.031v82.723h138.955v36.036h-176.15Zm324.515-237.11v237.11h-37.176V133.94h-81.749V97.896H742.1v36.044h-81.749Zm298.737 237.11-77.652-112.212c-2.03-2.452-4.495-3.687-6.942-3.687H820.55V371.05h-37.195V97.896h148.363c7.758 0 14.301 2.869 19.612 8.191l24.108 24.166c5.728 5.73 8.991 12.287 8.991 20.479v51.592c0 8.192-3.263 15.157-8.574 20.479l-24.126 24.166c-5.311 5.322-12.253 8.182-19.612 8.182h-10.223l82.146 115.899h-44.952Zm-11.854-215.405c0-2.461-1.215-4.504-2.447-5.74l-13.486-13.513c-1.631-1.635-3.263-2.452-5.728-2.452H820.55v85.176h104.624c2.447 0 4.495-.818 5.71-2.452l13.504-13.513c1.631-1.644 2.447-3.279 2.447-5.74l.399-41.766Zm79.376 215.405v-33.584h50.68V131.479h-50.68V97.895h138.53v33.584h-50.68v205.987h50.68v33.584h-138.53Zm334.97-8.601c-5.71 5.731-12.67 8.601-20.43 8.601h-79.7c-7.76 0-14.7-2.87-20.43-8.601l-33.52-33.583c-5.71-5.73-8.57-12.696-8.57-20.47V160.558c0-7.783 2.86-14.748 8.57-20.479l33.52-33.583c5.73-5.731 12.67-8.6 20.43-8.6h79.7c7.76 0 14.72 2.869 20.43 8.6l38.42 38.496-25.34 25.392-33.91-33.992c-1.65-1.635-3.28-2.452-5.73-2.452h-67.43c-2.46 0-4.09.817-5.73 2.452l-23.29 23.349c-1.63 1.634-2.45 3.678-2.45 5.73v138.012c0 2.044.82 4.087 2.45 5.731l23.29 23.339c1.64 1.644 3.27 2.461 5.73 2.461h67.43c2.45 0 4.08-.817 5.73-2.461l33.5-33.992 25.75 25.392-38.42 38.496Z" opacity=".4"/>
  <path fill="#1D1D1F" d="M0 170.376h1399.7v296.787H0z"/>
  <path fill="#FCFCF4" d="M228.469 467.04V228.695L151.216 467.04h-37.594L36.785 228.695V467.04H.008V193.886H60.91l71.508 221.961 71.526-221.961h60.885V467.04h-36.361Zm107.367 0V193.886h176.15v36.044H373.031v82.315h138.955v36.036H373.031v82.724h138.955v36.035h-176.15Zm324.515-237.11v237.11h-37.176V229.93h-81.749v-36.044H742.1v36.044h-81.749Zm298.737 237.11-77.652-112.211c-2.03-2.452-4.495-3.687-6.942-3.687H820.55V467.04h-37.195V193.886h148.363c7.758 0 14.301 2.869 19.612 8.191l24.108 24.166c5.728 5.731 8.991 12.288 8.991 20.479v51.592c0 8.192-3.263 15.157-8.574 20.479l-24.126 24.166c-5.311 5.322-12.253 8.183-19.612 8.183h-10.223l82.146 115.898h-44.952Zm-11.854-215.405c0-2.461-1.215-4.504-2.447-5.739l-13.486-13.514c-1.631-1.634-3.263-2.452-5.728-2.452H820.55v85.176h104.624c2.447 0 4.495-.817 5.71-2.452l13.504-13.513c1.631-1.644 2.447-3.279 2.447-5.74l.399-41.766Zm79.376 215.405v-33.583h50.68V227.469h-50.68v-33.583h138.53v33.583h-50.68v205.988h50.68v33.583h-138.53Zm334.97-8.6c-5.71 5.73-12.67 8.6-20.43 8.6h-79.7c-7.76 0-14.7-2.87-20.43-8.6l-33.52-33.584c-5.71-5.73-8.57-12.696-8.57-20.47V256.548c0-7.783 2.86-14.748 8.57-20.479l33.52-33.583c5.73-5.731 12.67-8.6 20.43-8.6h79.7c7.76 0 14.72 2.869 20.43 8.6l38.42 38.497-25.34 25.392-33.91-33.993c-1.65-1.634-3.28-2.452-5.73-2.452h-67.43c-2.46 0-4.09.818-5.73 2.452l-23.29 23.349c-1.63 1.635-2.45 3.678-2.45 5.73v138.012c0 2.044.82 4.087 2.45 5.731l23.29 23.339c1.64 1.644 3.27 2.461 5.73 2.461h67.43c2.45 0 4.08-.817 5.73-2.461l33.5-33.992 25.75 25.392-38.42 38.497Z"/>
</svg>
