<svg xmlns="http://www.w3.org/2000/svg" width="335" height="112" fill="none" viewBox="0 0 335 112">
  <g opacity=".1">
    <path fill="#1D1D1F" d="M0 0h334.928v65.348H0z"/>
    <path fill="#FCFCF4" d="M54.656 65.348V8.328l-18.482 57.02h-8.993L8.799 8.328v57.02H0V0h14.57l17.107 53.101L48.79 0h14.566v65.348h-8.699Zm25.684 0V0h42.141v8.623H89.238v19.693h33.243v8.62H89.238v19.791h33.243v8.621H80.34Zm77.638-56.725v56.725h-8.893V8.623h-19.558V0h48.009v8.623h-19.558Zm71.466 56.725-18.577-26.845c-.486-.586-1.076-.882-1.661-.882h-12.905v27.727h-8.899V0h35.494c1.856 0 3.421.687 4.692 1.96l5.767 5.781c1.371 1.371 2.151 2.94 2.151 4.9v12.342c0 1.96-.78 3.626-2.051 4.9l-5.772 5.78a6.572 6.572 0 0 1-4.692 1.958h-2.445l19.652 27.727h-10.754Zm-2.836-51.532c0-.59-.291-1.078-.586-1.373l-3.226-3.233c-.39-.391-.78-.587-1.37-.587h-25.125V29h25.029c.586 0 1.076-.195 1.366-.587l3.231-3.232c.39-.394.585-.785.585-1.373l.096-9.992Zm18.99 51.532v-8.034h12.124V8.034h-12.124V0h33.143v8.034h-12.125v49.28h12.125v8.034h-33.143Zm80.137-2.058c-1.366 1.372-3.031 2.058-4.887 2.058H301.78c-1.856 0-3.516-.686-4.887-2.057l-8.018-8.035c-1.366-1.37-2.051-3.037-2.051-4.897V14.991c0-1.862.685-3.528 2.051-4.9l8.018-8.034C298.264.687 299.924 0 301.78 0h19.068c1.856 0 3.521.687 4.887 2.057l9.193 9.21-6.062 6.075-8.114-8.132c-.394-.391-.785-.587-1.37-.587h-16.131c-.59 0-.98.196-1.371.587l-5.572 5.585c-.39.392-.585.88-.585 1.371v33.018c0 .489.195.977.585 1.37l5.572 5.584c.391.394.781.59 1.371.59h16.131c.585 0 .976-.197 1.37-.59l8.014-8.132 6.162 6.075-9.193 9.21Z"/>
  </g>
  <path fill="#1D1D1F" d="M0 17.796h334.857v71.002H0z"/>
  <path fill="#fff" d="M54.656 88.767v-57.02l-18.482 57.02h-8.993L8.799 31.747v57.02H0V23.419h14.57L31.677 76.52 48.79 23.419h14.566v65.348h-8.699Zm25.684 0V23.419h42.141v8.623H89.238v19.693h33.243v8.62H89.238v19.791h33.243v8.621H80.34Zm77.638-56.725v56.725h-8.893V32.042h-19.558V23.42h48.009v8.623h-19.558Zm71.466 56.725-18.577-26.845c-.486-.586-1.076-.882-1.661-.882h-12.905v27.727h-8.899V23.419h35.494c1.856 0 3.421.686 4.692 1.96l5.767 5.781c1.371 1.37 2.151 2.94 2.151 4.9v12.342c0 1.96-.78 3.626-2.051 4.9l-5.772 5.78a6.572 6.572 0 0 1-4.692 1.958h-2.445l19.652 27.727h-10.754Zm-2.836-51.532c0-.59-.291-1.078-.586-1.373l-3.226-3.233c-.39-.391-.78-.587-1.37-.587h-25.125V52.42h25.029c.586 0 1.076-.195 1.366-.586l3.231-3.233c.39-.394.585-.785.585-1.373l.096-9.992Zm18.99 51.532v-8.034h12.124v-49.28h-12.124V23.42h33.143v8.034h-12.125v49.28h12.125v8.034h-33.143Zm80.141-2.057c-1.366 1.37-3.031 2.057-4.887 2.057h-19.068c-1.856 0-3.516-.687-4.887-2.057l-8.018-8.035c-1.366-1.37-2.051-3.037-2.051-4.897V38.41c0-1.862.685-3.528 2.051-4.9l8.018-8.034c1.371-1.37 3.031-2.057 4.887-2.057h19.068c1.856 0 3.521.686 4.887 2.057l9.193 9.21-6.062 6.075-8.114-8.132c-.394-.391-.785-.587-1.37-.587h-16.132c-.589 0-.98.196-1.37.587l-5.572 5.586c-.39.39-.586.88-.586 1.37v33.018c0 .489.196.977.586 1.37l5.572 5.584c.39.394.781.589 1.37.589h16.132c.585 0 .976-.195 1.37-.589l8.014-8.132 6.162 6.075-9.193 9.21Z" opacity=".4"/>
  <path fill="#1D1D1F" d="M0 40.76h334.857v71.002H0z"/>
  <path fill="#FCFCF4" d="M54.656 111.732v-57.02l-18.482 57.02h-8.993L8.799 54.712v57.02H0V46.384h14.57l17.107 53.1 17.112-53.1h14.566v65.348h-8.699Zm25.684 0V46.384h42.141v8.623H89.238V74.7h33.243v8.62H89.238v19.791h33.243v8.621H80.34Zm77.638-56.725v56.725h-8.893V55.007h-19.558v-8.623h48.009v8.623h-19.558Zm71.466 56.725-18.577-26.845c-.486-.587-1.076-.882-1.661-.882h-12.905v27.727h-8.899V46.384h35.494c1.856 0 3.421.686 4.692 1.96l5.767 5.78c1.371 1.372 2.151 2.94 2.151 4.9v12.343c0 1.96-.78 3.626-2.051 4.899l-5.772 5.781a6.572 6.572 0 0 1-4.692 1.958h-2.445l19.652 27.727h-10.754ZM226.608 60.2c0-.59-.291-1.078-.586-1.374l-3.226-3.233c-.39-.39-.78-.586-1.37-.586h-25.125v20.377h25.029c.586 0 1.076-.196 1.366-.587l3.231-3.233c.39-.393.585-.784.585-1.373l.096-9.992Zm18.99 51.532v-8.034h12.124v-49.28h-12.124v-8.034h33.143v8.034h-12.125v49.28h12.125v8.034h-33.143Zm80.141-2.058c-1.366 1.371-3.031 2.058-4.887 2.058h-19.068c-1.856 0-3.516-.687-4.887-2.058l-8.018-8.034c-1.366-1.371-2.051-3.037-2.051-4.897V61.375c0-1.862.685-3.529 2.051-4.9l8.018-8.034c1.371-1.37 3.031-2.057 4.887-2.057h19.068c1.856 0 3.521.686 4.887 2.057l9.193 9.21-6.062 6.075-8.114-8.133c-.394-.39-.785-.586-1.37-.586h-16.132c-.589 0-.98.196-1.37.587l-5.572 5.585c-.39.391-.586.88-.586 1.371v33.018c0 .488.196.977.586 1.37l5.572 5.584c.39.393.781.589 1.37.589h16.132c.585 0 .976-.196 1.37-.589l8.014-8.132 6.162 6.075-9.193 9.209Z"/>
</svg>
