<svg xmlns="http://www.w3.org/2000/svg" width="157" height="24" fill="none" viewBox="0 0 157 24">
  <path fill="#fff" fill-rule="evenodd" d="M2.576.05c9.077-.11 18.38-.006 27.475-.003a167.086 167.086 0 0 0-2.85 4.347l5.447.008c-1.036 3.101-1.34 7.346-5.426 7.128-.335-.018-.688-.012-1.026-.022-.442 1.561-1.03 3.283-1.526 4.842-1.964 6.499-2.693 5.363-9.27 5.48-1.05.018-2.29.059-3.324-.081a4.81 4.81 0 0 1-1.566-.488c-1.437-.753-1.84-2.688-2.3-4.13-.598-1.869-1.18-3.756-1.766-5.629C1.226 11.774 1.302 8.577 0 4.395c1.795-.034 3.681 0 5.483.008A334.671 334.671 0 0 0 2.576.05Zm9.466 7.255c-1.229.59-1.94 1.759-1.305 3.083.242.501.678.882 1.207 1.054.267.089.662.107.943.1 2.53-1.31 1.777-4.37-.845-4.237Zm7.728-.003c-1.246.608-2.004 1.785-1.311 3.136.25.483.683.846 1.201 1.01.26.084.669.1.942.087 2.434-1.303 1.863-4.273-.832-4.233Z" clip-rule="evenodd"/>
  <path fill="#fff" d="m68.897 2.443 3.33-.014c.735 3.042 1.669 6.064 2.388 9.112.204.867.403 1.727.666 2.58.209-1.337.765-3.255 1.124-4.594l1.908-7.095 3.296-.002c1.152 3.774 2.093 7.895 3.164 11.723.689-3.613 1.988-8.095 2.944-11.725l3.298.01a434.82 434.82 0 0 1-1.164 4.27c-.993 4.097-2.455 8.41-3.373 12.507l-3.395-.006c-.935-3.995-2.266-7.963-3.076-12.02-.942 3.802-2.062 8.332-3.201 12.046-.936-.063-2.313-.021-3.281-.021C71.879 13.747 70.5 7.97 68.896 2.443Zm81.954 4.644c5.855-.517 7.524 7.22 4.119 10.781-2.166 2.264-4.771 1.89-6.837-.209l.004 3.824.001 2.496-3.236-.002-.002-16.792c1.071.01 2.159 0 3.232-.001l.017 1.482c.931-1.03 1.358-1.285 2.702-1.579Z"/>
  <path fill="#1D1D1F" d="M150.267 10.29c.474-.041.875-.034 1.328.123a2.73 2.73 0 0 1 1.623 1.472 3.16 3.16 0 0 1 .073 2.41c-.4 1.03-.986 1.418-1.949 1.833-.427.043-.973.012-1.376-.136a2.774 2.774 0 0 1-1.566-1.458 3.189 3.189 0 0 1-.076-2.414c.388-1.037.993-1.41 1.943-1.83Z"/>
  <path fill="#fff" d="M127.576 7.18c1.062.023 2.173.009 3.238.012a132.653 132.653 0 0 1-1.096 3.306c-.63 2.38-2.049 6.252-2.858 8.71l-3.048.001c-.741-2.524-1.668-5.248-2.476-7.767-.694 2.473-1.672 5.301-2.472 7.776l-3.01-.004c-1.153-3.843-2.694-8.176-3.964-12.025l3.27.01c.712 2.573 1.583 5.032 2.245 7.664.571-2.245 1.684-5.365 2.422-7.67l3.034.014c.792 2.553 1.656 5.07 2.443 7.643.559-2.366 1.535-5.313 2.272-7.67ZM47.108 2.353c4.473-.249 7.145 1.988 8.376 6.135-1.096-.02-2.241 0-3.342.002-.715-1.934-2.376-3.028-4.428-2.947a5.019 5.019 0 0 0-3.621 1.72 5.344 5.344 0 0 0-1.366 3.9 5.316 5.316 0 0 0 1.869 3.74c2.2 1.868 5.198 1.637 7.057-.584l.5-1.033c1.098-.015 2.233-.05 3.325.026-.7 3.25-2.926 5.437-6.246 5.948a8.273 8.273 0 0 1-6.246-1.533 8.627 8.627 0 0 1-3.397-5.646 8.51 8.51 0 0 1 1.62-6.384c1.502-1.985 3.467-3.005 5.899-3.344Zm57.218-.007c3.846-.141 5.763 1.594 6.239 5.4l-3.193.012c-.128-.674-.201-1.14-.691-1.657a2.29 2.29 0 0 0-1.653-.723c-.962-.014-2.295.685-2.22 1.795.144 1.688 2.752 1.872 4.042 2.285 2.327.745 4.148 1.884 4.224 4.62a5.071 5.071 0 0 1-1.39 3.655c-1.194 1.25-2.87 1.6-4.53 1.631-3.875-.246-5.71-2.33-6.153-6.06l3.279.006c.016.167.036.332.061.497.371 2.41 3.709 3.555 5.116 1.38a1.6 1.6 0 0 0 .219-1.254c-.479-1.957-4.272-1.791-5.967-2.975-4.183-2.92-2.163-7.648 2.617-8.612ZM62.313 7.202a6.068 6.068 0 0 1 6.423 8.395 6.069 6.069 0 0 1-11.601-1.63A6.07 6.07 0 0 1 62.313 7.2Z"/>
  <path fill="#1D1D1F" d="M62.62 10.416a2.848 2.848 0 1 1 1.08 5.593 2.848 2.848 0 0 1-1.08-5.593Z"/>
  <path fill="#fff" d="M135.859 7.083c.342-.015.684-.023 1.027-.024 1.363.001 2.786.379 3.764 1.377 1.505 1.54 1.32 3.844 1.314 5.827-.003 1.652-.008 3.3-.013 4.95-.651-.015-2.792.158-3.149-.148-.02-.27-.038-.539-.054-.808-.513 0-2.491 1.476-4.202 1.1-1.412-.31-1.926-.636-2.846-1.825a3.185 3.185 0 0 1-.198-.494c-1.294-3.99 2.465-5.077 5.648-4.947.403.016 1.163.01 1.549-.116l.108-.236c-.003-1.558-.776-1.795-2.043-2.135-1.287.39-1.549.404-1.996 1.728-1.046-.04-2.249-.008-3.306-.003.612-2.661 1.742-3.725 4.397-4.246Z"/>
  <path fill="#1D1D1F" d="M136.251 14.321c.726-.023 2.083-.247 2.527.302.122.89-1.004 1.955-1.762 2.314-2.64.577-3.587-1.925-.765-2.616Z"/>
</svg>
