<svg width="522" height="522" viewBox="0 0 522 522" fill="none" xmlns="http://www.w3.org/2000/svg">
<rect width="522" height="522" fill="#1D1D1F"/>
<path d="M228.7 222.225C224.604 226.411 221.343 231.343 219.101 236.758C216.794 242.326 215.606 248.295 215.606 254.322C215.606 260.349 216.794 266.317 219.101 271.886C221.343 277.3 224.604 282.231 228.7 286.418L100.638 414.479C79.7256 393.475 63.1271 368.578 51.7832 341.191C40.3754 313.651 34.504 284.132 34.5039 254.322C34.5039 224.512 40.3755 194.994 51.7832 167.453C63.1272 140.066 79.7252 115.168 100.638 94.1631L228.7 222.225Z" stroke="#84E0F7"/>
<path d="M422.359 94.1611C443.272 115.166 459.844 140.09 471.135 167.53C482.489 195.124 488.283 224.72 488.185 254.629C488.086 284.537 482.098 314.173 470.562 341.843C459.089 369.359 442.352 394.395 421.3 415.539L293.237 287.477C297.362 283.263 300.651 278.305 302.919 272.865C305.251 267.271 306.462 261.279 306.481 255.232C306.501 249.186 305.33 243.201 303.034 237.622C300.802 232.197 297.546 227.26 293.449 223.072L422.359 94.1611Z" stroke="#84E0F7"/>
<path d="M405.369 399.8C386.529 418.64 364.138 433.561 339.474 443.71C314.81 453.859 288.356 459.037 261.623 458.949C234.89 458.862 208.401 453.509 183.669 443.198C158.937 432.886 136.446 417.817 117.48 398.852" stroke="#84E0F7"/>
<path d="M377.169 371.059C361.979 386.249 343.945 398.299 324.097 406.52C304.25 414.741 282.977 418.973 261.495 418.973C240.012 418.973 218.74 414.741 198.892 406.52C179.045 398.299 161.011 386.249 145.82 371.059C130.63 355.868 118.58 337.834 110.359 317.987C102.138 298.139 97.9062 276.867 97.9062 255.384C97.9062 233.901 102.138 212.629 110.359 192.782C118.58 172.934 130.63 154.9 145.82 139.71C161.011 124.519 179.045 112.469 198.892 104.248C218.74 96.027 240.012 91.7957 261.495 91.7957C282.977 91.7957 304.25 96.027 324.097 104.248C343.945 112.469 361.979 124.519 377.169 139.71C392.36 154.9 404.41 172.934 412.631 192.782C420.852 212.629 425.083 233.901 425.083 255.384C425.083 276.867 420.852 298.139 412.631 317.987C404.41 337.834 392.36 355.868 377.169 371.059L377.169 371.059Z" stroke="#84E0F7" stroke-dasharray="1 20"/>
<path d="M260.436 417.971C250.867 417.971 241.657 414.331 234.674 407.79C227.691 401.25 223.456 392.298 222.831 382.75C222.205 373.202 225.234 363.774 231.304 356.378C237.374 348.981 246.03 344.171 255.517 342.922C265.003 341.673 274.609 344.079 282.387 349.653C290.164 355.226 295.53 363.549 297.397 372.933C299.264 382.317 297.491 392.06 292.438 400.186C287.386 408.311 279.431 414.21 270.189 416.687" stroke="#84E0F7"/>
<circle cx="253.773" cy="373.204" r="5.77658" fill="#84E0F7"/>
<circle cx="253.773" cy="387.364" r="5.77658" fill="#84E0F7"/>
<circle cx="267.097" cy="373.204" r="5.77658" fill="#84E0F7"/>
<circle cx="267.097" cy="387.364" r="5.77658" fill="#84E0F7"/>
<circle cx="259.551" cy="417.574" r="3.10547" fill="#1D1D1F" stroke="#84E0F7"/>
<rect x="424.438" y="417.09" width="6" height="6" transform="rotate(-180 424.438 417.09)" fill="#1D1D1F" stroke="#84E0F7"/>
<rect x="230.438" y="289.09" width="6" height="6" transform="rotate(-180 230.438 289.09)" fill="#1D1D1F" stroke="#84E0F7"/>
<rect x="297.438" y="289.09" width="6" height="6" transform="rotate(-180 297.438 289.09)" fill="#1D1D1F" stroke="#84E0F7"/>
<rect x="102.438" y="417.09" width="6" height="6" transform="rotate(-180 102.438 417.09)" fill="#1D1D1F" stroke="#84E0F7"/>
</svg>