<svg xmlns="http://www.w3.org/2000/svg" width="32" height="32" fill="none" viewBox="0 0 32 32">
  <path stroke="#343435" d="M.5.5h31v31H.5z"/>
  <path fill="#F7931A" d="M16.776 8.912 16.3 10.83c.32.073.64.147.953.225l.476-1.905 1.19.297-.487 1.956c1.503.518 2.602 1.295 2.386 2.739-.156 1.057-.742 1.57-1.52 1.75 1.068.556 1.612 1.409 1.095 2.887-.642 1.837-2.17 1.992-4.2 1.608l-.494 1.975-1.191-.297.486-1.949a44.374 44.374 0 0 1-.948-.246l-.488 1.958-1.19-.297.492-1.98c-.277-.07-.56-.146-.848-.218l-1.55-.387.59-1.363s.879.233.867.216c.337.083.487-.136.546-.282l.778-3.123.126.03a.976.976 0 0 0-.124-.038l.556-2.23c.015-.253-.073-.572-.555-.692.013-.014-.865-.215-.865-.215l.317-1.271 1.642.409-.001.007c.247.061.502.12.76.178l.489-1.956 1.19.297Zm-2.346 9.524c.807.201 3.297 1 3.666-.479.383-1.542-2.204-1.941-3.012-2.143l-.654 2.622Zm.953-3.822c.672.168 2.745.851 3.08-.494.35-1.403-1.815-1.716-2.487-1.884l-.593 2.378Z"/>
</svg>
