<svg width="522" height="522" viewBox="0 0 522 522" fill="none" xmlns="http://www.w3.org/2000/svg">
<rect width="522" height="522" fill="#1D1D1F"/>
<line x1="261.5" y1="1" x2="261.5" y2="486" stroke="#343435"/>
<path d="M33.6982 261.283C33.6982 231.416 39.5808 201.842 51.0101 174.25C62.4395 146.657 79.1917 121.585 100.31 100.467C121.429 79.3479 146.501 62.5957 174.093 51.1663C201.686 39.737 231.26 33.8544 261.126 33.8544C290.993 33.8544 320.567 39.737 348.159 51.1663C375.752 62.5957 400.824 79.3479 421.943 100.467C443.061 121.585 459.813 146.657 471.243 174.25C482.672 201.843 488.555 231.416 488.555 261.283C488.555 291.149 482.672 320.723 471.243 348.316C459.813 375.909 443.061 400.98 421.942 422.099C400.824 443.217 375.752 459.97 348.159 471.399C320.567 482.828 290.993 488.711 261.126 488.711C231.26 488.711 201.686 482.828 174.093 471.399C146.5 459.97 121.429 443.217 100.31 422.099C79.1917 400.98 62.4394 375.908 51.0101 348.316C39.5808 320.723 33.6982 291.149 33.6982 261.283L33.6982 261.283Z" stroke="#84E0F7"/>
<path d="M154.306 380.644C154.306 394.884 157.125 408.983 162.601 422.139C168.077 435.294 176.103 447.247 186.221 457.315C196.339 467.384 208.351 475.37 221.571 480.819C234.791 486.268 248.96 489.072 263.268 489.072C277.577 489.072 291.746 486.268 304.966 480.819C318.185 475.37 330.197 467.384 340.315 457.315C350.434 447.247 358.46 435.294 363.936 422.139C369.412 408.984 372.23 394.884 372.23 380.644C372.23 366.405 369.412 352.305 363.936 339.15C358.46 325.995 350.434 314.042 340.315 303.973C330.197 293.905 318.185 285.919 304.966 280.47C291.746 275.021 277.577 272.217 263.268 272.217C248.96 272.217 234.791 275.021 221.571 280.47C208.351 285.919 196.34 293.905 186.221 303.973C176.103 314.042 168.077 325.995 162.601 339.15C157.125 352.305 154.306 366.405 154.306 380.644L154.306 380.644Z" stroke="#84E0F7" stroke-dasharray="1 8"/>
<path d="M171.935 398.7C171.935 410.608 174.28 422.4 178.838 433.403C183.395 444.405 190.075 454.402 198.495 462.822C206.916 471.243 216.913 477.923 227.915 482.48C238.917 487.037 250.709 489.383 262.618 489.383C274.526 489.383 286.318 487.037 297.321 482.48C308.323 477.923 318.32 471.243 326.74 462.822C335.161 454.402 341.841 444.405 346.398 433.403C350.955 422.401 353.301 410.608 353.301 398.7C353.301 386.791 350.955 374.999 346.398 363.997C341.841 352.995 335.161 342.998 326.74 334.577C318.32 326.157 308.323 319.477 297.321 314.92C286.319 310.362 274.526 308.017 262.618 308.017C250.709 308.017 238.917 310.362 227.915 314.92C216.913 319.477 206.916 326.157 198.495 334.577C190.075 342.998 183.395 352.995 178.838 363.997C174.28 374.999 171.935 386.791 171.935 398.7L171.935 398.7Z" stroke="white" stroke-opacity="0.1"/>
<path d="M90.6871 318.67C90.6871 296.217 95.1095 273.984 103.702 253.24C112.294 232.497 124.888 213.649 140.764 197.772C156.641 181.896 175.489 169.302 196.233 160.71C216.976 152.117 239.209 147.695 261.662 147.695C284.115 147.695 306.348 152.117 327.091 160.71C347.835 169.302 366.683 181.896 382.559 197.772C398.436 213.649 411.03 232.497 419.622 253.241C428.214 273.984 432.637 296.217 432.637 318.67C432.637 341.122 428.214 363.355 419.622 384.099C411.03 404.843 398.436 423.691 382.559 439.567C366.683 455.444 347.835 468.038 327.091 476.63C306.347 485.222 284.115 489.645 261.662 489.645C239.209 489.645 216.976 485.222 196.233 476.63C175.489 468.038 156.641 455.444 140.764 439.567C124.888 423.691 112.294 404.843 103.702 384.099C95.1095 363.355 90.6871 341.122 90.6871 318.67L90.6871 318.67Z" stroke="#84E0F7"/>
<path d="M122.179 348.052C122.179 329.665 125.801 311.457 132.837 294.469C139.874 277.481 150.188 262.045 163.19 249.043C176.192 236.041 191.627 225.727 208.616 218.691C225.604 211.654 243.811 208.032 262.199 208.032C280.587 208.032 298.794 211.654 315.782 218.691C332.77 225.727 348.206 236.041 361.208 249.043C374.21 262.045 384.524 277.481 391.56 294.469C398.597 311.457 402.219 329.665 402.219 348.052C402.219 366.44 398.597 384.648 391.56 401.636C384.524 418.624 374.21 434.059 361.208 447.061C348.206 460.063 332.77 470.377 315.782 477.414C298.794 484.451 280.586 488.072 262.199 488.072C243.811 488.072 225.603 484.451 208.615 477.414C191.627 470.377 176.192 460.063 163.19 447.061C150.188 434.059 139.874 418.624 132.837 401.636C125.801 384.648 122.179 366.44 122.179 348.052L122.179 348.052Z" stroke="white" stroke-opacity="0.1"/>
<path d="M66.6155 292.486C66.6155 266.801 71.6745 241.367 81.5037 217.638C91.3328 193.908 105.74 172.347 123.902 154.185C142.063 136.023 163.625 121.616 187.355 111.787C211.084 101.958 236.518 96.8988 262.202 96.8988C287.887 96.8988 313.32 101.958 337.05 111.787C360.78 121.616 382.341 136.023 400.503 154.185C418.665 172.347 433.072 193.908 442.901 217.638C452.73 241.367 457.789 266.801 457.789 292.486C457.789 318.17 452.73 343.604 442.901 367.333C433.072 391.063 418.665 412.624 400.503 430.786C382.341 448.948 360.78 463.355 337.05 473.184C313.32 483.013 287.887 488.072 262.202 488.072C236.517 488.072 211.084 483.013 187.354 473.184C163.625 463.355 142.063 448.948 123.902 430.786C105.74 412.624 91.3328 391.063 81.5037 367.333C71.6745 343.604 66.6155 318.17 66.6155 292.485L66.6155 292.486Z" stroke="white" stroke-opacity="0.1"/>
<rect x="265.5" y="493.5" width="7" height="7" transform="rotate(-180 265.5 493.5)" fill="#1D1D1F" stroke="#84E0F7"/>
</svg>