<svg xmlns="http://www.w3.org/2000/svg" width="430" height="842" fill="none" viewBox="0 0 430 842">
  <path stroke="#84E0F7" d="M182.5.5h66v23h-66z"/>
  <path fill="#fff" d="M202.912 10.232c0 .28-.112.518-.294.7l-.826.826a.943.943 0 0 1-.672.28h-3.822V16h-1.274V6.662h5.082a.92.92 0 0 1 .672.28l.826.826c.196.196.308.42.308.7v1.764Zm-1.288-.168.014-1.428a.284.284 0 0 0-.084-.196l-.462-.462a.254.254 0 0 0-.196-.084h-3.598v2.912h3.584c.084 0 .154-.028.196-.084l.462-.462a.254.254 0 0 0 .084-.196Z"/>
  <path fill="#828282" d="M219.59 16h-1.54l-2.66-3.836a.313.313 0 0 0-.238-.126h-1.848V16h-1.274V6.662h5.082a.92.92 0 0 1 .672.28l.826.826c.196.196.308.42.308.7v1.764c0 .28-.112.518-.294.7l-.826.826a.943.943 0 0 1-.672.28h-.35L219.59 16Zm-1.96-5.936.014-1.428a.284.284 0 0 0-.084-.196l-.462-.462a.254.254 0 0 0-.196-.084h-3.598v2.912h3.584c.084 0 .154-.028.196-.084l.462-.462a.254.254 0 0 0 .084-.196ZM227.468 16h-6.034V6.662h6.034v1.232h-4.76v2.814h4.76v1.232h-4.76v2.828h4.76V16Zm8.282-4.06h-4.774V16h-1.274V6.662h6.048v1.232h-4.774v2.814h4.774v1.232Z"/>
  <path stroke="#84E0F7" d="M227.5 36.5h-24m11.504 7.5v-8"/>
  <path fill="#50A7B8" d="M1 198h44.111v18H1z"/>
  <path fill="#E8EAF0" fill-opacity=".38" d="M6.612 233.096v-.852h5.64v.852h-5.64Zm11.847 1.5a.75.75 0 0 1-.228.576l-.564.564a.844.844 0 0 1-.612.264h-2.292a.844.844 0 0 1-.612-.264l-.564-.564a.75.75 0 0 1-.228-.576V229.4a.75.75 0 0 1 .228-.576l.564-.564a.844.844 0 0 1 .612-.264h2.292c.24 0 .444.096.612.264l.564.564a.75.75 0 0 1 .228.576v5.196Zm-1.02-.06v-5.088c0-.06-.012-.12-.06-.168l-.276-.276a.244.244 0 0 0-.18-.072h-2.028a.244.244 0 0 0-.18.072l-.276.276a.225.225 0 0 0-.06.168v5.1c0 .06.012.12.06.168l.276.276a.244.244 0 0 0 .18.072h2.028a.244.244 0 0 0 .18-.072l.276-.276c.048-.048.06-.108.06-.18ZM21.416 236h-1.284v-1.272h1.284V236Zm6.825-2.148h-1.008V236h-1.02v-2.148H22.66V233l3.204-5.004h1.356v4.92h1.02v.936Zm-2.04-.936.012-3.78-2.388 3.78H26.2Zm11.933 2.256a.51.51 0 0 1-.144.348l-.312.312a.53.53 0 0 1-.384.168h-1.476a.494.494 0 0 1-.384-.168l-.312-.312a.472.472 0 0 1-.156-.348v-3.048a.51.51 0 0 1 .144-.348l.312-.312a.53.53 0 0 1 .384-.168h1.476c.144 0 .276.048.384.168l.312.312a.472.472 0 0 1 .156.348v3.048Zm-1.752-7.236L32.194 236h-.744l4.188-8.064h.744Zm-3.444 3.876a.51.51 0 0 1-.144.348l-.312.312a.511.511 0 0 1-.384.168h-1.476a.511.511 0 0 1-.384-.168l-.312-.312a.51.51 0 0 1-.144-.348v-3.048a.51.51 0 0 1 .144-.348l.312-.312c.12-.12.24-.168.384-.168h1.476c.144 0 .264.048.384.168l.312.312a.51.51 0 0 1 .144.348v3.048Zm4.452 3.288v-2.916c0-.024-.024-.048-.036-.072l-.144-.132c0-.012-.048-.024-.06-.024h-1.188c-.024 0-.072.012-.072.024l-.132.132c-.024.024-.048.048-.048.072v2.928c0 .024.024.048.036.072l.144.132c0 .012.036.024.06.024h1.188c.024 0 .072-.012.072-.024l.132-.132c.024-.024.048-.06.048-.084Zm-5.196-3.36v-2.916c0-.024-.012-.048-.036-.072l-.132-.132a.129.129 0 0 0-.072-.024h-1.188a.129.129 0 0 0-.072.024l-.132.132c-.024.024-.036.048-.036.072v2.928c0 .024.012.048.036.072l.132.132a.129.129 0 0 0 .072.024h1.188c.024 0 .06-.012.072-.024l.132-.132a.13.13 0 0 0 .036-.084Z"/>
  <path fill="#50A7B8" d="M49.11 178h44.111v38H49.11z"/>
  <path fill="#E8EAF0" fill-opacity=".38" d="M54.221 233.096v-.852h5.64v.852h-5.64Zm11.848 1.5a.75.75 0 0 1-.228.576l-.564.564a.844.844 0 0 1-.612.264h-2.292a.844.844 0 0 1-.612-.264l-.564-.564a.75.75 0 0 1-.228-.576V229.4a.75.75 0 0 1 .228-.576l.564-.564a.844.844 0 0 1 .612-.264h2.292c.24 0 .444.096.612.264l.564.564a.75.75 0 0 1 .228.576v5.196Zm-1.02-.06v-5.088c0-.06-.012-.12-.06-.168l-.276-.276a.244.244 0 0 0-.18-.072h-2.028a.244.244 0 0 0-.18.072l-.276.276a.225.225 0 0 0-.06.168v5.1c0 .06.012.12.06.168l.276.276a.244.244 0 0 0 .18.072h2.028a.244.244 0 0 0 .18-.072l.276-.276c.048-.048.06-.108.06-.18ZM69.026 236h-1.284v-1.272h1.284V236Zm6.776-1.404a.75.75 0 0 1-.228.576l-.564.564a.844.844 0 0 1-.612.264h-2.292a.844.844 0 0 1-.612-.264l-.828-.828.66-.648.732.732a.244.244 0 0 0 .18.072h2.028a.244.244 0 0 0 .18-.072l.276-.276a.225.225 0 0 0 .06-.168v-1.704c0-.072-.012-.132-.06-.168l-.348-.36a.244.244 0 0 0-.18-.072h-1.632v-.936h1.62c.072 0 .144-.024.18-.072l.36-.348a.225.225 0 0 0 .06-.168v-1.272c0-.06-.012-.12-.06-.168l-.276-.276a.244.244 0 0 0-.18-.072h-2.028a.244.244 0 0 0-.18.072l-.732.732-.66-.648.828-.828a.844.844 0 0 1 .612-.264h2.292c.24 0 .444.096.612.264l.564.564a.75.75 0 0 1 .228.576v1.356a.826.826 0 0 1-.252.6l-.42.42.432.432c.168.168.24.348.24.576v1.812Zm9.941.576a.51.51 0 0 1-.144.348l-.312.312a.53.53 0 0 1-.384.168h-1.476a.494.494 0 0 1-.384-.168l-.312-.312a.472.472 0 0 1-.156-.348v-3.048a.51.51 0 0 1 .144-.348l.312-.312a.53.53 0 0 1 .384-.168h1.476c.144 0 .276.048.384.168l.312.312a.472.472 0 0 1 .156.348v3.048Zm-1.752-7.236L79.803 236h-.744l4.188-8.064h.744Zm-3.444 3.876a.51.51 0 0 1-.144.348l-.312.312a.511.511 0 0 1-.384.168h-1.476a.511.511 0 0 1-.384-.168l-.312-.312a.51.51 0 0 1-.144-.348v-3.048a.51.51 0 0 1 .144-.348l.312-.312c.12-.12.24-.168.384-.168h1.476c.144 0 .264.048.384.168l.312.312a.51.51 0 0 1 .144.348v3.048ZM85 235.1v-2.916c0-.024-.024-.048-.036-.072l-.144-.132c0-.012-.048-.024-.06-.024h-1.188c-.024 0-.072.012-.072.024l-.132.132c-.024.024-.048.048-.048.072v2.928c0 .024.024.048.036.072l.144.132c0 .012.036.024.06.024h1.188c.024 0 .072-.012.072-.024l.132-.132c.024-.024.048-.06.048-.084Zm-5.196-3.36v-2.916c0-.024-.012-.048-.036-.072l-.132-.132a.129.129 0 0 0-.072-.024h-1.188a.129.129 0 0 0-.072.024l-.132.132c-.024.024-.036.048-.036.072v2.928c0 .024.012.048.036.072l.132.132a.129.129 0 0 0 .072.024h1.188c.024 0 .06-.012.072-.024l.132-.132a.13.13 0 0 0 .036-.084Z"/>
  <path fill="#50A7B8" d="M97.223 144h44.111v72H97.223z"/>
  <path fill="#E8EAF0" fill-opacity=".38" d="M102.835 233.096v-.852h5.64v.852h-5.64Zm11.847 1.5a.75.75 0 0 1-.228.576l-.564.564a.844.844 0 0 1-.612.264h-2.292a.844.844 0 0 1-.612-.264l-.564-.564a.75.75 0 0 1-.228-.576V229.4a.75.75 0 0 1 .228-.576l.564-.564a.844.844 0 0 1 .612-.264h2.292c.24 0 .444.096.612.264l.564.564a.75.75 0 0 1 .228.576v5.196Zm-1.02-.06v-5.088c0-.06-.012-.12-.06-.168l-.276-.276a.244.244 0 0 0-.18-.072h-2.028a.244.244 0 0 0-.18.072l-.276.276a.225.225 0 0 0-.06.168v5.1c0 .06.012.12.06.168l.276.276a.244.244 0 0 0 .18.072h2.028a.244.244 0 0 0 .18-.072l.276-.276c.048-.048.06-.108.06-.18Zm3.977 1.464h-1.284v-1.272h1.284V236Zm6.776 0h-5.1v-2.556c0-.336.18-.624.492-.768l3.444-1.536a.237.237 0 0 0 .144-.216v-1.476c0-.06-.012-.12-.06-.168l-.276-.276a.244.244 0 0 0-.18-.072h-2.028a.244.244 0 0 0-.18.072l-.732.732-.66-.648.828-.828a.844.844 0 0 1 .612-.264h2.292c.24 0 .444.096.612.264l.564.564a.75.75 0 0 1 .228.576v1.728c0 .336-.18.636-.492.768l-3.444 1.548a.237.237 0 0 0-.144.216v1.404h4.08V236Zm9.942-.828a.51.51 0 0 1-.144.348l-.312.312a.53.53 0 0 1-.384.168h-1.476a.494.494 0 0 1-.384-.168l-.312-.312a.472.472 0 0 1-.156-.348v-3.048a.51.51 0 0 1 .144-.348l.312-.312a.53.53 0 0 1 .384-.168h1.476c.144 0 .276.048.384.168l.312.312a.472.472 0 0 1 .156.348v3.048Zm-1.752-7.236L128.417 236h-.744l4.188-8.064h.744Zm-3.444 3.876a.51.51 0 0 1-.144.348l-.312.312a.511.511 0 0 1-.384.168h-1.476a.511.511 0 0 1-.384-.168l-.312-.312a.51.51 0 0 1-.144-.348v-3.048a.51.51 0 0 1 .144-.348l.312-.312c.12-.12.24-.168.384-.168h1.476c.144 0 .264.048.384.168l.312.312a.51.51 0 0 1 .144.348v3.048Zm4.452 3.288v-2.916c0-.024-.024-.048-.036-.072l-.144-.132c0-.012-.048-.024-.06-.024h-1.188c-.024 0-.072.012-.072.024l-.132.132c-.024.024-.048.048-.048.072v2.928c0 .024.024.048.036.072l.144.132c0 .012.036.024.06.024h1.188c.024 0 .072-.012.072-.024l.132-.132c.024-.024.048-.06.048-.084Zm-5.196-3.36v-2.916c0-.024-.012-.048-.036-.072l-.132-.132a.129.129 0 0 0-.072-.024h-1.188a.129.129 0 0 0-.072.024l-.132.132c-.024.024-.036.048-.036.072v2.928c0 .024.012.048.036.072l.132.132a.129.129 0 0 0 .072.024h1.188c.024 0 .06-.012.072-.024l.132-.132a.13.13 0 0 0 .036-.084Z"/>
  <path fill="#50A7B8" d="M145.332 104h44.111v112h-44.111z"/>
  <path fill="#E8EAF0" fill-opacity=".38" d="M150.444 233.096v-.852h5.64v.852h-5.64Zm11.847 1.5a.75.75 0 0 1-.228.576l-.564.564a.844.844 0 0 1-.612.264h-2.292a.844.844 0 0 1-.612-.264l-.564-.564a.75.75 0 0 1-.228-.576V229.4a.75.75 0 0 1 .228-.576l.564-.564a.844.844 0 0 1 .612-.264h2.292c.24 0 .444.096.612.264l.564.564a.75.75 0 0 1 .228.576v5.196Zm-1.02-.06v-5.088c0-.06-.012-.12-.06-.168l-.276-.276a.244.244 0 0 0-.18-.072h-2.028a.244.244 0 0 0-.18.072l-.276.276a.225.225 0 0 0-.06.168v5.1c0 .06.012.12.06.168l.276.276a.244.244 0 0 0 .18.072h2.028a.244.244 0 0 0 .18-.072l.276-.276c.048-.048.06-.108.06-.18Zm3.977 1.464h-1.284v-1.272h1.284V236Zm6.333 0h-4.092v-.936h1.548v-6.036l-1.02.912-.648-.636 1.464-1.308h1.212v7.068h1.536V236Zm10.385-.828a.51.51 0 0 1-.144.348l-.312.312a.53.53 0 0 1-.384.168h-1.476a.494.494 0 0 1-.384-.168l-.312-.312a.472.472 0 0 1-.156-.348v-3.048a.51.51 0 0 1 .144-.348l.312-.312a.53.53 0 0 1 .384-.168h1.476c.144 0 .276.048.384.168l.312.312a.472.472 0 0 1 .156.348v3.048Zm-1.752-7.236L176.026 236h-.744l4.188-8.064h.744Zm-3.444 3.876a.51.51 0 0 1-.144.348l-.312.312a.511.511 0 0 1-.384.168h-1.476a.511.511 0 0 1-.384-.168l-.312-.312a.51.51 0 0 1-.144-.348v-3.048a.51.51 0 0 1 .144-.348l.312-.312c.12-.12.24-.168.384-.168h1.476c.144 0 .264.048.384.168l.312.312a.51.51 0 0 1 .144.348v3.048Zm4.452 3.288v-2.916c0-.024-.024-.048-.036-.072l-.144-.132c0-.012-.048-.024-.06-.024h-1.188c-.024 0-.072.012-.072.024l-.132.132c-.024.024-.048.048-.048.072v2.928c0 .024.024.048.036.072l.144.132c0 .012.036.024.06.024h1.188c.024 0 .072-.012.072-.024l.132-.132c.024-.024.048-.06.048-.084Zm-5.196-3.36v-2.916c0-.024-.012-.048-.036-.072l-.132-.132a.129.129 0 0 0-.072-.024h-1.188a.129.129 0 0 0-.072.024l-.132.132c-.024.024-.036.048-.036.072v2.928c0 .024.012.048.036.072l.132.132a.129.129 0 0 0 .072.024h1.188c.024 0 .06-.012.072-.024l.132-.132a.13.13 0 0 0 .036-.084Z"/>
  <g clip-path="url(#a)">
    <path fill="#50A7B8" d="M193.445 56h22.056v160h-22.056z"/>
    <path fill="#84E0F7" d="M215.501 56h22.056v160h-22.056z"/>
  </g>
  <path fill="#84E0F7" d="M241.555 104h44.111v112h-44.111z"/>
  <path fill="#E8EAF0" fill-opacity=".38" d="M252.559 233.6h-2.4v2.4h-.912v-2.4h-2.424v-.912h2.412v-2.4h.912v2.4h2.412v.912Zm6.377.996a.75.75 0 0 1-.228.576l-.564.564a.844.844 0 0 1-.612.264h-2.292a.844.844 0 0 1-.612-.264l-.564-.564a.75.75 0 0 1-.228-.576V229.4a.75.75 0 0 1 .228-.576l.564-.564a.844.844 0 0 1 .612-.264h2.292c.24 0 .444.096.612.264l.564.564a.75.75 0 0 1 .228.576v5.196Zm-1.02-.06v-5.088c0-.06-.012-.12-.06-.168l-.276-.276a.244.244 0 0 0-.18-.072h-2.028a.244.244 0 0 0-.18.072l-.276.276a.225.225 0 0 0-.06.168v5.1c0 .06.012.12.06.168l.276.276a.244.244 0 0 0 .18.072h2.028a.244.244 0 0 0 .18-.072l.276-.276c.048-.048.06-.108.06-.18Zm3.977 1.464h-1.284v-1.272h1.284V236Zm6.332 0h-4.092v-.936h1.548v-6.036l-1.02.912-.648-.636 1.464-1.308h1.212v7.068h1.536V236Zm10.385-.828a.51.51 0 0 1-.144.348l-.312.312a.53.53 0 0 1-.384.168h-1.476a.494.494 0 0 1-.384-.168l-.312-.312a.472.472 0 0 1-.156-.348v-3.048a.51.51 0 0 1 .144-.348l.312-.312a.53.53 0 0 1 .384-.168h1.476c.144 0 .276.048.384.168l.312.312a.472.472 0 0 1 .156.348v3.048Zm-1.752-7.236L272.67 236h-.744l4.188-8.064h.744Zm-3.444 3.876a.51.51 0 0 1-.144.348l-.312.312a.511.511 0 0 1-.384.168h-1.476a.511.511 0 0 1-.384-.168l-.312-.312a.51.51 0 0 1-.144-.348v-3.048a.51.51 0 0 1 .144-.348l.312-.312c.12-.12.24-.168.384-.168h1.476c.144 0 .264.048.384.168l.312.312a.51.51 0 0 1 .144.348v3.048Zm4.452 3.288v-2.916c0-.024-.024-.048-.036-.072l-.144-.132c0-.012-.048-.024-.06-.024h-1.188c-.024 0-.072.012-.072.024l-.132.132c-.024.024-.048.048-.048.072v2.928c0 .024.024.048.036.072l.144.132c0 .012.036.024.06.024h1.188c.024 0 .072-.012.072-.024l.132-.132c.024-.024.048-.06.048-.084Zm-5.196-3.36v-2.916c0-.024-.012-.048-.036-.072l-.132-.132a.129.129 0 0 0-.072-.024h-1.188a.129.129 0 0 0-.072.024l-.132.132c-.024.024-.036.048-.036.072v2.928c0 .024.012.048.036.072l.132.132a.129.129 0 0 0 .072.024h1.188c.024 0 .06-.012.072-.024l.132-.132a.13.13 0 0 0 .036-.084Z"/>
  <path fill="#84E0F7" d="M289.668 144h44.111v72h-44.111z"/>
  <path fill="#E8EAF0" fill-opacity=".38" d="M300.172 233.6h-2.4v2.4h-.912v-2.4h-2.424v-.912h2.412v-2.4h.912v2.4h2.412v.912Zm6.377.996a.75.75 0 0 1-.228.576l-.564.564a.844.844 0 0 1-.612.264h-2.292a.844.844 0 0 1-.612-.264l-.564-.564a.75.75 0 0 1-.228-.576V229.4a.75.75 0 0 1 .228-.576l.564-.564a.844.844 0 0 1 .612-.264h2.292c.24 0 .444.096.612.264l.564.564a.75.75 0 0 1 .228.576v5.196Zm-1.02-.06v-5.088c0-.06-.012-.12-.06-.168l-.276-.276a.244.244 0 0 0-.18-.072h-2.028a.244.244 0 0 0-.18.072l-.276.276a.225.225 0 0 0-.06.168v5.1c0 .06.012.12.06.168l.276.276a.244.244 0 0 0 .18.072h2.028a.244.244 0 0 0 .18-.072l.276-.276c.048-.048.06-.108.06-.18Zm3.977 1.464h-1.284v-1.272h1.284V236Zm6.777 0h-5.1v-2.556c0-.336.18-.624.492-.768l3.444-1.536a.237.237 0 0 0 .144-.216v-1.476c0-.06-.012-.12-.06-.168l-.276-.276a.244.244 0 0 0-.18-.072h-2.028a.244.244 0 0 0-.18.072l-.732.732-.66-.648.828-.828a.844.844 0 0 1 .612-.264h2.292c.24 0 .444.096.612.264l.564.564a.75.75 0 0 1 .228.576v1.728c0 .336-.18.636-.492.768l-3.444 1.548a.237.237 0 0 0-.144.216v1.404h4.08V236Zm9.941-.828a.51.51 0 0 1-.144.348l-.312.312a.53.53 0 0 1-.384.168h-1.476a.494.494 0 0 1-.384-.168l-.312-.312a.472.472 0 0 1-.156-.348v-3.048a.51.51 0 0 1 .144-.348l.312-.312a.53.53 0 0 1 .384-.168h1.476c.144 0 .276.048.384.168l.312.312a.472.472 0 0 1 .156.348v3.048Zm-1.752-7.236L320.284 236h-.744l4.188-8.064h.744Zm-3.444 3.876a.51.51 0 0 1-.144.348l-.312.312a.511.511 0 0 1-.384.168h-1.476a.511.511 0 0 1-.384-.168l-.312-.312a.51.51 0 0 1-.144-.348v-3.048a.51.51 0 0 1 .144-.348l.312-.312c.12-.12.24-.168.384-.168h1.476c.144 0 .264.048.384.168l.312.312a.51.51 0 0 1 .144.348v3.048Zm4.452 3.288v-2.916c0-.024-.024-.048-.036-.072l-.144-.132c0-.012-.048-.024-.06-.024h-1.188c-.024 0-.072.012-.072.024l-.132.132c-.024.024-.048.048-.048.072v2.928c0 .024.024.048.036.072l.144.132c0 .012.036.024.06.024h1.188c.024 0 .072-.012.072-.024l.132-.132c.024-.024.048-.06.048-.084Zm-5.196-3.36v-2.916c0-.024-.012-.048-.036-.072l-.132-.132a.129.129 0 0 0-.072-.024h-1.188a.129.129 0 0 0-.072.024l-.132.132c-.024.024-.036.048-.036.072v2.928c0 .024.012.048.036.072l.132.132a.129.129 0 0 0 .072.024h1.188c.024 0 .06-.012.072-.024l.132-.132a.13.13 0 0 0 .036-.084Z"/>
  <path fill="#84E0F7" d="M337.777 178h44.111v38h-44.111z"/>
  <path fill="#E8EAF0" fill-opacity=".38" d="M348.781 233.6h-2.4v2.4h-.912v-2.4h-2.424v-.912h2.412v-2.4h.912v2.4h2.412v.912Zm6.377.996a.75.75 0 0 1-.228.576l-.564.564a.844.844 0 0 1-.612.264h-2.292a.844.844 0 0 1-.612-.264l-.564-.564a.75.75 0 0 1-.228-.576V229.4a.75.75 0 0 1 .228-.576l.564-.564a.844.844 0 0 1 .612-.264h2.292c.24 0 .444.096.612.264l.564.564a.75.75 0 0 1 .228.576v5.196Zm-1.02-.06v-5.088c0-.06-.012-.12-.06-.168l-.276-.276a.244.244 0 0 0-.18-.072h-2.028a.244.244 0 0 0-.18.072l-.276.276a.225.225 0 0 0-.06.168v5.1c0 .06.012.12.06.168l.276.276a.244.244 0 0 0 .18.072h2.028a.244.244 0 0 0 .18-.072l.276-.276c.048-.048.06-.108.06-.18Zm3.977 1.464h-1.284v-1.272h1.284V236Zm6.777-1.404a.75.75 0 0 1-.228.576l-.564.564a.844.844 0 0 1-.612.264h-2.292a.844.844 0 0 1-.612-.264l-.828-.828.66-.648.732.732a.244.244 0 0 0 .18.072h2.028a.244.244 0 0 0 .18-.072l.276-.276a.225.225 0 0 0 .06-.168v-1.704c0-.072-.012-.132-.06-.168l-.348-.36a.244.244 0 0 0-.18-.072h-1.632v-.936h1.62c.072 0 .144-.024.18-.072l.36-.348a.225.225 0 0 0 .06-.168v-1.272c0-.06-.012-.12-.06-.168l-.276-.276a.244.244 0 0 0-.18-.072h-2.028a.244.244 0 0 0-.18.072l-.732.732-.66-.648.828-.828a.844.844 0 0 1 .612-.264h2.292c.24 0 .444.096.612.264l.564.564a.75.75 0 0 1 .228.576v1.356a.826.826 0 0 1-.252.6l-.42.42.432.432c.168.168.24.348.24.576v1.812Zm9.941.576a.51.51 0 0 1-.144.348l-.312.312a.53.53 0 0 1-.384.168h-1.476a.494.494 0 0 1-.384-.168l-.312-.312a.472.472 0 0 1-.156-.348v-3.048a.51.51 0 0 1 .144-.348l.312-.312a.53.53 0 0 1 .384-.168h1.476c.144 0 .276.048.384.168l.312.312a.472.472 0 0 1 .156.348v3.048Zm-1.752-7.236L368.893 236h-.744l4.188-8.064h.744Zm-3.444 3.876a.51.51 0 0 1-.144.348l-.312.312a.511.511 0 0 1-.384.168h-1.476a.511.511 0 0 1-.384-.168l-.312-.312a.51.51 0 0 1-.144-.348v-3.048a.51.51 0 0 1 .144-.348l.312-.312c.12-.12.24-.168.384-.168h1.476c.144 0 .264.048.384.168l.312.312a.51.51 0 0 1 .144.348v3.048Zm4.452 3.288v-2.916c0-.024-.024-.048-.036-.072l-.144-.132c0-.012-.048-.024-.06-.024h-1.188c-.024 0-.072.012-.072.024l-.132.132c-.024.024-.048.048-.048.072v2.928c0 .024.024.048.036.072l.144.132c0 .012.036.024.06.024h1.188c.024 0 .072-.012.072-.024l.132-.132c.024-.024.048-.06.048-.084Zm-5.196-3.36v-2.916c0-.024-.012-.048-.036-.072l-.132-.132a.129.129 0 0 0-.072-.024h-1.188a.129.129 0 0 0-.072.024l-.132.132c-.024.024-.036.048-.036.072v2.928c0 .024.012.048.036.072l.132.132a.129.129 0 0 0 .072.024h1.188c.024 0 .06-.012.072-.024l.132-.132a.13.13 0 0 0 .036-.084Z"/>
  <path fill="#84E0F7" d="M385.891 198h44.111v18h-44.111z"/>
  <path fill="#E8EAF0" fill-opacity=".38" d="M396.395 233.6h-2.4v2.4h-.912v-2.4h-2.424v-.912h2.412v-2.4h.912v2.4h2.412v.912Zm6.377.996a.75.75 0 0 1-.228.576l-.564.564a.844.844 0 0 1-.612.264h-2.292a.844.844 0 0 1-.612-.264l-.564-.564a.75.75 0 0 1-.228-.576V229.4a.75.75 0 0 1 .228-.576l.564-.564a.844.844 0 0 1 .612-.264h2.292c.24 0 .444.096.612.264l.564.564a.75.75 0 0 1 .228.576v5.196Zm-1.02-.06v-5.088c0-.06-.012-.12-.06-.168l-.276-.276a.244.244 0 0 0-.18-.072h-2.028a.244.244 0 0 0-.18.072l-.276.276a.225.225 0 0 0-.06.168v5.1c0 .06.012.12.06.168l.276.276a.244.244 0 0 0 .18.072h2.028a.244.244 0 0 0 .18-.072l.276-.276c.048-.048.06-.108.06-.18Zm3.977 1.464h-1.284v-1.272h1.284V236Zm6.824-2.148h-1.008V236h-1.02v-2.148h-3.552V233l3.204-5.004h1.356v4.92h1.02v.936Zm-2.04-.936.012-3.78-2.388 3.78h2.376Zm11.933 2.256a.51.51 0 0 1-.144.348l-.312.312a.53.53 0 0 1-.384.168h-1.476a.494.494 0 0 1-.384-.168l-.312-.312a.472.472 0 0 1-.156-.348v-3.048a.51.51 0 0 1 .144-.348l.312-.312a.53.53 0 0 1 .384-.168h1.476c.144 0 .276.048.384.168l.312.312a.472.472 0 0 1 .156.348v3.048Zm-1.752-7.236L416.506 236h-.744l4.188-8.064h.744Zm-3.444 3.876a.51.51 0 0 1-.144.348l-.312.312a.511.511 0 0 1-.384.168h-1.476a.511.511 0 0 1-.384-.168l-.312-.312a.51.51 0 0 1-.144-.348v-3.048a.51.51 0 0 1 .144-.348l.312-.312c.12-.12.24-.168.384-.168h1.476c.144 0 .264.048.384.168l.312.312a.51.51 0 0 1 .144.348v3.048Zm4.452 3.288v-2.916c0-.024-.024-.048-.036-.072l-.144-.132c0-.012-.048-.024-.06-.024h-1.188c-.024 0-.072.012-.072.024l-.132.132c-.024.024-.048.048-.048.072v2.928c0 .024.024.048.036.072l.144.132c0 .012.036.024.06.024h1.188c.024 0 .072-.012.072-.024l.132-.132c.024-.024.048-.06.048-.084Zm-5.196-3.36v-2.916c0-.024-.012-.048-.036-.072l-.132-.132a.129.129 0 0 0-.072-.024h-1.188a.129.129 0 0 0-.072.024l-.132.132c-.024.024-.036.048-.036.072v2.928c0 .024.012.048.036.072l.132.132a.129.129 0 0 0 .072.024h1.188c.024 0 .06-.012.072-.024l.132-.132a.13.13 0 0 0 .036-.084Z"/>
  <path fill="#84E0F7" d="M5.004 255.906a6.34 6.34 0 0 0-.91-.896 4.872 4.872 0 0 0-.952-.616v-.364c.653-.327 1.274-.831 1.862-1.512h.658c-.13.299-.27.569-.42.812-.14.233-.285.439-.434.616v.532c.15.168.294.373.434.616.14.233.28.504.42.812h-.658Zm-.266-1.316v-.756h8.12v.756h-8.12Zm21.654 2.604c0 .266-.098.504-.28.7l-.826.812a.933.933 0 0 1-.686.294h-5.082v-9.338h5.068c.28 0 .504.098.7.294l.826.826c.196.196.28.406.28.686v1.358a.963.963 0 0 1-.294.7l-.812.798.812.812c.196.196.294.42.294.686v1.372Zm-1.274-4.494.014-1.064c0-.07-.028-.14-.084-.196l-.462-.462a.254.254 0 0 0-.196-.084h-3.598v2.842h3.304c.07 0 .154-.042.196-.084l.742-.742a.264.264 0 0 0 .084-.21Zm.014 4.326v-1.05a.284.284 0 0 0-.084-.196l-.756-.756c-.056-.056-.126-.098-.196-.098h-3.304v2.842h3.584c.07 0 .154-.028.196-.084l.462-.462c.056-.056.098-.112.098-.196Zm10.194-.168c0 .266-.112.504-.294.7l-1.148 1.148a.987.987 0 0 1-.7.294H30.58a.963.963 0 0 1-.7-.294l-1.148-1.148a.963.963 0 0 1-.294-.7v-7.196h1.274v7.028c0 .07.028.14.084.196l.798.798a.254.254 0 0 0 .196.084h2.17c.084 0 .154-.028.196-.084l.798-.798a.276.276 0 0 0 .084-.196v-7.028h1.288v7.196Zm8.85-7.196-3.248 5.208V259h-1.274v-4.13l-3.262-5.208h1.428l2.478 3.962 2.478-3.962h1.4Zm11.962 7.196c0 .266-.112.504-.294.7l-1.148 1.148a.987.987 0 0 1-.7.294h-3.584a.963.963 0 0 1-.7-.294l-1.316-1.316.868-.868 1.162 1.162a.254.254 0 0 0 .196.084h3.15c.084 0 .154-.028.196-.084l.798-.798c.056-.056.098-.126.098-.196v-1.148c0-.154-.14-.266-.266-.28l-5.278-.686c-.518-.07-.924-.518-.924-1.036v-1.736c0-.266.098-.504.294-.7l1.148-1.148a.963.963 0 0 1 .7-.294h3.57c.266 0 .518.098.7.294l1.33 1.316-.868.868-1.162-1.162a.276.276 0 0 0-.196-.084h-3.164a.254.254 0 0 0-.196.084l-.798.798a.276.276 0 0 0-.084.196v1.148c0 .14.112.266.252.28l5.292.686c.518.07.924.518.924 1.036v1.736Zm5.81 2.142h-4.746v-1.148h1.736v-7.042h-1.736v-1.148h4.746v1.148h-1.736v7.042h1.736V259Zm8.533-2.142c0 .266-.112.504-.294.7l-1.148 1.148a.987.987 0 0 1-.7.294h-4.746v-9.338h4.732c.266 0 .518.098.7.294l1.148 1.148a.978.978 0 0 1 .308.7v5.054Zm-1.288-.168.014-4.718c0-.07-.042-.14-.084-.196l-.798-.798a.276.276 0 0 0-.196-.084h-3.262v6.874h3.248c.084 0 .154-.028.196-.084l.798-.798a.276.276 0 0 0 .084-.196Zm9.564 2.31h-6.034v-9.338h6.034v1.232h-4.76v2.814h4.76v1.232h-4.76v2.828h4.76V259Z"/>
  <rect width="8" height="8" x="135.5" y="251" fill="#50A7B8" rx="2"/>
  <path fill="#E8EAF0" fill-opacity=".38" d="M160.656 259h-1.302l-.952-2.506h-4.186l-.952 2.506h-1.274l3.5-9.338h1.68l3.486 9.338Zm-2.716-3.682-1.624-4.508-1.652 4.508h3.276Zm11.332 1.54c0 .266-.112.504-.294.7l-1.148 1.148a.987.987 0 0 1-.7.294h-3.584a.963.963 0 0 1-.7-.294l-1.316-1.316.868-.868 1.162 1.162a.254.254 0 0 0 .196.084h3.15c.084 0 .154-.028.196-.084l.798-.798c.056-.056.098-.126.098-.196v-1.148c0-.154-.14-.266-.266-.28l-5.278-.686c-.518-.07-.924-.518-.924-1.036v-1.736c0-.266.098-.504.294-.7l1.148-1.148a.963.963 0 0 1 .7-.294h3.57c.266 0 .518.098.7.294l1.33 1.316-.868.868-1.162-1.162a.276.276 0 0 0-.196-.084h-3.164a.254.254 0 0 0-.196.084l-.798.798a.276.276 0 0 0-.084.196v1.148c0 .14.112.266.252.28l5.292.686c.518.07.924.518.924 1.036v1.736Zm9.199 0c0 .266-.112.504-.294.7l-1.148 1.148a.987.987 0 0 1-.7.294h-3.584a.963.963 0 0 1-.7-.294l-1.316-1.316.868-.868 1.162 1.162a.254.254 0 0 0 .196.084h3.15c.084 0 .154-.028.196-.084l.798-.798c.056-.056.098-.126.098-.196v-1.148c0-.154-.14-.266-.266-.28l-5.278-.686c-.518-.07-.924-.518-.924-1.036v-1.736c0-.266.098-.504.294-.7l1.148-1.148a.963.963 0 0 1 .7-.294h3.57c.266 0 .518.098.7.294l1.33 1.316-.868.868-1.162-1.162a.276.276 0 0 0-.196-.084h-3.164a.254.254 0 0 0-.196.084l-.798.798a.276.276 0 0 0-.084.196v1.148c0 .14.112.266.252.28l5.292.686c.518.07.924.518.924 1.036v1.736Zm8.078 2.142h-6.034v-9.338h6.034v1.232h-4.76v2.814h4.76v1.232h-4.76v2.828h4.76V259Zm7.933-8.106h-2.8V259h-1.274v-8.106h-2.8v-1.232h6.874v1.232ZM204.524 259h-4.774v-1.092h1.806v-7.042l-1.19 1.064-.756-.742 1.708-1.526h1.414v8.246h1.792V259Z"/>
  <rect width="8" height="8" x="218.5" y="251" fill="#84E0F7" rx="2"/>
  <path fill="#E8EAF0" fill-opacity=".38" d="M243.656 259h-1.302l-.952-2.506h-4.186l-.952 2.506h-1.274l3.5-9.338h1.68l3.486 9.338Zm-2.716-3.682-1.624-4.508-1.652 4.508h3.276Zm11.332 1.54c0 .266-.112.504-.294.7l-1.148 1.148a.987.987 0 0 1-.7.294h-3.584a.963.963 0 0 1-.7-.294l-1.316-1.316.868-.868 1.162 1.162a.254.254 0 0 0 .196.084h3.15c.084 0 .154-.028.196-.084l.798-.798c.056-.056.098-.126.098-.196v-1.148c0-.154-.14-.266-.266-.28l-5.278-.686c-.518-.07-.924-.518-.924-1.036v-1.736c0-.266.098-.504.294-.7l1.148-1.148a.963.963 0 0 1 .7-.294h3.57c.266 0 .518.098.7.294l1.33 1.316-.868.868-1.162-1.162a.276.276 0 0 0-.196-.084h-3.164a.254.254 0 0 0-.196.084l-.798.798a.276.276 0 0 0-.084.196v1.148c0 .14.112.266.252.28l5.292.686c.518.07.924.518.924 1.036v1.736Zm9.199 0c0 .266-.112.504-.294.7l-1.148 1.148a.987.987 0 0 1-.7.294h-3.584a.963.963 0 0 1-.7-.294l-1.316-1.316.868-.868 1.162 1.162a.254.254 0 0 0 .196.084h3.15c.084 0 .154-.028.196-.084l.798-.798c.056-.056.098-.126.098-.196v-1.148c0-.154-.14-.266-.266-.28l-5.278-.686c-.518-.07-.924-.518-.924-1.036v-1.736c0-.266.098-.504.294-.7l1.148-1.148a.963.963 0 0 1 .7-.294h3.57c.266 0 .518.098.7.294l1.33 1.316-.868.868-1.162-1.162a.276.276 0 0 0-.196-.084h-3.164a.254.254 0 0 0-.196.084l-.798.798a.276.276 0 0 0-.084.196v1.148c0 .14.112.266.252.28l5.292.686c.518.07.924.518.924 1.036v1.736Zm8.078 2.142h-6.034v-9.338h6.034v1.232h-4.76v2.814h4.76v1.232h-4.76v2.828h4.76V259Zm7.933-8.106h-2.8V259h-1.274v-8.106h-2.8v-1.232h6.874v1.232Zm10.56 8.106h-5.95v-2.982c0-.392.21-.728.574-.896l4.018-1.792a.277.277 0 0 0 .168-.252v-1.722c0-.07-.014-.14-.07-.196l-.322-.322a.285.285 0 0 0-.21-.084h-2.366a.285.285 0 0 0-.21.084l-.854.854-.77-.756.966-.966a.985.985 0 0 1 .714-.308h2.674c.28 0 .518.112.714.308l.658.658c.196.196.266.406.266.672v2.016a.95.95 0 0 1-.574.896l-4.018 1.806a.277.277 0 0 0-.168.252v1.638h4.76V259Z"/>
  <path fill="#84E0F7" d="M352.82 256.858c0 .266-.112.504-.294.7l-1.148 1.148a.987.987 0 0 1-.7.294h-3.584a.963.963 0 0 1-.7-.294l-1.316-1.316.868-.868 1.162 1.162a.254.254 0 0 0 .196.084h3.15c.084 0 .154-.028.196-.084l.798-.798c.056-.056.098-.126.098-.196v-1.148c0-.154-.14-.266-.266-.28l-5.278-.686c-.518-.07-.924-.518-.924-1.036v-1.736c0-.266.098-.504.294-.7l1.148-1.148a.963.963 0 0 1 .7-.294h3.57c.266 0 .518.098.7.294l1.33 1.316-.868.868-1.162-1.162a.276.276 0 0 0-.196-.084h-3.164a.254.254 0 0 0-.196.084l-.798.798a.276.276 0 0 0-.084.196v1.148c0 .14.112.266.252.28l5.292.686c.518.07.924.518.924 1.036v1.736Zm8.078 2.142h-6.034v-9.338h6.034v1.232h-4.76v2.814h4.76v1.232h-4.76v2.828h4.76V259Zm8.269 0h-6.034v-9.338h1.274v8.106h4.76V259Zm7.339 0h-6.034v-9.338h1.274v8.106h4.76V259Zm12.011-2.142c0 .266-.112.504-.294.7l-1.148 1.148a.987.987 0 0 1-.7.294h-3.584a.963.963 0 0 1-.7-.294l-1.316-1.316.868-.868 1.162 1.162a.254.254 0 0 0 .196.084h3.15c.084 0 .154-.028.196-.084l.798-.798c.056-.056.098-.126.098-.196v-1.148c0-.154-.14-.266-.266-.28l-5.278-.686c-.518-.07-.924-.518-.924-1.036v-1.736c0-.266.098-.504.294-.7l1.148-1.148a.963.963 0 0 1 .7-.294h3.57c.266 0 .518.098.7.294l1.33 1.316-.868.868-1.162-1.162a.276.276 0 0 0-.196-.084h-3.164a.254.254 0 0 0-.196.084l-.798.798a.276.276 0 0 0-.084.196v1.148c0 .14.112.266.252.28l5.292.686c.518.07.924.518.924 1.036v1.736Zm5.811 2.142h-4.746v-1.148h1.736v-7.042h-1.736v-1.148h4.746v1.148h-1.736v7.042h1.736V259Zm8.533-2.142c0 .266-.112.504-.294.7l-1.148 1.148a.987.987 0 0 1-.7.294h-4.746v-9.338h4.732c.266 0 .518.098.7.294l1.148 1.148a.978.978 0 0 1 .308.7v5.054Zm-1.288-.168.014-4.718c0-.07-.042-.14-.084-.196l-.798-.798a.276.276 0 0 0-.196-.084h-3.262v6.874h3.248c.084 0 .154-.028.196-.084l.798-.798a.276.276 0 0 0 .084-.196Zm9.564 2.31h-6.034v-9.338h6.034v1.232h-4.76v2.814h4.76v1.232h-4.76v2.828h4.76V259Zm13.459-3.094a6.01 6.01 0 0 1 .378-.742 4.29 4.29 0 0 1 .392-.574H417.4v-.756h7.966a5.887 5.887 0 0 1-.392-.574 7.64 7.64 0 0 1-.378-.742h.658c.588.681 1.208 1.185 1.862 1.512v.364c-.654.317-1.274.821-1.862 1.512h-.658Z"/>
  <path stroke="#84E0F7" stroke-dasharray="2 2" d="M1 301.5h428"/>
  <path stroke="#84E0F7" d="M1.5 342.5h427v24H1.5z"/>
  <path fill="#84E0F7" d="M19.97 356.358c0 .266-.112.504-.294.7l-1.148 1.148a.987.987 0 0 1-.7.294h-3.584a.963.963 0 0 1-.7-.294l-1.316-1.316.868-.868 1.162 1.162a.254.254 0 0 0 .196.084h3.15c.084 0 .154-.028.196-.084l.798-.798c.056-.056.098-.126.098-.196v-1.148c0-.154-.14-.266-.266-.28l-5.278-.686c-.518-.07-.924-.518-.924-1.036v-1.736c0-.266.098-.504.294-.7l1.148-1.148a.963.963 0 0 1 .7-.294h3.57c.266 0 .518.098.7.294l1.33 1.316-.868.868-1.162-1.162a.276.276 0 0 0-.196-.084H14.58a.254.254 0 0 0-.196.084l-.798.798a.276.276 0 0 0-.084.196v1.148c0 .14.112.266.252.28l5.292.686c.518.07.924.518.924 1.036v1.736Zm8.079 2.142h-6.034v-9.338h6.034v1.232h-4.76v2.814h4.76v1.232h-4.76v2.828h4.76v1.232Zm7.933-8.106h-2.8v8.106h-1.274v-8.106h-2.8v-1.232h6.874v1.232Zm12.351 5.964c0 .266-.112.504-.294.7l-1.148 1.148a.987.987 0 0 1-.7.294h-3.458a.963.963 0 0 1-.7-.294l-1.148-1.148a.963.963 0 0 1-.294-.7v-5.054c0-.266.098-.504.294-.7l1.148-1.148a.963.963 0 0 1 .7-.294h3.444c.266 0 .518.098.7.294l1.148 1.148a.978.978 0 0 1 .308.7v5.054Zm-1.288-.168.014-4.718c0-.07-.042-.14-.084-.196l-.798-.798a.276.276 0 0 0-.196-.084h-3.038a.254.254 0 0 0-.196.084l-.798.798a.276.276 0 0 0-.084.196v4.718c0 .07.028.14.084.196l.798.798a.254.254 0 0 0 .196.084h3.024c.084 0 .154-.028.196-.084l.798-.798a.276.276 0 0 0 .084-.196Zm10.421 2.31h-1.904l-3.724-7.882v7.882h-1.26v-9.338h1.904l3.724 7.882v-7.882h1.26v9.338Zm9.135-1.61-1.316 1.316a.963.963 0 0 1-.7.294h-2.73a.963.963 0 0 1-.7-.294l-1.148-1.148a.963.963 0 0 1-.294-.7v-5.054c0-.266.098-.504.294-.7l1.148-1.148a.963.963 0 0 1 .7-.294h2.73c.266 0 .504.098.7.294l1.316 1.316-.868.868-1.162-1.162a.254.254 0 0 0-.196-.084h-2.31a.254.254 0 0 0-.196.084l-.798.798a.276.276 0 0 0-.084.196v4.718c0 .07.028.14.084.196l.798.798a.254.254 0 0 0 .196.084h2.31c.084 0 .14-.028.196-.084l1.148-1.162.882.868Zm7.683 1.61H68.25v-9.338h6.034v1.232h-4.76v2.814h4.76v1.232h-4.76v2.828h4.76v1.232Zm3.313.994c0 .308-.084.49-.28.7l-.686.686-.798-.784.42-.42c.056-.056.098-.112.098-.196v-2.464h1.246v2.478Zm13.18-3.136c0 .266-.112.504-.294.7l-1.148 1.148a.987.987 0 0 1-.7.294h-3.584a.963.963 0 0 1-.7-.294l-1.316-1.316.868-.868 1.162 1.162a.254.254 0 0 0 .196.084h3.15c.084 0 .154-.028.196-.084l.798-.798c.056-.056.098-.126.098-.196v-1.148c0-.154-.14-.266-.266-.28l-5.278-.686c-.518-.07-.924-.518-.924-1.036v-1.736c0-.266.098-.504.294-.7l1.148-1.148a.963.963 0 0 1 .7-.294h3.57c.266 0 .518.098.7.294l1.33 1.316-.868.868-1.162-1.162a.276.276 0 0 0-.196-.084h-3.164a.254.254 0 0 0-.196.084l-.798.798a.276.276 0 0 0-.084.196v1.148c0 .14.112.266.252.28l5.292.686c.518.07.924.518.924 1.036v1.736Zm7.742-5.964h-2.8v8.106h-1.273v-8.106h-2.8v-1.232h6.873v1.232Zm8.94 8.106h-1.302l-.952-2.506h-4.186l-.952 2.506h-1.274l3.5-9.338h1.68l3.486 9.338Zm-2.716-3.682-1.624-4.508-1.652 4.508h3.276Zm10.59-5.656-3.248 5.208v4.13h-1.274v-4.13l-3.262-5.208h1.428l2.478 3.962 2.478-3.962h1.4Zm12.298 9.338h-1.302l-.952-2.506h-4.186l-.952 2.506h-1.274l3.5-9.338h1.68l3.486 9.338Zm-2.716-3.682-1.624-4.508-1.652 4.508h3.276Zm10.674 2.072-1.316 1.316a.963.963 0 0 1-.7.294h-2.73a.963.963 0 0 1-.7-.294l-1.148-1.148a.963.963 0 0 1-.294-.7v-5.054c0-.266.098-.504.294-.7l1.148-1.148a.963.963 0 0 1 .7-.294h2.73c.266 0 .504.098.7.294l1.316 1.316-.868.868-1.162-1.162a.254.254 0 0 0-.196-.084h-2.31a.254.254 0 0 0-.196.084l-.798.798a.276.276 0 0 0-.084.196v4.718c0 .07.028.14.084.196l.798.798a.254.254 0 0 0 .196.084h2.31c.084 0 .14-.028.196-.084l1.148-1.162.882.868Zm7.348-6.496h-2.8v8.106h-1.274v-8.106h-2.8v-1.232h6.874v1.232Zm5.215 8.106h-4.746v-1.148h1.736v-7.042h-1.736v-1.148h4.746v1.148h-1.736v7.042h1.736v1.148Zm8.142-9.338L153.2 358.5h-1.694l-3.08-9.338h1.302l2.646 8.162 2.646-8.162h1.274Zm7.287 9.338h-6.034v-9.338h6.034v1.232h-4.76v2.814h4.76v1.232h-4.76v2.828h4.76v1.232Z"/>
  <circle cx="412" cy="354.5" r="7" fill="#84E0F7" fill-opacity=".1"/>
  <circle cx="412" cy="354.5" r="3.5" fill="#84E0F7"/>
  <path fill="#E8EAF0" fill-opacity=".38" d="M9.554 395.858c0 .266-.112.504-.294.7l-1.148 1.148a.987.987 0 0 1-.7.294H2.666v-9.338h4.732c.266 0 .518.098.7.294l1.148 1.148a.978.978 0 0 1 .308.7v5.054Zm-1.288-.168.014-4.718c0-.07-.042-.14-.084-.196l-.798-.798a.276.276 0 0 0-.196-.084H3.94v6.874h3.248c.084 0 .154-.028.196-.084l.798-.798a.276.276 0 0 0 .084-.196ZM17.83 398h-6.034v-9.338h6.034v1.232h-4.76v2.814h4.76v1.232h-4.76v2.828h4.76V398Zm9.123-5.768c0 .28-.112.518-.294.7l-.826.826a.943.943 0 0 1-.672.28h-3.822V398h-1.274v-9.338h5.082a.92.92 0 0 1 .672.28l.826.826c.196.196.308.42.308.7v1.764Zm-1.288-.168.014-1.428a.284.284 0 0 0-.084-.196l-.462-.462a.254.254 0 0 0-.196-.084h-3.598v2.912h3.584c.084 0 .154-.028.196-.084l.462-.462a.254.254 0 0 0 .084-.196Zm10.333 3.794c0 .266-.112.504-.294.7l-1.148 1.148a.987.987 0 0 1-.7.294h-3.458a.963.963 0 0 1-.7-.294l-1.148-1.148a.963.963 0 0 1-.294-.7v-5.054c0-.266.098-.504.294-.7l1.148-1.148a.963.963 0 0 1 .7-.294h3.444c.266 0 .518.098.7.294l1.148 1.148a.978.978 0 0 1 .308.7v5.054Zm-1.288-.168.014-4.718c0-.07-.042-.14-.084-.196l-.798-.798a.276.276 0 0 0-.196-.084h-3.038a.254.254 0 0 0-.196.084l-.798.798a.276.276 0 0 0-.084.196v4.718c0 .07.028.14.084.196l.798.798a.254.254 0 0 0 .196.084h3.024c.084 0 .154-.028.196-.084l.798-.798a.276.276 0 0 0 .084-.196Zm10.687.168c0 .266-.112.504-.294.7l-1.148 1.148a.987.987 0 0 1-.7.294h-3.584a.963.963 0 0 1-.7-.294l-1.316-1.316.868-.868 1.162 1.162a.254.254 0 0 0 .196.084h3.15c.084 0 .154-.028.196-.084l.798-.798c.056-.056.098-.126.098-.196v-1.148c0-.154-.14-.266-.266-.28l-5.278-.686c-.518-.07-.924-.518-.924-1.036v-1.736c0-.266.098-.504.294-.7l1.148-1.148a.963.963 0 0 1 .7-.294h3.57c.266 0 .518.098.7.294l1.33 1.316-.868.868-1.162-1.162a.276.276 0 0 0-.196-.084h-3.164a.254.254 0 0 0-.196.084l-.798.798a.276.276 0 0 0-.084.196v1.148c0 .14.112.266.252.28l5.292.686c.518.07.924.518.924 1.036v1.736Zm5.81 2.142h-4.746v-1.148h1.736v-7.042h-1.736v-1.148h4.746v1.148h-1.736v7.042h1.736V398Zm7.344-8.106h-2.8V398h-1.274v-8.106h-2.8v-1.232h6.874v1.232ZM67.318 398h-4.746v-1.148h1.736v-7.042h-1.736v-1.148h4.746v1.148h-1.736v7.042h1.736V398Zm8.534 0h-1.904l-3.724-7.882V398h-1.26v-9.338h1.904l3.724 7.882v-7.882h1.26V398Zm8.336-8.106h-2.8V398h-1.274v-8.106h-2.8v-1.232h6.874v1.232Zm8.8 5.964c0 .266-.112.504-.294.7l-1.148 1.148a.987.987 0 0 1-.7.294h-3.458a.963.963 0 0 1-.7-.294l-1.148-1.148a.963.963 0 0 1-.294-.7v-5.054c0-.266.098-.504.294-.7l1.148-1.148a.963.963 0 0 1 .7-.294h3.444c.266 0 .518.098.7.294l1.148 1.148a.978.978 0 0 1 .308.7v5.054Zm-1.288-.168.014-4.718c0-.07-.042-.14-.084-.196l-.798-.798a.276.276 0 0 0-.196-.084h-3.038a.254.254 0 0 0-.196.084l-.798.798a.276.276 0 0 0-.084.196v4.718c0 .07.028.14.084.196l.798.798a.254.254 0 0 0 .196.084h3.024c.084 0 .154-.028.196-.084l.798-.798a.276.276 0 0 0 .084-.196Zm14.575 2.31h-1.302l-.952-2.506h-4.186L98.883 398h-1.274l3.5-9.338h1.68l3.486 9.338Zm-2.716-3.682-1.624-4.508-1.652 4.508h3.276Zm14.618 1.54c0 .266-.112.504-.294.7l-1.148 1.148a.987.987 0 0 1-.7.294h-4.746v-9.338h4.732c.266 0 .518.098.7.294l1.148 1.148a.978.978 0 0 1 .308.7v5.054Zm-1.288-.168.014-4.718c0-.07-.042-.14-.084-.196l-.798-.798a.276.276 0 0 0-.196-.084h-3.262v6.874h3.248c.084 0 .154-.028.196-.084l.798-.798a.276.276 0 0 0 .084-.196Zm9.564 2.31h-6.034v-9.338h6.034v1.232h-4.76v2.814h4.76v1.232h-4.76v2.828h4.76V398Zm8.731-9.338L132.09 398h-1.694l-3.08-9.338h1.302l2.646 8.162 2.646-8.162h1.274Zm5.019 9.338h-4.746v-1.148h1.736v-7.042h-1.736v-1.148h4.746v1.148h-1.736v7.042h1.736V398Zm9.135 0h-1.302l-.952-2.506h-4.186l-.952 2.506h-1.274l3.5-9.338h1.68l3.486 9.338Zm-2.716-3.682-1.624-4.508-1.652 4.508h3.276Zm9.877-4.424h-2.8V398h-1.274v-8.106h-2.8v-1.232h6.874v1.232Zm5.215 8.106h-4.746v-1.148h1.736v-7.042h-1.736v-1.148h4.746v1.148h-1.736v7.042h1.736V398Zm8.996-2.142c0 .266-.112.504-.294.7l-1.148 1.148a.987.987 0 0 1-.7.294h-3.458a.963.963 0 0 1-.7-.294l-1.148-1.148a.963.963 0 0 1-.294-.7v-5.054c0-.266.098-.504.294-.7l1.148-1.148a.963.963 0 0 1 .7-.294h3.444c.266 0 .518.098.7.294l1.148 1.148a.978.978 0 0 1 .308.7v5.054Zm-1.288-.168.014-4.718c0-.07-.042-.14-.084-.196l-.798-.798a.276.276 0 0 0-.196-.084h-3.038a.254.254 0 0 0-.196.084l-.798.798a.276.276 0 0 0-.084.196v4.718c0 .07.028.14.084.196l.798.798a.254.254 0 0 0 .196.084h3.024c.084 0 .154-.028.196-.084l.798-.798a.276.276 0 0 0 .084-.196Zm10.421 2.31h-1.904l-3.724-7.882V398h-1.26v-9.338h1.904l3.724 7.882v-7.882h1.26V398Zm13.064-1.806c0 .266-.098.504-.28.7l-.826.812a.933.933 0 0 1-.686.294h-5.082v-9.338h5.068c.28 0 .504.098.7.294l.826.826c.196.196.28.406.28.686v1.358a.963.963 0 0 1-.294.7l-.812.798.812.812c.196.196.294.42.294.686v1.372Zm-1.274-4.494.014-1.064c0-.07-.028-.14-.084-.196l-.462-.462a.254.254 0 0 0-.196-.084h-3.598v2.842h3.304c.07 0 .154-.042.196-.084l.742-.742a.264.264 0 0 0 .084-.21Zm.014 4.326v-1.05a.284.284 0 0 0-.084-.196l-.756-.756c-.056-.056-.126-.098-.196-.098h-3.304v2.842h3.584c.07 0 .154-.028.196-.084l.462-.462c.056-.056.098-.112.098-.196ZM202.64 398h-1.302l-.952-2.506H196.2l-.952 2.506h-1.274l3.5-9.338h1.68L202.64 398Zm-2.716-3.682-1.624-4.508-1.652 4.508h3.276ZM210.99 398h-1.904l-3.724-7.882V398h-1.26v-9.338h1.904l3.724 7.882v-7.882h1.26V398Zm9.526-2.142c0 .266-.112.504-.294.7l-1.148 1.148a.987.987 0 0 1-.7.294h-4.746v-9.338h4.732c.266 0 .518.098.7.294l1.148 1.148a.978.978 0 0 1 .308.7v5.054Zm-1.288-.168.014-4.718c0-.07-.042-.14-.084-.196l-.798-.798a.276.276 0 0 0-.196-.084h-3.262v6.874h3.248c.084 0 .154-.028.196-.084l.798-.798a.276.276 0 0 0 .084-.196Zm14.573 2.31h-1.302l-.952-2.506h-4.186l-.952 2.506h-1.274l3.5-9.338h1.68l3.486 9.338Zm-2.716-3.682-1.624-4.508-1.652 4.508h3.276ZM242.151 398h-1.904l-3.724-7.882V398h-1.26v-9.338h1.904l3.724 7.882v-7.882h1.26V398Zm9.526-2.142c0 .266-.112.504-.294.7l-1.148 1.148a.987.987 0 0 1-.7.294h-4.746v-9.338h4.732c.266 0 .518.098.7.294l1.148 1.148a.978.978 0 0 1 .308.7v5.054Zm-1.288-.168.014-4.718c0-.07-.042-.14-.084-.196l-.798-.798a.276.276 0 0 0-.196-.084h-3.262v6.874h3.248c.084 0 .154-.028.196-.084l.798-.798a.276.276 0 0 0 .084-.196Zm13.13-1.75h-4.774V398h-1.274v-9.338h6.048v1.232h-4.774v2.814h4.774v1.232Zm9.202 1.918c0 .266-.112.504-.294.7l-1.148 1.148a.987.987 0 0 1-.7.294h-3.458a.963.963 0 0 1-.7-.294l-1.148-1.148a.963.963 0 0 1-.294-.7v-5.054c0-.266.098-.504.294-.7l1.148-1.148a.963.963 0 0 1 .7-.294h3.444c.266 0 .518.098.7.294l1.148 1.148a.978.978 0 0 1 .308.7v5.054Zm-1.288-.168.014-4.718c0-.07-.042-.14-.084-.196l-.798-.798a.276.276 0 0 0-.196-.084h-3.038a.254.254 0 0 0-.196.084l-.798.798a.276.276 0 0 0-.084.196v4.718c0 .07.028.14.084.196l.798.798a.254.254 0 0 0 .196.084h3.024c.084 0 .154-.028.196-.084l.798-.798a.276.276 0 0 0 .084-.196Zm11.093 2.31h-1.54l-2.66-3.836a.313.313 0 0 0-.238-.126h-1.848V398h-1.274v-9.338h5.082a.92.92 0 0 1 .672.28l.826.826c.196.196.308.42.308.7v1.764c0 .28-.112.518-.294.7l-.826.826a.943.943 0 0 1-.672.28h-.35l2.814 3.962Zm-1.96-5.936.014-1.428a.284.284 0 0 0-.084-.196l-.462-.462a.254.254 0 0 0-.196-.084h-3.598v2.912h3.584c.084 0 .154-.028.196-.084l.462-.462a.254.254 0 0 0 .084-.196ZM292.098 398h-1.218l-.266-1.33-1.036 1.036a.933.933 0 0 1-.686.294h-2.772a.963.963 0 0 1-.7-.294l-1.148-1.148a.963.963 0 0 1-.294-.7v-5.054c0-.266.098-.504.294-.7l1.148-1.148a.963.963 0 0 1 .7-.294h3.458c.266 0 .49.098.686.294l1.316 1.316-.868.868-1.162-1.162a.254.254 0 0 0-.196-.084h-3.024a.254.254 0 0 0-.196.084l-.798.798a.276.276 0 0 0-.084.196v4.718c0 .07.028.14.084.196l.798.798a.254.254 0 0 0 .196.084h2.38c.084 0 .154-.028.196-.084l1.47-1.456a.254.254 0 0 0 .084-.196v-1.092h-2.548v-1.232h3.822v3.472l.364 1.82Zm8.078 0h-6.034v-9.338h6.034v1.232h-4.76v2.814h4.76v1.232h-4.76v2.828h4.76V398Zm7.933-8.106h-2.8V398h-1.274v-8.106h-2.8v-1.232h6.874v1.232Zm2.654 8.106h-1.498v-1.484h1.498V398Zm12.787 0h-1.904l-3.724-7.882V398h-1.26v-9.338h1.904l3.724 7.882v-7.882h1.26V398Zm9.989-2.142c0 .266-.112.504-.294.7l-1.148 1.148a.987.987 0 0 1-.7.294h-3.458a.963.963 0 0 1-.7-.294l-1.148-1.148a.963.963 0 0 1-.294-.7v-5.054c0-.266.098-.504.294-.7l1.148-1.148a.963.963 0 0 1 .7-.294h3.444c.266 0 .518.098.7.294l1.148 1.148a.978.978 0 0 1 .308.7v5.054Zm-1.288-.168.014-4.718c0-.07-.042-.14-.084-.196l-.798-.798a.276.276 0 0 0-.196-.084h-3.038a.254.254 0 0 0-.196.084l-.798.798a.276.276 0 0 0-.084.196v4.718c0 .07.028.14.084.196l.798.798a.254.254 0 0 0 .196.084h3.024c.084 0 .154-.028.196-.084l.798-.798a.276.276 0 0 0 .084-.196Zm13.973 2.31h-1.904l-3.724-7.882V398h-1.26v-9.338h1.904l3.724 7.882v-7.882h1.26V398Zm8.672 0h-6.034v-9.338h6.034v1.232h-4.76v2.814h4.76v1.232h-4.76v2.828h4.76V398Zm8.269 0h-6.034v-9.338h6.034v1.232h-4.76v2.814h4.76v1.232h-4.76v2.828h4.76V398Zm9.123-2.142c0 .266-.112.504-.294.7l-1.148 1.148a.987.987 0 0 1-.7.294H365.4v-9.338h4.732c.266 0 .518.098.7.294l1.148 1.148a.978.978 0 0 1 .308.7v5.054ZM371 395.69l.014-4.718c0-.07-.042-.14-.084-.196l-.798-.798a.276.276 0 0 0-.196-.084h-3.262v6.874h3.248c.084 0 .154-.028.196-.084l.798-.798a.276.276 0 0 0 .084-.196Zm12.78-5.796h-2.8V398h-1.274v-8.106h-2.8v-1.232h6.874v1.232Zm8.8 5.964c0 .266-.112.504-.294.7l-1.148 1.148a.987.987 0 0 1-.7.294h-3.458a.963.963 0 0 1-.7-.294l-1.148-1.148a.963.963 0 0 1-.294-.7v-5.054c0-.266.098-.504.294-.7l1.148-1.148a.963.963 0 0 1 .7-.294h3.444c.266 0 .518.098.7.294l1.148 1.148a.978.978 0 0 1 .308.7v5.054Zm-1.288-.168.014-4.718c0-.07-.042-.14-.084-.196l-.798-.798a.276.276 0 0 0-.196-.084h-3.038a.254.254 0 0 0-.196.084l-.798.798a.276.276 0 0 0-.084.196v4.718c0 .07.028.14.084.196l.798.798a.254.254 0 0 0 .196.084h3.024c.084 0 .154-.028.196-.084l.798-.798a.276.276 0 0 0 .084-.196ZM10.226 412h-1.54l-2.66-3.836a.313.313 0 0 0-.238-.126H3.94V412H2.666v-9.338h5.082a.92.92 0 0 1 .672.28l.826.826c.196.196.308.42.308.7v1.764c0 .28-.112.518-.294.7l-.826.826a.943.943 0 0 1-.672.28h-.35L10.226 412Zm-1.96-5.936.014-1.428a.284.284 0 0 0-.084-.196l-.462-.462a.254.254 0 0 0-.196-.084H3.94v2.912h3.584c.084 0 .154-.028.196-.084l.462-.462a.254.254 0 0 0 .084-.196ZM18.104 412H12.07v-9.338h6.034v1.232h-4.76v2.814h4.76v1.232h-4.76v2.828h4.76V412Zm9.108-1.806c0 .266-.098.504-.28.7l-.826.812a.933.933 0 0 1-.686.294h-5.082v-9.338h5.068c.28 0 .504.098.7.294l.826.826c.196.196.28.406.28.686v1.358a.963.963 0 0 1-.294.7l-.812.798.812.812c.196.196.294.42.294.686v1.372Zm-1.274-4.494.014-1.064c0-.07-.028-.14-.084-.196l-.462-.462a.254.254 0 0 0-.196-.084h-3.598v2.842h3.304c.07 0 .154-.042.196-.084l.742-.742a.264.264 0 0 0 .084-.21Zm.014 4.326v-1.05a.284.284 0 0 0-.084-.196l-.756-.756c-.056-.056-.126-.098-.196-.098h-3.304v2.842h3.584c.07 0 .154-.028.196-.084l.462-.462c.056-.056.098-.112.098-.196ZM36.945 412h-1.302l-.952-2.506h-4.186L29.553 412h-1.274l3.5-9.338h1.68L36.945 412Zm-2.716-3.682-1.624-4.508-1.652 4.508h3.276ZM44.44 412h-6.034v-9.338h1.274v8.106h4.76V412Zm8.795 0h-1.302l-.952-2.506h-4.186L45.844 412H44.57l3.5-9.338h1.68L53.236 412Zm-2.716-3.682-1.624-4.508-1.652 4.508h3.276ZM61.586 412h-1.904l-3.724-7.882V412h-1.26v-9.338h1.904l3.724 7.882v-7.882h1.26V412Zm9.135-1.61-1.316 1.316a.963.963 0 0 1-.7.294h-2.73a.963.963 0 0 1-.7-.294l-1.148-1.148a.963.963 0 0 1-.294-.7v-5.054c0-.266.098-.504.294-.7l1.148-1.148a.963.963 0 0 1 .7-.294h2.73c.266 0 .504.098.7.294l1.316 1.316-.868.868-1.162-1.162a.254.254 0 0 0-.196-.084h-2.31a.254.254 0 0 0-.196.084l-.798.798a.276.276 0 0 0-.084.196v4.718c0 .07.028.14.084.196l.798.798a.254.254 0 0 0 .196.084h2.31c.084 0 .14-.028.196-.084l1.148-1.162.882.868Zm7.684 1.61H72.37v-9.338h6.034v1.232h-4.76v2.814h4.76v1.232h-4.76v2.828h4.76V412Zm13.276 0H90.38l-.952-2.506h-4.186L84.29 412h-1.274l3.5-9.338h1.68L91.681 412Zm-2.716-3.682-1.624-4.508-1.652 4.508h3.276Zm11.333 1.54c0 .266-.112.504-.294.7l-1.148 1.148a.987.987 0 0 1-.7.294h-3.584a.963.963 0 0 1-.7-.294l-1.316-1.316.868-.868 1.162 1.162a.254.254 0 0 0 .196.084h3.15c.084 0 .154-.028.196-.084l.798-.798c.056-.056.098-.126.098-.196v-1.148c0-.154-.14-.266-.266-.28l-5.278-.686c-.518-.07-.924-.518-.924-1.036v-1.736c0-.266.098-.504.294-.7l1.148-1.148a.963.963 0 0 1 .7-.294h3.57c.266 0 .518.098.7.294l1.33 1.316-.868.868-1.162-1.162a.276.276 0 0 0-.196-.084h-3.164a.254.254 0 0 0-.196.084l-.798.798a.276.276 0 0 0-.084.196v1.148c0 .14.112.266.252.28l5.292.686c.518.07.924.518.924 1.036v1.736Zm12.484-3.626c0 .28-.112.518-.294.7l-.826.826a.943.943 0 0 1-.672.28h-3.822V412h-1.274v-9.338h5.082a.92.92 0 0 1 .672.28l.826.826c.196.196.308.42.308.7v1.764Zm-1.288-.168.014-1.428a.284.284 0 0 0-.084-.196l-.462-.462a.254.254 0 0 0-.196-.084h-3.598v2.912h3.584c.084 0 .154-.028.196-.084l.462-.462a.254.254 0 0 0 .084-.196ZM122.037 412h-1.54l-2.66-3.836a.313.313 0 0 0-.238-.126h-1.848V412h-1.274v-9.338h5.082a.92.92 0 0 1 .672.28l.826.826c.196.196.308.42.308.7v1.764c0 .28-.112.518-.294.7l-.826.826a.943.943 0 0 1-.672.28h-.35l2.814 3.962Zm-1.96-5.936.014-1.428a.284.284 0 0 0-.084-.196l-.462-.462a.254.254 0 0 0-.196-.084h-3.598v2.912h3.584c.084 0 .154-.028.196-.084l.462-.462a.254.254 0 0 0 .084-.196Zm7.57 5.936h-4.746v-1.148h1.736v-7.042h-1.736v-1.148h4.746v1.148h-1.736v7.042h1.736V412Zm8.141-1.61-1.316 1.316a.963.963 0 0 1-.7.294h-2.73a.963.963 0 0 1-.7-.294l-1.148-1.148a.963.963 0 0 1-.294-.7v-5.054c0-.266.098-.504.294-.7l1.148-1.148a.963.963 0 0 1 .7-.294h2.73c.266 0 .504.098.7.294l1.316 1.316-.868.868-1.162-1.162a.254.254 0 0 0-.196-.084h-2.31a.254.254 0 0 0-.196.084l-.798.798a.276.276 0 0 0-.084.196v4.718c0 .07.028.14.084.196l.798.798a.254.254 0 0 0 .196.084h2.31c.084 0 .14-.028.196-.084l1.148-1.162.882.868Zm7.684 1.61h-6.034v-9.338h6.034v1.232h-4.76v2.814h4.76v1.232h-4.76v2.828h4.76V412Zm14.859 0h-1.246v-8.148L154.439 412h-1.288l-2.632-8.148V412h-1.26v-9.338h2.086l2.45 7.588 2.45-7.588h2.086V412Zm9.978-2.142c0 .266-.112.504-.294.7l-1.148 1.148a.987.987 0 0 1-.7.294h-3.458a.963.963 0 0 1-.7-.294l-1.148-1.148a.963.963 0 0 1-.294-.7v-5.054c0-.266.098-.504.294-.7l1.148-1.148a.963.963 0 0 1 .7-.294h3.444c.266 0 .518.098.7.294l1.148 1.148a.978.978 0 0 1 .308.7v5.054Zm-1.288-.168.014-4.718c0-.07-.042-.14-.084-.196l-.798-.798a.276.276 0 0 0-.196-.084h-3.038a.254.254 0 0 0-.196.084l-.798.798a.276.276 0 0 0-.084.196v4.718c0 .07.028.14.084.196l.798.798a.254.254 0 0 0 .196.084h3.024c.084 0 .154-.028.196-.084l.798-.798a.276.276 0 0 0 .084-.196Zm10.029-7.028L173.956 412h-1.694l-3.08-9.338h1.302l2.646 8.162 2.646-8.162h1.274Zm7.287 9.338h-6.034v-9.338h6.034v1.232h-4.76v2.814h4.76v1.232h-4.76v2.828h4.76V412Zm9.389-2.142c0 .266-.112.504-.294.7l-1.148 1.148a.987.987 0 0 1-.7.294H188a.963.963 0 0 1-.7-.294l-1.316-1.316.868-.868 1.162 1.162a.254.254 0 0 0 .196.084h3.15c.084 0 .154-.028.196-.084l.798-.798c.056-.056.098-.126.098-.196v-1.148c0-.154-.14-.266-.266-.28l-5.278-.686c-.518-.07-.924-.518-.924-1.036v-1.736c0-.266.098-.504.294-.7l1.148-1.148a.963.963 0 0 1 .7-.294h3.57c.266 0 .518.098.7.294l1.33 1.316-.868.868-1.162-1.162a.276.276 0 0 0-.196-.084h-3.164a.254.254 0 0 0-.196.084l-.798.798a.276.276 0 0 0-.084.196v1.148c0 .14.112.266.252.28l5.292.686c.518.07.924.518.924 1.036v1.736Zm3.248 2.142h-1.498v-1.484h1.498V412Z"/>
  <g clip-path="url(#b)">
    <path stroke="#84E0F7" d="m1 522 59.43-34.701 91.394 24.291 136.84-38.667L388.547 464 429 515.556"/>
    <path stroke="#84E0F7" stroke-dasharray="2 2" d="M1 493.5h428M215.505 280.005v428"/>
    <circle cx="33" cy="33" r="32.5" fill="#1D1D1F" stroke="#84E0F7" stroke-dasharray="1 12" transform="matrix(-1 0 0 1 248 461)"/>
    <circle cx="24" cy="24" r="23.5" stroke="#84E0F7" transform="matrix(-1 0 0 1 239 470)"/>
    <path fill="#84E0F7" fill-opacity=".1" d="M22 435v29.326H1V435zm0 87.674V552H1v-29.326z"/>
    <path fill="#84E0F7" fill-opacity=".1" d="M22 435v58.042H1V435z"/>
    <path fill="#84E0F7" fill-opacity=".1" d="M22 435v87.674H1V435zm407 117v-29.326h-21V552zm0-87.674V435h-21v29.326z"/>
    <path fill="#84E0F7" fill-opacity=".1" d="M429 552v-58.042h-21V552z"/>
    <path fill="#84E0F7" fill-opacity=".1" d="M429 552v-87.674h-21V552z"/>
    <path fill="#84E0F7" d="M422 435h-8v8h8z"/>
    <path stroke="#84E0F7" d="M428.5 435.5h-7v7h7z"/>
    <path fill="#84E0F7" d="M9 544H1v8h8z"/>
    <path stroke="#84E0F7" d="M15.5 544.5h-7v7h7z"/>
    <circle cx="215" cy="494" r="7" fill="#84E0F7" fill-opacity=".1"/>
    <circle cx="215" cy="494" r="3.5" fill="#84E0F7"/>
    <path fill="#1D1D1F" stroke="#84E0F7" d="M212.5 520.5h6v-6h-6zm0-47h6v-6h-6z"/>
  </g>
  <path stroke="#84E0F7" d="M1.5 435.5h427v116H1.5z"/>
  <path stroke="#84E0F7" stroke-dasharray="2 2" d="M1 591.5h428"/>
  <path stroke="#84E0F7" d="M1.5 632.5h427v24H1.5z"/>
  <path fill="#84E0F7" d="m19.55 646.89-1.316 1.316a.963.963 0 0 1-.7.294h-2.73a.963.963 0 0 1-.7-.294l-1.148-1.148a.963.963 0 0 1-.294-.7v-5.054c0-.266.098-.504.294-.7l1.148-1.148a.963.963 0 0 1 .7-.294h2.73c.266 0 .504.098.7.294l1.316 1.316-.868.868-1.162-1.162a.254.254 0 0 0-.196-.084h-2.31a.254.254 0 0 0-.196.084l-.798.798a.276.276 0 0 0-.084.196v4.718c0 .07.028.14.084.196l.798.798a.254.254 0 0 0 .196.084h2.31c.084 0 .14-.028.196-.084l1.148-1.162.882.868Zm9-.532c0 .266-.112.504-.294.7l-1.148 1.148a.987.987 0 0 1-.7.294H22.95a.963.963 0 0 1-.7-.294l-1.148-1.148a.963.963 0 0 1-.294-.7v-5.054c0-.266.098-.504.294-.7l1.148-1.148a.963.963 0 0 1 .7-.294h3.444c.266 0 .518.098.7.294l1.148 1.148a.978.978 0 0 1 .308.7v5.054Zm-1.288-.168.014-4.718c0-.07-.042-.14-.084-.196l-.798-.798a.276.276 0 0 0-.196-.084H23.16a.254.254 0 0 0-.196.084l-.798.798a.276.276 0 0 0-.084.196v4.718c0 .07.028.14.084.196l.798.798a.254.254 0 0 0 .196.084h3.024c.084 0 .154-.028.196-.084l.798-.798a.276.276 0 0 0 .084-.196Zm10.42 2.31h-1.904l-3.724-7.882v7.882h-1.26v-9.338H32.7l3.724 7.882v-7.882h1.26v9.338Zm8.337-8.106h-2.8v8.106h-1.274v-8.106h-2.8v-1.232h6.874v1.232Zm9.01 8.106h-1.54l-2.66-3.836a.313.313 0 0 0-.238-.126h-1.848v3.962h-1.274v-9.338h5.082a.92.92 0 0 1 .672.28l.826.826c.196.196.308.42.308.7v1.764c0 .28-.112.518-.294.7l-.826.826a.943.943 0 0 1-.672.28h-.35l2.814 3.962Zm-1.96-5.936.014-1.428a.284.284 0 0 0-.084-.196l-.462-.462a.254.254 0 0 0-.196-.084h-3.598v2.912h3.584c.084 0 .154-.028.196-.084l.462-.462a.254.254 0 0 0 .084-.196Zm11.153 3.794c0 .266-.112.504-.294.7l-1.148 1.148a.987.987 0 0 1-.7.294h-3.458a.963.963 0 0 1-.7-.294l-1.148-1.148a.963.963 0 0 1-.294-.7v-5.054c0-.266.098-.504.294-.7l1.148-1.148a.963.963 0 0 1 .7-.294h3.444c.266 0 .518.098.7.294l1.148 1.148a.978.978 0 0 1 .308.7v5.054Zm-1.288-.168.014-4.718c0-.07-.042-.14-.084-.196l-.798-.798a.276.276 0 0 0-.196-.084h-3.038a.254.254 0 0 0-.196.084l-.798.798a.276.276 0 0 0-.084.196v4.718c0 .07.028.14.084.196l.798.798a.254.254 0 0 0 .196.084h3.024c.084 0 .154-.028.196-.084l.798-.798a.276.276 0 0 0 .084-.196Zm9.567 2.31h-6.034v-9.338h1.274v8.106h4.76v1.232Zm7.34 0h-6.035v-9.338h1.274v8.106h4.76v1.232Zm7.338 0h-6.034v-9.338h6.034v1.232h-4.76v2.814h4.76v1.232h-4.76v2.828h4.76v1.232Zm9.123-2.142c0 .266-.112.504-.294.7l-1.148 1.148a.987.987 0 0 1-.7.294h-4.746v-9.338h4.732c.266 0 .518.098.7.294l1.148 1.148a.978.978 0 0 1 .308.7v5.054Zm-1.288-.168.014-4.718c0-.07-.042-.14-.084-.196l-.798-.798a.276.276 0 0 0-.196-.084h-3.262v6.874h3.248c.084 0 .154-.028.196-.084l.798-.798a.276.276 0 0 0 .084-.196Zm14.432.168c0 .266-.112.504-.294.7l-1.148 1.148a.987.987 0 0 1-.7.294h-3.458a.963.963 0 0 1-.7-.294l-1.148-1.148a.963.963 0 0 1-.294-.7v-5.054c0-.266.098-.504.294-.7l1.148-1.148a.963.963 0 0 1 .7-.294h3.444c.266 0 .518.098.7.294l1.148 1.148a.978.978 0 0 1 .308.7v5.054Zm-1.288-.168.014-4.718c0-.07-.042-.14-.084-.196l-.798-.798a.276.276 0 0 0-.196-.084h-3.038a.254.254 0 0 0-.196.084l-.798.798a.276.276 0 0 0-.084.196v4.718c0 .07.028.14.084.196l.798.798a.254.254 0 0 0 .196.084h3.024c.084 0 .154-.028.196-.084l.798-.798a.276.276 0 0 0 .084-.196Zm10.421 2.31h-1.904l-3.724-7.882v7.882h-1.26v-9.338h1.904l3.724 7.882v-7.882h1.26v9.338Zm8.673 0h-6.034v-9.338h6.034v1.232h-4.76v2.814h4.76v1.232h-4.76v2.828h4.76v1.232Zm6.014-2.814-3.934.014v-1.064h3.934v1.05Zm9.633.672c0 .266-.112.504-.294.7l-1.148 1.148a.987.987 0 0 1-.7.294h-3.584a.963.963 0 0 1-.7-.294l-1.316-1.316.868-.868 1.162 1.162a.254.254 0 0 0 .196.084h3.15c.084 0 .154-.028.196-.084l.798-.798c.056-.056.098-.126.098-.196v-1.148c0-.154-.14-.266-.266-.28l-5.278-.686c-.518-.07-.924-.518-.924-1.036v-1.736c0-.266.098-.504.294-.7l1.148-1.148a.963.963 0 0 1 .7-.294h3.57c.266 0 .518.098.7.294l1.33 1.316-.868.868-1.162-1.162a.276.276 0 0 0-.196-.084h-3.164a.254.254 0 0 0-.196.084l-.798.798a.276.276 0 0 0-.084.196v1.148c0 .14.112.266.252.28l5.292.686c.518.07.924.518.924 1.036v1.736Zm5.811 2.142h-4.746v-1.148h1.736v-7.042h-1.736v-1.148h4.746v1.148h-1.736v7.042h1.736v1.148Zm8.533-2.142c0 .266-.112.504-.294.7l-1.148 1.148a.987.987 0 0 1-.7.294h-4.746v-9.338h4.732c.266 0 .518.098.7.294l1.148 1.148a.978.978 0 0 1 .308.7v5.054Zm-1.288-.168.014-4.718c0-.07-.042-.14-.084-.196l-.798-.798a.276.276 0 0 0-.196-.084h-3.262v6.874h3.248c.084 0 .154-.028.196-.084l.798-.798a.276.276 0 0 0 .084-.196Zm9.564 2.31h-6.034v-9.338h6.034v1.232h-4.76v2.814h4.76v1.232h-4.76v2.828h4.76v1.232Zm9.123-2.142c0 .266-.112.504-.294.7l-1.148 1.148a.987.987 0 0 1-.7.294h-4.746v-9.338h4.732c.266 0 .518.098.7.294l1.148 1.148a.978.978 0 0 1 .308.7v5.054Zm-1.288-.168.014-4.718c0-.07-.042-.14-.084-.196l-.798-.798a.276.276 0 0 0-.196-.084h-3.262v6.874h3.248c.084 0 .154-.028.196-.084l.798-.798a.276.276 0 0 0 .084-.196Zm13.116 2.31h-6.034v-9.338h6.034v1.232h-4.76v2.814h4.76v1.232h-4.76v2.828h4.76v1.232Zm8.283 0h-1.456l-2.058-3.514-2.086 3.514h-1.428l2.814-4.662-2.814-4.676h1.442l2.072 3.528 2.072-3.528h1.428l-2.814 4.662 2.828 4.676Zm8.534-5.768c0 .28-.112.518-.294.7l-.826.826a.943.943 0 0 1-.672.28h-3.822v3.962h-1.274v-9.338h5.082a.92.92 0 0 1 .672.28l.826.826c.196.196.308.42.308.7v1.764Zm-1.288-.168.014-1.428a.284.284 0 0 0-.084-.196l-.462-.462a.254.254 0 0 0-.196-.084h-3.598v2.912h3.584c.084 0 .154-.028.196-.084l.462-.462a.254.254 0 0 0 .084-.196Zm10.333 3.794c0 .266-.112.504-.294.7l-1.148 1.148a.987.987 0 0 1-.7.294h-3.458a.963.963 0 0 1-.7-.294l-1.148-1.148a.963.963 0 0 1-.294-.7v-5.054c0-.266.098-.504.294-.7l1.148-1.148a.963.963 0 0 1 .7-.294h3.444c.266 0 .518.098.7.294l1.148 1.148a.978.978 0 0 1 .308.7v5.054Zm-1.288-.168.014-4.718c0-.07-.042-.14-.084-.196l-.798-.798a.276.276 0 0 0-.196-.084h-3.038a.254.254 0 0 0-.196.084l-.798.798a.276.276 0 0 0-.084.196v4.718c0 .07.028.14.084.196l.798.798a.254.254 0 0 0 .196.084h3.024c.084 0 .154-.028.196-.084l.798-.798a.276.276 0 0 0 .084-.196Zm10.687.168c0 .266-.112.504-.294.7l-1.148 1.148a.987.987 0 0 1-.7.294h-3.584a.963.963 0 0 1-.7-.294l-1.316-1.316.868-.868 1.162 1.162a.254.254 0 0 0 .196.084h3.15c.084 0 .154-.028.196-.084l.798-.798c.056-.056.098-.126.098-.196v-1.148c0-.154-.14-.266-.266-.28l-5.278-.686c-.518-.07-.924-.518-.924-1.036v-1.736c0-.266.098-.504.294-.7l1.148-1.148a.963.963 0 0 1 .7-.294h3.57c.266 0 .518.098.7.294l1.33 1.316-.868.868-1.162-1.162a.276.276 0 0 0-.196-.084h-3.164a.254.254 0 0 0-.196.084l-.798.798a.276.276 0 0 0-.084.196v1.148c0 .14.112.266.252.28l5.292.686c.518.07.924.518.924 1.036v1.736Zm8.737 0c0 .266-.112.504-.294.7l-1.148 1.148a.987.987 0 0 1-.7.294h-2.604a.963.963 0 0 1-.7-.294l-1.148-1.148a.963.963 0 0 1-.294-.7v-7.196h1.274v7.028c0 .07.028.14.084.196l.798.798a.254.254 0 0 0 .196.084h2.17c.084 0 .154-.028.196-.084l.798-.798a.276.276 0 0 0 .084-.196v-7.028h1.288v7.196Zm9.998 2.142h-1.54l-2.66-3.836a.313.313 0 0 0-.238-.126h-1.848v3.962h-1.274v-9.338h5.082a.92.92 0 0 1 .672.28l.826.826c.196.196.308.42.308.7v1.764c0 .28-.112.518-.294.7l-.826.826a.943.943 0 0 1-.672.28h-.35l2.814 3.962Zm-1.96-5.936.014-1.428a.284.284 0 0 0-.084-.196l-.462-.462a.254.254 0 0 0-.196-.084h-3.598v2.912h3.584c.084 0 .154-.028.196-.084l.462-.462a.254.254 0 0 0 .084-.196Zm9.837 5.936h-6.034v-9.338h6.034v1.232h-4.76v2.814h4.76v1.232h-4.76v2.828h4.76v1.232Z"/>
  <path fill="#E8EAF0" fill-opacity=".38" d="M9.554 674.232c0 .28-.112.518-.294.7l-.826.826a.943.943 0 0 1-.672.28H3.94V680H2.666v-9.338h5.082a.92.92 0 0 1 .672.28l.826.826c.196.196.308.42.308.7v1.764Zm-1.288-.168.014-1.428a.284.284 0 0 0-.084-.196l-.462-.462a.254.254 0 0 0-.196-.084H3.94v2.912h3.584c.084 0 .154-.028.196-.084l.462-.462a.254.254 0 0 0 .084-.196Zm6.75 5.936h-4.747v-1.148h1.736v-7.042H10.27v-1.148h4.746v1.148H13.28v7.042h1.736V680Zm8.14-1.61-1.316 1.316a.963.963 0 0 1-.7.294h-2.73a.963.963 0 0 1-.7-.294l-1.148-1.148a.963.963 0 0 1-.294-.7v-5.054c0-.266.098-.504.294-.7l1.148-1.148a.963.963 0 0 1 .7-.294h2.73a.96.96 0 0 1 .7.294l1.317 1.316-.869.868-1.162-1.162a.254.254 0 0 0-.196-.084h-2.31a.254.254 0 0 0-.196.084l-.797.798a.276.276 0 0 0-.084.196v4.718c0 .07.027.14.084.196l.797.798a.254.254 0 0 0 .197.084h2.31a.25.25 0 0 0 .195-.084l1.148-1.162.883.868Zm8.356 1.61h-1.68l-3.752-4.06V680h-1.274v-9.338h1.274v4.06l3.794-4.06h1.638l-4.368 4.662L31.512 680Zm11.076-9.338-3.248 5.208V680h-1.274v-4.13l-3.262-5.208h1.428l2.478 3.962 2.478-3.962h1.4Zm8.605 7.196c0 .266-.112.504-.294.7l-1.148 1.148a.987.987 0 0 1-.7.294h-3.458a.963.963 0 0 1-.7-.294l-1.148-1.148a.963.963 0 0 1-.294-.7v-5.054c0-.266.098-.504.294-.7l1.148-1.148a.963.963 0 0 1 .7-.294h3.444c.266 0 .518.098.7.294l1.148 1.148a.978.978 0 0 1 .308.7v5.054Zm-1.288-.168.014-4.718c0-.07-.042-.14-.084-.196l-.798-.798a.276.276 0 0 0-.196-.084h-3.038a.254.254 0 0 0-.196.084l-.798.798a.276.276 0 0 0-.084.196v4.718c0 .07.028.14.084.196l.798.798a.254.254 0 0 0 .196.084h3.024c.084 0 .154-.028.196-.084l.798-.798a.276.276 0 0 0 .084-.196Zm10.225.168c0 .266-.112.504-.294.7l-1.148 1.148a.987.987 0 0 1-.7.294h-2.604a.963.963 0 0 1-.7-.294l-1.148-1.148a.963.963 0 0 1-.294-.7v-7.196h1.274v7.028c0 .07.028.14.084.196l.798.798a.254.254 0 0 0 .196.084h2.17c.084 0 .154-.028.196-.084l.798-.798a.276.276 0 0 0 .084-.196v-7.028h1.288v7.196ZM70.128 680h-1.54l-2.66-3.836a.313.313 0 0 0-.238-.126h-1.848V680h-1.274v-9.338h5.082a.92.92 0 0 1 .672.28l.826.826c.196.196.308.42.308.7v1.764c0 .28-.112.518-.294.7l-.826.826a.943.943 0 0 1-.672.28h-.35L70.128 680Zm-1.96-5.936.014-1.428a.284.284 0 0 0-.084-.196l-.462-.462a.254.254 0 0 0-.196-.084h-3.598v2.912h3.584c.084 0 .154-.028.196-.084l.462-.462a.254.254 0 0 0 .084-.196ZM79.289 680h-4.746v-1.148h1.736v-7.042h-1.736v-1.148h4.746v1.148h-1.736v7.042h1.736V680Zm8.534 0h-1.904l-3.724-7.882V680h-1.26v-9.338h1.904l3.724 7.882v-7.882h1.26V680Zm9.134-9.338L93.863 680H92.17l-3.08-9.338h1.302l2.646 8.162 2.646-8.162h1.274Zm7.288 9.338H98.21v-9.338h6.035v1.232h-4.76v2.814h4.76v1.232h-4.76v2.828h4.76V680Zm9.122 0h-1.904l-3.724-7.882V680h-1.26v-9.338h1.904l3.724 7.882v-7.882h1.26V680Zm8.337-8.106h-2.8V680h-1.274v-8.106h-2.8v-1.232h6.874v1.232Zm8.8 5.964c0 .266-.112.504-.294.7l-1.148 1.148a.987.987 0 0 1-.7.294h-3.458a.963.963 0 0 1-.7-.294l-1.148-1.148a.963.963 0 0 1-.294-.7v-5.054c0-.266.098-.504.294-.7l1.148-1.148a.963.963 0 0 1 .7-.294h3.444c.266 0 .518.098.7.294l1.148 1.148a.978.978 0 0 1 .308.7v5.054Zm-1.288-.168.014-4.718c0-.07-.042-.14-.084-.196l-.798-.798a.276.276 0 0 0-.196-.084h-3.038a.254.254 0 0 0-.196.084l-.798.798a.276.276 0 0 0-.084.196v4.718c0 .07.028.14.084.196l.798.798a.254.254 0 0 0 .196.084h3.024c.084 0 .154-.028.196-.084l.798-.798a.276.276 0 0 0 .084-.196Zm11.092 2.31h-1.54l-2.66-3.836a.313.313 0 0 0-.238-.126h-1.848V680h-1.274v-9.338h5.082a.92.92 0 0 1 .672.28l.826.826c.196.196.308.42.308.7v1.764c0 .28-.112.518-.294.7l-.826.826a.943.943 0 0 1-.672.28h-.35l2.814 3.962Zm-1.96-5.936.014-1.428a.284.284 0 0 0-.084-.196l-.462-.462a.254.254 0 0 0-.196-.084h-3.598v2.912h3.584c.084 0 .154-.028.196-.084l.462-.462a.254.254 0 0 0 .084-.196Zm10.216-3.402-3.248 5.208V680h-1.274v-4.13l-3.262-5.208h1.428l2.478 3.962 2.478-3.962h1.4Zm11.695 7.196c0 .266-.112.504-.294.7l-1.148 1.148a.987.987 0 0 1-.7.294h-4.746v-9.338h4.732c.266 0 .518.098.7.294l1.148 1.148a.978.978 0 0 1 .308.7v5.054Zm-1.288-.168.014-4.718c0-.07-.042-.14-.084-.196l-.798-.798a.276.276 0 0 0-.196-.084h-3.262v6.874h3.248c.084 0 .154-.028.196-.084l.798-.798a.276.276 0 0 0 .084-.196Zm7.296 2.31h-4.746v-1.148h1.736v-7.042h-1.736v-1.148h4.746v1.148h-1.736v7.042h1.736V680Zm9.205 0h-1.54l-2.66-3.836a.313.313 0 0 0-.238-.126h-1.848V680h-1.274v-9.338h5.082a.92.92 0 0 1 .672.28l.826.826c.196.196.308.42.308.7v1.764c0 .28-.112.518-.294.7l-.826.826a.943.943 0 0 1-.672.28h-.35l2.814 3.962Zm-1.96-5.936.014-1.428a.284.284 0 0 0-.084-.196l-.462-.462a.254.254 0 0 0-.196-.084h-3.598v2.912h3.584c.084 0 .154-.028.196-.084l.462-.462a.254.254 0 0 0 .084-.196ZM183.35 680h-6.034v-9.338h6.034v1.232h-4.76v2.814h4.76v1.232h-4.76v2.828h4.76V680Zm8.731-1.61-1.316 1.316a.963.963 0 0 1-.7.294h-2.73a.963.963 0 0 1-.7-.294l-1.148-1.148a.963.963 0 0 1-.294-.7v-5.054c0-.266.098-.504.294-.7l1.148-1.148a.963.963 0 0 1 .7-.294h2.73c.266 0 .504.098.7.294l1.316 1.316-.868.868-1.162-1.162a.254.254 0 0 0-.196-.084h-2.31a.254.254 0 0 0-.196.084l-.798.798a.276.276 0 0 0-.084.196v4.718c0 .07.028.14.084.196l.798.798a.254.254 0 0 0 .196.084h2.31c.084 0 .14-.028.196-.084l1.148-1.162.882.868Zm7.347-6.496h-2.8V680h-1.274v-8.106h-2.8v-1.232h6.874v1.232Zm5.216 8.106h-4.746v-1.148h1.736v-7.042h-1.736v-1.148h4.746v1.148h-1.736v7.042h1.736V680Zm8.995-2.142c0 .266-.112.504-.294.7l-1.148 1.148a.987.987 0 0 1-.7.294h-3.458a.963.963 0 0 1-.7-.294l-1.148-1.148a.963.963 0 0 1-.294-.7v-5.054c0-.266.098-.504.294-.7l1.148-1.148a.963.963 0 0 1 .7-.294h3.444c.266 0 .518.098.7.294l1.148 1.148a.978.978 0 0 1 .308.7v5.054Zm-1.288-.168.014-4.718c0-.07-.042-.14-.084-.196l-.798-.798a.276.276 0 0 0-.196-.084h-3.038a.254.254 0 0 0-.196.084l-.798.798a.276.276 0 0 0-.084.196v4.718c0 .07.028.14.084.196l.798.798a.254.254 0 0 0 .196.084h3.024c.084 0 .154-.028.196-.084l.798-.798a.276.276 0 0 0 .084-.196Zm10.421 2.31h-1.904l-3.724-7.882V680h-1.26v-9.338h1.904l3.724 7.882v-7.882h1.26V680Zm12.225 0h-6.034v-9.338h6.034v1.232h-4.76v2.814h4.76v1.232h-4.76v2.828h4.76V680Zm8.283 0h-1.456l-2.058-3.514L237.68 680h-1.428l2.814-4.662-2.814-4.676h1.442l2.072 3.528 2.072-3.528h1.428l-2.814 4.662L243.28 680Zm8.534-5.768c0 .28-.112.518-.294.7l-.826.826a.943.943 0 0 1-.672.28H246.2V680h-1.274v-9.338h5.082a.92.92 0 0 1 .672.28l.826.826c.196.196.308.42.308.7v1.764Zm-1.288-.168.014-1.428a.284.284 0 0 0-.084-.196l-.462-.462a.254.254 0 0 0-.196-.084H246.2v2.912h3.584c.084 0 .154-.028.196-.084l.462-.462a.254.254 0 0 0 .084-.196Zm9.017 5.936h-6.034v-9.338h1.274v8.106h4.76V680Zm5.071 0h-4.746v-1.148h1.736v-7.042h-1.736v-1.148h4.746v1.148h-1.736v7.042h1.736V680Zm8.142-1.61-1.316 1.316a.963.963 0 0 1-.7.294h-2.73a.963.963 0 0 1-.7-.294l-1.148-1.148a.963.963 0 0 1-.294-.7v-5.054c0-.266.098-.504.294-.7l1.148-1.148a.963.963 0 0 1 .7-.294h2.73c.266 0 .504.098.7.294l1.316 1.316-.868.868-1.162-1.162a.254.254 0 0 0-.196-.084h-2.31a.254.254 0 0 0-.196.084l-.798.798a.276.276 0 0 0-.084.196v4.718c0 .07.028.14.084.196l.798.798a.254.254 0 0 0 .196.084h2.31c.084 0 .14-.028.196-.084l1.148-1.162.882.868Zm5.415 1.61h-4.746v-1.148h1.736v-7.042h-1.736v-1.148h4.746v1.148h-1.736v7.042h1.736V680Zm7.344-8.106h-2.8V680h-1.274v-8.106h-2.8v-1.232h6.874v1.232Zm7.483 8.106h-6.034v-9.338h1.274v8.106h4.76V680Zm7.718-9.338-3.248 5.208V680h-1.274v-4.13l-3.262-5.208h1.428l2.478 3.962 2.478-3.962h1.4Zm2.459 9.338h-1.498v-1.484h1.498V680Z"/>
  <g clip-path="url(#c)">
    <path fill="#84E0F7" d="M67 695h-8v8h8z"/>
    <path stroke="#84E0F7" d="M73.5 695.5h-7v7h7z"/>
    <path fill="#84E0F7" d="M9 760H1v8h8z"/>
    <path stroke="#84E0F7" d="M15.5 760.5h-7v7h7z"/>
    <path stroke="#84E0F7" stroke-width="3" d="M18 730.5h40"/>
  </g>
  <path stroke="#84E0F7" d="M.5 694.5h74v74H.5zm82 1h346v72h-346z"/>
  <path fill="#84E0F7" d="M173.208 735.5h-1.904l-3.724-7.882v7.882h-1.26v-9.338h1.904l3.724 7.882v-7.882h1.26v9.338Zm8.673 0h-6.034v-9.338h6.034v1.232h-4.76v2.814h4.76v1.232h-4.76v2.828h4.76v1.232Zm9.963 0h-1.218l-.266-1.33-1.036 1.036a.933.933 0 0 1-.686.294h-2.772a.963.963 0 0 1-.7-.294l-1.148-1.148a.963.963 0 0 1-.294-.7v-5.054c0-.266.098-.504.294-.7l1.148-1.148a.963.963 0 0 1 .7-.294h3.458c.266 0 .49.098.686.294l1.316 1.316-.868.868-1.162-1.162a.254.254 0 0 0-.196-.084h-3.024a.254.254 0 0 0-.196.084l-.798.798a.276.276 0 0 0-.084.196v4.718c0 .07.028.14.084.196l.798.798a.254.254 0 0 0 .196.084h2.38c.084 0 .154-.028.196-.084l1.47-1.456a.254.254 0 0 0 .084-.196v-1.092h-2.548v-1.232h3.822v3.472l.364 1.82Zm9.534 0h-1.302l-.952-2.506h-4.186l-.952 2.506h-1.274l3.5-9.338h1.68l3.486 9.338Zm-2.716-3.682-1.624-4.508-1.652 4.508h3.276Zm9.877-4.424h-2.8v8.106h-1.274v-8.106h-2.8v-1.232h6.874v1.232Zm5.215 8.106h-4.746v-1.148h1.736v-7.042h-1.736v-1.148h4.746v1.148h-1.736v7.042h1.736v1.148Zm8.142-9.338-3.094 9.338h-1.694l-3.08-9.338h1.302l2.646 8.162 2.646-8.162h1.274Zm7.287 9.338h-6.034v-9.338h6.034v1.232h-4.76v2.814h4.76v1.232h-4.76v2.828h4.76v1.232Zm12.661-1.806c0 .266-.098.504-.28.7l-.826.812a.933.933 0 0 1-.686.294h-5.082v-9.338h5.068c.28 0 .504.098.7.294l.826.826c.196.196.28.406.28.686v1.358a.963.963 0 0 1-.294.7l-.812.798.812.812c.196.196.294.42.294.686v1.372Zm-1.274-4.494.014-1.064c0-.07-.028-.14-.084-.196l-.462-.462a.254.254 0 0 0-.196-.084h-3.598v2.842h3.304c.07 0 .154-.042.196-.084l.742-.742a.264.264 0 0 0 .084-.21Zm.014 4.326v-1.05a.284.284 0 0 0-.084-.196l-.756-.756c-.056-.056-.126-.098-.196-.098h-3.304v2.842h3.584c.07 0 .154-.028.196-.084l.462-.462c.056-.056.098-.112.098-.196Zm7.268 1.974h-4.746v-1.148h1.736v-7.042h-1.736v-1.148h4.746v1.148h-1.736v7.042h1.736v1.148Zm8.533 0h-1.904l-3.724-7.882v7.882h-1.26v-9.338h1.904l3.724 7.882v-7.882h1.26v9.338Zm9.793-2.142c0 .266-.112.504-.294.7l-1.148 1.148a.987.987 0 0 1-.7.294h-3.584a.963.963 0 0 1-.7-.294l-1.316-1.316.868-.868 1.162 1.162a.254.254 0 0 0 .196.084h3.15c.084 0 .154-.028.196-.084l.798-.798c.056-.056.098-.126.098-.196v-1.148c0-.154-.14-.266-.266-.28l-5.278-.686c-.518-.07-.924-.518-.924-1.036v-1.736c0-.266.098-.504.294-.7l1.148-1.148a.963.963 0 0 1 .7-.294h3.57c.266 0 .518.098.7.294l1.33 1.316-.868.868-1.162-1.162a.276.276 0 0 0-.196-.084h-3.164a.254.254 0 0 0-.196.084l-.798.798a.276.276 0 0 0-.084.196v1.148c0 .14.112.266.252.28l5.292.686c.518.07.924.518.924 1.036v1.736Zm11.518-2.058-6.678.014v-1.078h6.678v1.064Zm0 2.772h-6.678v-1.078h6.678v1.078Zm12.308-.378c0 .266-.098.504-.28.7l-.826.812a.933.933 0 0 1-.686.294h-5.082v-9.338h5.068c.28 0 .504.098.7.294l.826.826c.196.196.28.406.28.686v1.358a.963.963 0 0 1-.294.7l-.812.798.812.812c.196.196.294.42.294.686v1.372Zm-1.274-4.494.014-1.064c0-.07-.028-.14-.084-.196l-.462-.462a.254.254 0 0 0-.196-.084h-3.598v2.842h3.304c.07 0 .154-.042.196-.084l.742-.742a.264.264 0 0 0 .084-.21Zm.014 4.326v-1.05a.284.284 0 0 0-.084-.196l-.756-.756c-.056-.056-.126-.098-.196-.098h-3.304v2.842h3.584c.07 0 .154-.028.196-.084l.462-.462c.056-.056.098-.112.098-.196Zm10.195-.168c0 .266-.112.504-.294.7l-1.148 1.148a.987.987 0 0 1-.7.294h-2.604a.963.963 0 0 1-.7-.294l-1.148-1.148a.963.963 0 0 1-.294-.7v-7.196h1.274v7.028c0 .07.028.14.084.196l.798.798a.254.254 0 0 0 .196.084h2.17c.084 0 .154-.028.196-.084l.798-.798a.276.276 0 0 0 .084-.196v-7.028h1.288v7.196Zm8.85-7.196-3.248 5.208v4.13h-1.274v-4.13l-3.262-5.208h1.428l2.478 3.962 2.478-3.962h1.4Zm5.035 6.524-3.934.014v-1.064h3.934v1.05Zm9.633.672c0 .266-.112.504-.294.7l-1.148 1.148a.987.987 0 0 1-.7.294h-3.584a.963.963 0 0 1-.7-.294l-1.316-1.316.868-.868 1.162 1.162a.254.254 0 0 0 .196.084h3.15c.084 0 .154-.028.196-.084l.798-.798c.056-.056.098-.126.098-.196v-1.148c0-.154-.14-.266-.266-.28l-5.278-.686c-.518-.07-.924-.518-.924-1.036v-1.736c0-.266.098-.504.294-.7l1.148-1.148a.963.963 0 0 1 .7-.294h3.57c.266 0 .518.098.7.294l1.33 1.316-.868.868-1.162-1.162a.276.276 0 0 0-.196-.084h-3.164a.254.254 0 0 0-.196.084l-.798.798a.276.276 0 0 0-.084.196v1.148c0 .14.112.266.252.28l5.292.686c.518.07.924.518.924 1.036v1.736Zm5.81 2.142h-4.746v-1.148h1.736v-7.042h-1.736v-1.148h4.746v1.148h-1.736v7.042h1.736v1.148Zm8.534-2.142c0 .266-.112.504-.294.7l-1.148 1.148a.987.987 0 0 1-.7.294h-4.746v-9.338h4.732c.266 0 .518.098.7.294l1.148 1.148a.978.978 0 0 1 .308.7v5.054Zm-1.288-.168.014-4.718c0-.07-.042-.14-.084-.196l-.798-.798a.276.276 0 0 0-.196-.084h-3.262v6.874h3.248c.084 0 .154-.028.196-.084l.798-.798a.276.276 0 0 0 .084-.196Zm9.564 2.31h-6.034v-9.338h6.034v1.232h-4.76v2.814h4.76v1.232h-4.76v2.828h4.76v1.232Z"/>
  <g clip-path="url(#d)">
    <path fill="#84E0F7" d="M1 768h73v73H1z"/>
    <path fill="#1D1D1F" d="M9 768H1v8h8z"/>
    <path stroke="#1D1D1F" d="M15.5 768.5h-7v7h7z"/>
    <path fill="#1D1D1F" d="M67 833h-8v8h8z"/>
    <path stroke="#1D1D1F" d="M73.5 833.5h-7v7h7z"/>
    <path stroke="#1D1D1F" stroke-width="3" d="M18 803.5h40m-18.495-18.495v40"/>
  </g>
  <path stroke="#84E0F7" d="M.5 767.5h74v74H.5z"/>
  <path fill="#84E0F7" d="M82 768h347v73H82z"/>
  <path fill="#1D1D1F" d="M190.361 802.732c0 .28-.112.518-.294.7l-.826.826a.943.943 0 0 1-.672.28h-3.822v3.962h-1.274v-9.338h5.082a.92.92 0 0 1 .672.28l.826.826c.196.196.308.42.308.7v1.764Zm-1.288-.168.014-1.428a.284.284 0 0 0-.084-.196l-.462-.462a.254.254 0 0 0-.196-.084h-3.598v2.912h3.584c.084 0 .154-.028.196-.084l.462-.462a.254.254 0 0 0 .084-.196Zm10.333 3.794c0 .266-.112.504-.294.7l-1.148 1.148a.987.987 0 0 1-.7.294h-3.458a.963.963 0 0 1-.7-.294l-1.148-1.148a.963.963 0 0 1-.294-.7v-5.054c0-.266.098-.504.294-.7l1.148-1.148a.963.963 0 0 1 .7-.294h3.444c.266 0 .518.098.7.294l1.148 1.148a.978.978 0 0 1 .308.7v5.054Zm-1.288-.168.014-4.718c0-.07-.042-.14-.084-.196l-.798-.798a.276.276 0 0 0-.196-.084h-3.038a.254.254 0 0 0-.196.084l-.798.798a.276.276 0 0 0-.084.196v4.718c0 .07.028.14.084.196l.798.798a.254.254 0 0 0 .196.084h3.024c.084 0 .154-.028.196-.084l.798-.798a.276.276 0 0 0 .084-.196Zm10.687.168c0 .266-.112.504-.294.7l-1.148 1.148a.987.987 0 0 1-.7.294h-3.584a.963.963 0 0 1-.7-.294l-1.316-1.316.868-.868 1.162 1.162a.254.254 0 0 0 .196.084h3.15c.084 0 .154-.028.196-.084l.798-.798c.056-.056.098-.126.098-.196v-1.148c0-.154-.14-.266-.266-.28l-5.278-.686c-.518-.07-.924-.518-.924-1.036v-1.736c0-.266.098-.504.294-.7l1.148-1.148a.963.963 0 0 1 .7-.294h3.57c.266 0 .518.098.7.294l1.33 1.316-.868.868-1.162-1.162a.276.276 0 0 0-.196-.084h-3.164a.254.254 0 0 0-.196.084l-.798.798a.276.276 0 0 0-.084.196v1.148c0 .14.112.266.252.28l5.292.686c.518.07.924.518.924 1.036v1.736Zm5.811 2.142h-4.746v-1.148h1.736v-7.042h-1.736v-1.148h4.746v1.148h-1.736v7.042h1.736v1.148Zm7.343-8.106h-2.8v8.106h-1.274v-8.106h-2.8v-1.232h6.874v1.232Zm5.216 8.106h-4.746v-1.148h1.736v-7.042h-1.736v-1.148h4.746v1.148h-1.736v7.042h1.736v1.148Zm8.141-9.338-3.094 9.338h-1.694l-3.08-9.338h1.302l2.646 8.162 2.646-8.162h1.274Zm7.287 9.338h-6.034v-9.338h6.034v1.232h-4.76v2.814h4.76v1.232h-4.76v2.828h4.76v1.232Zm11.709-4.2-6.678.014v-1.078h6.678v1.064Zm0 2.772h-6.678v-1.078h6.678v1.078Zm12.588-.714c0 .266-.112.504-.294.7l-1.148 1.148a.987.987 0 0 1-.7.294h-3.584a.963.963 0 0 1-.7-.294l-1.316-1.316.868-.868 1.162 1.162a.254.254 0 0 0 .196.084h3.15c.084 0 .154-.028.196-.084l.798-.798c.056-.056.098-.126.098-.196v-1.148c0-.154-.14-.266-.266-.28l-5.278-.686c-.518-.07-.924-.518-.924-1.036v-1.736c0-.266.098-.504.294-.7l1.148-1.148a.963.963 0 0 1 .7-.294h3.57c.266 0 .518.098.7.294l1.33 1.316-.868.868-1.162-1.162a.276.276 0 0 0-.196-.084h-3.164a.254.254 0 0 0-.196.084l-.798.798a.276.276 0 0 0-.084.196v1.148c0 .14.112.266.252.28l5.292.686c.518.07.924.518.924 1.036v1.736Zm8.078 2.142h-6.034v-9.338h6.034v1.232h-4.76v2.814h4.76v1.232h-4.76v2.828h4.76v1.232Zm8.269 0h-6.034v-9.338h1.274v8.106h4.76v1.232Zm7.339 0h-6.034v-9.338h1.274v8.106h4.76v1.232Zm5.085-2.814-3.934.014v-1.064h3.934v1.05Zm9.633.672c0 .266-.112.504-.294.7l-1.148 1.148a.987.987 0 0 1-.7.294h-3.584a.963.963 0 0 1-.7-.294l-1.316-1.316.868-.868 1.162 1.162a.254.254 0 0 0 .196.084h3.15c.084 0 .154-.028.196-.084l.798-.798c.056-.056.098-.126.098-.196v-1.148c0-.154-.14-.266-.266-.28l-5.278-.686c-.518-.07-.924-.518-.924-1.036v-1.736c0-.266.098-.504.294-.7l1.148-1.148a.963.963 0 0 1 .7-.294h3.57c.266 0 .518.098.7.294l1.33 1.316-.868.868-1.162-1.162a.276.276 0 0 0-.196-.084h-3.164a.254.254 0 0 0-.196.084l-.798.798a.276.276 0 0 0-.084.196v1.148c0 .14.112.266.252.28l5.292.686c.518.07.924.518.924 1.036v1.736Zm5.811 2.142h-4.746v-1.148h1.736v-7.042h-1.736v-1.148h4.746v1.148h-1.736v7.042h1.736v1.148Zm8.533-2.142c0 .266-.112.504-.294.7l-1.148 1.148a.987.987 0 0 1-.7.294h-4.746v-9.338h4.732c.266 0 .518.098.7.294l1.148 1.148a.978.978 0 0 1 .308.7v5.054Zm-1.288-.168.014-4.718c0-.07-.042-.14-.084-.196l-.798-.798a.276.276 0 0 0-.196-.084h-3.262v6.874h3.248c.084 0 .154-.028.196-.084l.798-.798a.276.276 0 0 0 .084-.196Zm9.564 2.31h-6.034v-9.338h6.034v1.232h-4.76v2.814h4.76v1.232h-4.76v2.828h4.76v1.232Z"/>
  <defs>
    <clipPath id="a">
      <path fill="#fff" d="M193.445 59a3 3 0 0 1 3-3h38.111a3 3 0 0 1 3 3v157h-44.111V59Z"/>
    </clipPath>
    <clipPath id="b">
      <path fill="#fff" d="M1 435h428v117H1z"/>
    </clipPath>
    <clipPath id="c">
      <path fill="#fff" d="M1 695h73v73H1z"/>
    </clipPath>
    <clipPath id="d">
      <path fill="#fff" d="M1 768h73v73H1z"/>
    </clipPath>
  </defs>
</svg>
