<svg xmlns="http://www.w3.org/2000/svg" width="1481" height="637" fill="none" viewBox="0 0 1481 637">
  <path stroke="#343435" d="M0-.5h1547.16" transform="matrix(.95595 .29354 -.6912 .72266 .906 91.882)"/>
  <path stroke="#343435" d="M.197 636.537 1480.21.459"/>
  <ellipse cx="739.906" cy="341.762" fill="#1D1D1F" stroke="#84E0F7" stroke-opacity=".2" rx="135.5" ry="275" transform="rotate(90 739.906 341.762)"/>
  <ellipse cx="739.406" cy="344.762" stroke="#84E0F7" stroke-dasharray="1.86 22.3" rx="153.5" ry="303.5" transform="rotate(90 739.406 344.762)"/>
  <mask id="a" fill="#fff">
    <path d="M932.906 143.262h105.664v56H932.906v-56Z"/>
  </mask>
  <path fill="#273135" d="M932.906 143.262h105.664v56H932.906v-56Z"/>
  <path fill="#84E0F7" d="M932.906 199.262h3v-56h-6v56h3Z" mask="url(#a)"/>
  <path fill="#84E0F7" d="M958.446 164.456c0 .266-.098.504-.28.7l-.826.812a.933.933 0 0 1-.686.294h-5.082v-9.338h5.068c.28 0 .504.098.7.294l.826.826c.196.196.28.406.28.686v1.358a.963.963 0 0 1-.294.7l-.812.798.812.812c.196.196.294.42.294.686v1.372Zm-1.274-4.494.014-1.064c0-.07-.028-.14-.084-.196l-.462-.462a.254.254 0 0 0-.196-.084h-3.598v2.842h3.304c.07 0 .154-.042.196-.084l.742-.742a.264.264 0 0 0 .084-.21Zm.014 4.326v-1.05a.284.284 0 0 0-.084-.196l-.756-.756c-.056-.056-.126-.098-.196-.098h-3.304v2.842h3.584c.07 0 .154-.028.196-.084l.462-.462c.056-.056.098-.112.098-.196Zm9.537 1.974h-6.034v-9.338h6.034v1.232h-4.76v2.814h4.76v1.232h-4.76v2.828h4.76v1.232Zm7.933-8.106h-2.8v8.106h-1.274v-8.106h-2.8v-1.232h6.874v1.232Zm7.147 0h-2.8v8.106h-1.274v-8.106h-2.8v-1.232h6.874v1.232Zm7.484 8.106h-6.034v-9.338h6.034v1.232h-4.76v2.814h4.76v1.232h-4.76v2.828h4.76v1.232Zm9.795 0h-1.54l-2.66-3.836a.313.313 0 0 0-.238-.126h-1.848v3.962h-1.274v-9.338h5.082a.92.92 0 0 1 .672.28l.826.826c.196.196.308.42.308.7v1.764c0 .28-.112.518-.294.7l-.826.826a.943.943 0 0 1-.672.28h-.35l2.814 3.962Zm-1.96-5.936.014-1.428a.284.284 0 0 0-.084-.196l-.462-.462a.254.254 0 0 0-.196-.084h-3.598v2.912h3.584c.084 0 .154-.028.196-.084l.462-.462a.254.254 0 0 0 .084-.196Zm13.388 5.936h-6.03v-9.338h1.27v8.106h4.76v1.232Zm8.19-5.768c0 .28-.11.518-.29.7l-.83.826a.938.938 0 0 1-.67.28h-3.82v3.962h-1.27v-9.338h5.08c.26 0 .49.098.67.28l.83.826c.19.196.3.42.3.7v1.764Zm-1.28-.168.01-1.428a.29.29 0 0 0-.08-.196l-.47-.462a.239.239 0 0 0-.19-.084h-3.6v2.912h3.58c.09 0 .16-.028.2-.084l.46-.462a.247.247 0 0 0 .09-.196Zm-58.288 23.936h-1.54l-2.66-3.836a.313.313 0 0 0-.238-.126h-1.848v3.962h-1.274v-9.338h5.082a.92.92 0 0 1 .672.28l.826.826c.196.196.308.42.308.7v1.764c0 .28-.112.518-.294.7l-.826.826a.943.943 0 0 1-.672.28h-.35l2.814 3.962Zm-1.96-5.936.014-1.428a.284.284 0 0 0-.084-.196l-.462-.462a.254.254 0 0 0-.196-.084h-3.598v2.912h3.584c.084 0 .154-.028.196-.084l.462-.462a.254.254 0 0 0 .084-.196Zm9.838 5.936h-6.034v-9.338h6.034v1.232h-4.76v2.814h4.76v1.232h-4.76v2.828h4.76v1.232Zm7.933-8.106h-2.8v8.106h-1.274v-8.106h-2.8v-1.232h6.874v1.232Zm8.141 5.964c0 .266-.112.504-.294.7l-1.148 1.148a.987.987 0 0 1-.7.294h-2.604a.963.963 0 0 1-.7-.294l-1.148-1.148a.963.963 0 0 1-.294-.7v-7.196h1.274v7.028c0 .07.028.14.084.196l.798.798a.254.254 0 0 0 .196.084h2.17c.084 0 .154-.028.196-.084l.798-.798a.276.276 0 0 0 .084-.196v-7.028h1.288v7.196Zm9.998 2.142h-1.54l-2.66-3.836a.313.313 0 0 0-.238-.126h-1.848v3.962h-1.274v-9.338h5.082a.92.92 0 0 1 .672.28l.826.826c.196.196.308.42.308.7v1.764c0 .28-.112.518-.294.7l-.826.826a.943.943 0 0 1-.672.28h-.35l2.814 3.962Zm-1.96-5.936.014-1.428a.284.284 0 0 0-.084-.196l-.462-.462a.254.254 0 0 0-.196-.084h-3.598v2.912h3.584c.084 0 .154-.028.196-.084l.462-.462a.254.254 0 0 0 .084-.196Zm10.688 5.936h-1.9l-3.724-7.882v7.882h-1.26v-9.338h1.904l3.72 7.882v-7.882h1.26v9.338Zm9.8-2.142c0 .266-.12.504-.3.7l-1.15 1.148a.963.963 0 0 1-.7.294h-3.58c-.27 0-.5-.098-.7-.294l-1.32-1.316.87-.868 1.16 1.162c.06.056.12.084.2.084h3.15a.26.26 0 0 0 .2-.084l.79-.798a.28.28 0 0 0 .1-.196v-1.148c0-.154-.14-.266-.26-.28l-5.28-.686c-.52-.07-.93-.518-.93-1.036v-1.736c0-.266.1-.504.3-.7l1.15-1.148a.947.947 0 0 1 .7-.294h3.57c.26 0 .51.098.7.294l1.33 1.316-.87.868-1.16-1.162a.293.293 0 0 0-.2-.084h-3.16a.26.26 0 0 0-.2.084l-.8.798a.3.3 0 0 0-.08.196v1.148c0 .14.11.266.25.28l5.29.686c.52.07.93.518.93 1.036v1.736Z"/>
  <path stroke="#84E0F7" stroke-width="3" d="M934.406 185.262v94"/>
  <path fill="#1D1D1F" stroke="#84E0F7" d="M937.406 281.762h-6v-6h6z"/>
  <mask id="b" fill="#fff">
    <path d="M535.906 143.262h153v56h-153v-56Z"/>
  </mask>
  <path fill="#273135" d="M535.906 143.262h153v56h-153v-56Z"/>
  <path fill="#84E0F7" d="M535.906 199.262h2v-56h-4v56h2Z" mask="url(#b)"/>
  <path fill="#84E0F7" d="M563.644 166.262h-1.246v-8.148l-2.646 8.148h-1.288l-2.632-8.148v8.148h-1.26v-9.338h2.086l2.45 7.588 2.45-7.588h2.086v9.338Zm10.119 0h-1.302l-.952-2.506h-4.186l-.952 2.506h-1.274l3.5-9.338h1.68l3.486 9.338Zm-2.716-3.682-1.624-4.508-1.652 4.508h3.276Zm11.738 3.682h-1.54l-2.66-3.836a.313.313 0 0 0-.238-.126h-1.848v3.962h-1.274v-9.338h5.082a.92.92 0 0 1 .672.28l.826.826c.196.196.308.42.308.7v1.764c0 .28-.112.518-.294.7l-.826.826a.943.943 0 0 1-.672.28h-.35l2.814 3.962Zm-1.96-5.936.014-1.428a.284.284 0 0 0-.084-.196l-.462-.462a.254.254 0 0 0-.196-.084h-3.598v2.912h3.584c.084 0 .154-.028.196-.084l.462-.462a.254.254 0 0 0 .084-.196Zm10.51 5.936h-1.68l-3.752-4.06v4.06h-1.274v-9.338h1.274v4.06l3.794-4.06h1.638l-4.368 4.662 4.368 4.676Zm7.145 0h-6.034v-9.338h6.034v1.232h-4.76v2.814h4.76v1.232h-4.76v2.828h4.76v1.232Zm7.933-8.106h-2.8v8.106h-1.274v-8.106h-2.8v-1.232h6.874v1.232Zm5.23 5.292-3.934.014v-1.064h3.934v1.05Zm9.969 2.814h-1.302l-.952-2.506h-4.186l-.952 2.506h-1.274l3.5-9.338h1.68l3.486 9.338Zm-2.716-3.682-1.624-4.508-1.652 4.508h3.276Zm10.212 3.682h-6.034v-9.338h1.274v8.106h4.76v1.232Zm5.071 0h-4.746v-1.148h1.736v-7.042h-1.736v-1.148h4.746v1.148h-1.736v7.042h1.736v1.148Zm9.373 0h-1.218l-.266-1.33-1.036 1.036a.933.933 0 0 1-.686.294h-2.772a.963.963 0 0 1-.7-.294l-1.148-1.148a.963.963 0 0 1-.294-.7v-5.054c0-.266.098-.504.294-.7l1.148-1.148a.963.963 0 0 1 .7-.294h3.458c.266 0 .49.098.686.294l1.316 1.316-.868.868-1.162-1.162a.254.254 0 0 0-.196-.084h-3.024a.254.254 0 0 0-.196.084l-.798.798a.276.276 0 0 0-.084.196v4.718c0 .07.028.14.084.196l.798.798a.254.254 0 0 0 .196.084h2.38c.084 0 .154-.028.196-.084l1.47-1.456a.254.254 0 0 0 .084-.196v-1.092h-2.548v-1.232h3.822v3.472l.364 1.82Zm8.933 0h-1.904l-3.724-7.882v7.882h-1.26v-9.338h1.904l3.724 7.882v-7.882h1.26v9.338Zm8.673 0h-6.034v-9.338h6.034v1.232h-4.76v2.814h4.76v1.232h-4.76v2.828h4.76v1.232Zm9.122-2.142c0 .266-.112.504-.294.7l-1.148 1.148a.987.987 0 0 1-.7.294h-4.746v-9.338h4.732c.266 0 .518.098.7.294l1.148 1.148a.978.978 0 0 1 .308.7v5.054Zm-1.288-.168.014-4.718c0-.07-.042-.14-.084-.196l-.798-.798a.276.276 0 0 0-.196-.084h-3.262v6.874h3.248c.084 0 .154-.028.196-.084l.798-.798a.276.276 0 0 0 .084-.196ZM561.46 178.494c0 .28-.112.518-.294.7l-.826.826a.943.943 0 0 1-.672.28h-3.822v3.962h-1.274v-9.338h5.082a.92.92 0 0 1 .672.28l.826.826c.196.196.308.42.308.7v1.764Zm-1.288-.168.014-1.428a.284.284 0 0 0-.084-.196l-.462-.462a.254.254 0 0 0-.196-.084h-3.598v2.912h3.584c.084 0 .154-.028.196-.084l.462-.462a.254.254 0 0 0 .084-.196Zm10.544 5.936h-1.54l-2.66-3.836a.313.313 0 0 0-.238-.126h-1.848v3.962h-1.274v-9.338h5.082a.92.92 0 0 1 .672.28l.826.826c.196.196.308.42.308.7v1.764c0 .28-.112.518-.294.7l-.826.826a.943.943 0 0 1-.672.28h-.35l2.814 3.962Zm-1.96-5.936.014-1.428a.284.284 0 0 0-.084-.196l-.462-.462a.254.254 0 0 0-.196-.084h-3.598v2.912h3.584c.084 0 .154-.028.196-.084l.462-.462a.254.254 0 0 0 .084-.196Zm7.569 5.936h-4.746v-1.148h1.736v-7.042h-1.736v-1.148h4.746v1.148h-1.736v7.042h1.736v1.148Zm8.142-1.61-1.316 1.316a.963.963 0 0 1-.7.294h-2.73a.963.963 0 0 1-.7-.294l-1.148-1.148a.963.963 0 0 1-.294-.7v-5.054c0-.266.098-.504.294-.7l1.148-1.148a.963.963 0 0 1 .7-.294h2.73c.266 0 .504.098.7.294l1.316 1.316-.868.868-1.162-1.162a.254.254 0 0 0-.196-.084h-2.31a.254.254 0 0 0-.196.084l-.798.798a.276.276 0 0 0-.084.196v4.718c0 .07.028.14.084.196l.798.798a.254.254 0 0 0 .196.084h2.31c.084 0 .14-.028.196-.084l1.148-1.162.882.868Zm5.415 1.61h-4.746v-1.148h1.736v-7.042h-1.736v-1.148h4.746v1.148h-1.736v7.042h1.736v1.148Zm8.534 0h-1.904l-3.724-7.882v7.882h-1.26v-9.338h1.904l3.724 7.882v-7.882h1.26v9.338Zm10.366 0h-1.218l-.266-1.33-1.036 1.036a.933.933 0 0 1-.686.294h-2.772a.963.963 0 0 1-.7-.294l-1.148-1.148a.963.963 0 0 1-.294-.7v-5.054c0-.266.098-.504.294-.7l1.148-1.148a.963.963 0 0 1 .7-.294h3.458c.266 0 .49.098.686.294l1.316 1.316-.868.868-1.162-1.162a.254.254 0 0 0-.196-.084h-3.024a.254.254 0 0 0-.196.084l-.798.798a.276.276 0 0 0-.084.196v4.718c0 .07.028.14.084.196l.798.798a.254.254 0 0 0 .196.084h2.38c.084 0 .154-.028.196-.084l1.47-1.456a.254.254 0 0 0 .084-.196v-1.092h-2.548v-1.232h3.822v3.472l.364 1.82Z"/>
  <path stroke="#84E0F7" stroke-width="2" d="M536.906 185.262v94"/>
  <path fill="#1D1D1F" stroke="#84E0F7" stroke-width="2" d="M539.906 281.262h-6v-6h6z"/>
  <path stroke="#343435" d="M768.684 281.48c6.804.051 16.555 1.038 24.363 5.446 8.166 4.609 12.154 11.844 11.852 21.503l-.025.804-58.461-19.876.246-.317c.059-.075 6.056-7.562 21.648-7.562l.377.002Z"/>
  <path stroke="#343435" d="M740.531 269.262c23.005 0 46.089 6.095 52.552 13.876l-1.369.493c-.101-.042-10.278-4.212-21.928-4.212-1.633 0-3.242.082-4.781.245-16.504 1.746-20.977 8.609-22.135 11.479-.231.573-.495 1.36-.832 2.355-1.882 5.59-5.802 17.223-15.971 25.66-12.072 10.017-27.846 21.155-53.302 27.816l-1.421.371.144-.79c.056-.304 5.56-30.526 7.053-40.851l.191-1.356c1.471-10.584 3.484-25.079 34.831-32.212 8.383-1.907 17.457-2.874 26.968-2.874Zm-73.975 80.26-.676.055c-.054.005-1.349.109-3.37.109-5.414 0-15.34-.735-20.989-5.658-5.49-4.785-13.68-17.196 28.751-29.059l1.416-.397-5.132 34.95Z"/>
  <path stroke="#343435" d="M633.625 333.133c-.028.083-2.75 8.349 6.591 13.379 5.497 2.962 12.604 4.527 20.549 4.527a63.46 63.46 0 0 0 10.709-.914c1.119-.191 2.627-.477 4.536-.838 10.621-2.009 32.722-6.19 52.502-6.19h.411c23.611.07 51.053 1.147 75.576 8.613l1.368.417-1.453.338c-.559.131-56.144 13.086-74.938 17.676l-2.462.604c-11.801 2.904-26.487 6.517-42.742 6.517-11.106 0-21.302-1.648-31.168-5.039-14.537-4.995-24.526-13.047-27.404-22.09-2.182-6.853.201-13.333 6.373-17.333l1.552.333Zm175.665 20.43c.104.064 10.298 6.51 2.046 13.204-3.648 2.959-12.239 7.922-28.794 7.922-10.689 0-23.012-2.074-36.623-6.163l-1.391-.418 64.333-14.81.429.265Z"/>
  <path stroke="#343435" d="M746.928 292.434c.503.177 50.497 17.832 67.771 23.699l2.272.768c17.739 5.988 42.035 14.188 38.609 31.144-1.54 7.629-8.904 14.888-20.734 20.441-10.625 4.987-23.624 7.965-34.772 7.965-1.369 0-2.715-.046-3.998-.137l-.167-.831c.16-.029 16.11-2.881 20.461-9.358 5.313-7.909-4.407-13.29-8.832-15.237-.885-.389-2.124-.9-3.695-1.547-8.808-3.635-27.138-11.196-36.72-19.798-11.377-10.213-22.838-22.569-21.573-36.778l.071-.793 1.307.462Z"/>
  <mask id="c" fill="#fff">
    <path d="M782.906 312.863h130v56h-130v-56Z"/>
  </mask>
  <path fill="#273135" d="M782.906 312.863h130v56h-130v-56Z"/>
  <path fill="#84E0F7" d="M782.906 368.863h2v-56h-4v56h2Z" mask="url(#c)"/>
  <path fill="#84E0F7" d="M810.644 335.863h-1.246v-8.148l-2.646 8.148h-1.288l-2.632-8.148v8.148h-1.26v-9.338h2.086l2.45 7.588 2.45-7.588h2.086v9.338Zm9.979-2.142c0 .266-.112.504-.294.7l-1.148 1.148a.987.987 0 0 1-.7.294h-3.458a.963.963 0 0 1-.7-.294l-1.148-1.148a.963.963 0 0 1-.294-.7v-5.054c0-.266.098-.504.294-.7l1.148-1.148a.963.963 0 0 1 .7-.294h3.444c.266 0 .518.098.7.294l1.148 1.148a.978.978 0 0 1 .308.7v5.054Zm-1.288-.168.014-4.718c0-.07-.042-.14-.084-.196l-.798-.798a.276.276 0 0 0-.196-.084h-3.038a.254.254 0 0 0-.196.084l-.798.798a.276.276 0 0 0-.084.196v4.718c0 .07.028.14.084.196l.798.798a.254.254 0 0 0 .196.084h3.024c.084 0 .154-.028.196-.084l.798-.798a.276.276 0 0 0 .084-.196Zm11.093 2.31h-1.54l-2.66-3.836a.313.313 0 0 0-.238-.126h-1.848v3.962h-1.274v-9.338h5.082a.92.92 0 0 1 .672.28l.826.826c.196.196.308.42.308.7v1.764c0 .28-.112.518-.294.7l-.826.826a.943.943 0 0 1-.672.28h-.35l2.814 3.962Zm-1.96-5.936.014-1.428a.284.284 0 0 0-.084-.196l-.462-.462a.254.254 0 0 0-.196-.084h-3.598v2.912h3.584c.084 0 .154-.028.196-.084l.462-.462a.254.254 0 0 0 .084-.196Zm9.837 5.936h-6.034v-9.338h6.034v1.232h-4.76v2.814h4.76v1.232h-4.76v2.828h4.76v1.232Zm13.347 0h-1.54l-2.66-3.836a.313.313 0 0 0-.238-.126h-1.848v3.962h-1.274v-9.338h5.082a.92.92 0 0 1 .672.28l.826.826c.196.196.308.42.308.7v1.764c0 .28-.112.518-.294.7l-.826.826a.943.943 0 0 1-.672.28h-.35l2.814 3.962Zm-1.96-5.936.014-1.428a.284.284 0 0 0-.084-.196l-.462-.462a.254.254 0 0 0-.196-.084h-3.598v2.912h3.584c.084 0 .154-.028.196-.084l.462-.462a.254.254 0 0 0 .084-.196Zm11.154 3.794c0 .266-.112.504-.294.7l-1.148 1.148a.987.987 0 0 1-.7.294h-3.458a.963.963 0 0 1-.7-.294l-1.148-1.148a.963.963 0 0 1-.294-.7v-5.054c0-.266.098-.504.294-.7l1.148-1.148a.963.963 0 0 1 .7-.294h3.444c.266 0 .518.098.7.294l1.148 1.148a.978.978 0 0 1 .308.7v5.054Zm-1.288-.168.014-4.718c0-.07-.042-.14-.084-.196l-.798-.798a.276.276 0 0 0-.196-.084h-3.038a.254.254 0 0 0-.196.084l-.798.798a.276.276 0 0 0-.084.196v4.718c0 .07.028.14.084.196l.798.798a.254.254 0 0 0 .196.084h3.024c.084 0 .154-.028.196-.084l.798-.798a.276.276 0 0 0 .084-.196Zm10.224.168c0 .266-.112.504-.294.7l-1.148 1.148a.987.987 0 0 1-.7.294h-2.604a.963.963 0 0 1-.7-.294l-1.148-1.148a.963.963 0 0 1-.294-.7v-7.196h1.274v7.028c0 .07.028.14.084.196l.798.798a.254.254 0 0 0 .196.084h2.17c.084 0 .154-.028.196-.084l.798-.798a.276.276 0 0 0 .084-.196v-7.028h1.288v7.196Zm8.137-5.964h-2.8v8.106h-1.274v-8.106h-2.8v-1.232h6.874v1.232Zm7.483 8.106h-6.034v-9.338h6.034v1.232h-4.76v2.814h4.76v1.232h-4.76v2.828h4.76v1.232Zm9.123-2.142c0 .266-.112.504-.294.7l-1.148 1.148a.987.987 0 0 1-.7.294h-4.746v-9.338h4.732c.266 0 .518.098.7.294l1.148 1.148a.978.978 0 0 1 .308.7v5.054Zm-1.288-.168.014-4.718c0-.07-.042-.14-.084-.196l-.798-.798a.276.276 0 0 0-.196-.084h-3.262v6.874h3.248c.084 0 .154-.028.196-.084l.798-.798a.276.276 0 0 0 .084-.196Zm-84.315 18.168c0 .266-.112.504-.294.7l-1.148 1.148a.987.987 0 0 1-.7.294h-3.458a.963.963 0 0 1-.7-.294l-1.148-1.148a.963.963 0 0 1-.294-.7v-5.054c0-.266.098-.504.294-.7l1.148-1.148a.963.963 0 0 1 .7-.294h3.444c.266 0 .518.098.7.294l1.148 1.148a.978.978 0 0 1 .308.7v5.054Zm-1.288-.168.014-4.718c0-.07-.042-.14-.084-.196l-.798-.798a.276.276 0 0 0-.196-.084h-3.038a.254.254 0 0 0-.196.084l-.798.798a.276.276 0 0 0-.084.196v4.718c0 .07.028.14.084.196l.798.798a.254.254 0 0 0 .196.084h3.024c.084 0 .154-.028.196-.084l.798-.798a.276.276 0 0 0 .084-.196Zm11.093 2.31h-1.54l-2.66-3.836a.313.313 0 0 0-.238-.126h-1.848v3.962h-1.274v-9.338h5.082a.92.92 0 0 1 .672.28l.826.826c.196.196.308.42.308.7v1.764c0 .28-.112.518-.294.7l-.826.826a.943.943 0 0 1-.672.28h-.35l2.814 3.962Zm-1.96-5.936.014-1.428a.284.284 0 0 0-.084-.196l-.462-.462a.254.254 0 0 0-.196-.084h-3.598v2.912h3.584c.084 0 .154-.028.196-.084l.462-.462a.254.254 0 0 0 .084-.196Zm10.692 3.794c0 .266-.112.504-.294.7l-1.148 1.148a.987.987 0 0 1-.7.294h-4.746v-9.338h4.732c.266 0 .518.098.7.294l1.148 1.148a.978.978 0 0 1 .308.7v5.054Zm-1.288-.168.014-4.718c0-.07-.042-.14-.084-.196l-.798-.798a.276.276 0 0 0-.196-.084h-3.262v6.874h3.248c.084 0 .154-.028.196-.084l.798-.798a.276.276 0 0 0 .084-.196Zm9.564 2.31h-6.034v-9.338h6.034v1.232h-4.76v2.814h4.76v1.232h-4.76v2.828h4.76v1.232Zm9.795 0h-1.54l-2.66-3.836a.313.313 0 0 0-.238-.126h-1.848v3.962h-1.274v-9.338h5.082a.92.92 0 0 1 .672.28l.826.826c.196.196.308.42.308.7v1.764c0 .28-.112.518-.294.7l-.826.826a.943.943 0 0 1-.672.28h-.35l2.814 3.962Zm-1.96-5.936.014-1.428a.284.284 0 0 0-.084-.196l-.462-.462a.254.254 0 0 0-.196-.084h-3.598v2.912h3.584c.084 0 .154-.028.196-.084l.462-.462a.254.254 0 0 0 .084-.196Zm9.851 1.876h-4.774v4.06h-1.274v-9.338h6.048v1.232h-4.774v2.814h4.774v1.232Zm7.886 4.06h-6.034v-9.338h1.274v8.106h4.76v1.232Zm8.655-2.142c0 .266-.112.504-.294.7l-1.148 1.148a.987.987 0 0 1-.7.294h-3.458a.963.963 0 0 1-.7-.294l-1.148-1.148a.963.963 0 0 1-.294-.7v-5.054c0-.266.098-.504.294-.7l1.148-1.148a.963.963 0 0 1 .7-.294h3.444c.266 0 .518.098.7.294l1.148 1.148a.978.978 0 0 1 .308.7v5.054Zm-1.288-.168.014-4.718c0-.07-.042-.14-.084-.196l-.798-.798a.276.276 0 0 0-.196-.084h-3.038a.254.254 0 0 0-.196.084l-.798.798a.276.276 0 0 0-.084.196v4.718c0 .07.028.14.084.196l.798.798a.254.254 0 0 0 .196.084h3.024c.084 0 .154-.028.196-.084l.798-.798a.276.276 0 0 0 .084-.196Zm13.305-7.028-2.002 9.338h-1.75l-1.638-8.008-1.638 8.008h-1.736l-1.988-9.338h1.302l1.596 8.05 1.61-8.05h1.806l1.582 8.05 1.624-8.05h1.232Z"/>
  <path stroke="#84E0F7" stroke-width="2" d="M783.906 337.262v94"/>
  <path fill="#1D1D1F" stroke="#84E0F7" stroke-width="2" d="M786.906 432.262h-6v-6h6z"/>
  <path stroke="#84E0F7" stroke-width="2" d="M578.529 259.189c21.117-9.859 46.213-17.667 73.857-22.978 27.645-5.311 57.295-8.02 87.259-7.974 29.964.046 59.655 2.848 87.377 8.244 27.723 5.397 52.933 13.283 74.192 23.208m59.432 45.475c13.079 21.211 11.492 43.941-4.856 64.965-16.347 21.022-46.57 39.186-86.433 51.872M681.342 437.72c-28.941-3.621-56.056-9.884-79.797-18.431-23.742-8.547-43.631-19.205-58.543-31.356-14.915-12.154-24.539-25.547-28.374-39.398-3.834-13.846-1.809-27.867 5.889-41.279"/>
  <path stroke="#84E0F7" stroke-linejoin="bevel" stroke-width="2" d="m955.101 296.505-7.384 4.617m7.384-4.617 11.34 2.273m-11.34-2.273 5.968 10.392m-2.62-4.562-7.384 4.617m7.384-4.617 11.34 2.273m-11.34-2.273 5.968 10.391m-402.683-46.054 12.239.741m-12.239-.741-1.315-5.729m1.315 5.729 16.474-7.523m-7.233 3.303 12.24.741m-12.24-.741-1.315-5.729m1.315 5.729 16.474-7.523m124.067 186.535-5.218-5.221m5.218 5.221-9.655 3.589m9.655-3.589-22.432-2.463m9.849 1.082-5.219-5.222m5.219 5.222-9.656 3.588m9.656-3.588L676.5 437.62"/>
</svg>
